<svg width="430" height="397" viewBox="0 0 430 397" fill="none" xmlns="http://www.w3.org/2000/svg">
<path fill-rule="evenodd" clip-rule="evenodd" d="M377.894 139.715H370.07V205.448V205.466H370.07C370.086 206.71 371.831 207.715 373.982 207.715C376.132 207.715 377.878 206.71 377.894 205.466H377.894V205.448V139.715Z" fill="#BD80FF"/>
<path fill-rule="evenodd" clip-rule="evenodd" d="M377.894 140.322H375.162V207.62C376.746 207.33 377.894 206.472 377.894 205.458C377.894 205.431 377.893 205.403 377.891 205.375H377.894V140.322Z" fill="#8C35E3"/>
<ellipse cx="373.982" cy="139.781" rx="3.91221" ry="2.2666" fill="#E1C7FF"/>
<path fill-rule="evenodd" clip-rule="evenodd" d="M251.894 153.715H244.07V219.448V219.466H244.07C244.086 220.71 245.831 221.715 247.982 221.715C250.132 221.715 251.878 220.71 251.894 219.466H251.894V219.448V153.715Z" fill="#BD80FF"/>
<path fill-rule="evenodd" clip-rule="evenodd" d="M251.894 154.322H249.162V221.62C250.746 221.33 251.894 220.472 251.894 219.458C251.894 219.431 251.893 219.403 251.891 219.375H251.894V154.322Z" fill="#8C35E3"/>
<ellipse cx="247.982" cy="153.781" rx="3.91221" ry="2.2666" fill="#E1C7FF"/>
<path fill-rule="evenodd" clip-rule="evenodd" d="M257.894 208.715H250.07V274.448V274.466H250.07C250.086 275.71 251.831 276.715 253.982 276.715C256.132 276.715 257.878 275.71 257.894 274.466H257.894V274.448V208.715Z" fill="#BD80FF"/>
<path fill-rule="evenodd" clip-rule="evenodd" d="M257.894 209.322H255.162V276.62C256.746 276.33 257.894 275.472 257.894 274.458C257.894 274.431 257.893 274.403 257.891 274.375H257.894V209.322Z" fill="#8C35E3"/>
<ellipse cx="253.982" cy="208.781" rx="3.91221" ry="2.2666" fill="#E1C7FF"/>
<path fill-rule="evenodd" clip-rule="evenodd" d="M337.894 161.715H330.07V227.448V227.466H330.07C330.086 228.71 331.831 229.715 333.982 229.715C336.132 229.715 337.878 228.71 337.894 227.466H337.894V227.448V161.715Z" fill="#BD80FF"/>
<path fill-rule="evenodd" clip-rule="evenodd" d="M337.894 162.322H335.162V229.62C336.746 229.33 337.894 228.472 337.894 227.458C337.894 227.431 337.893 227.403 337.891 227.375H337.894V162.322Z" fill="#8C35E3"/>
<ellipse cx="333.982" cy="161.781" rx="3.91221" ry="2.2666" fill="#E1C7FF"/>
<path d="M72.0127 72.4397L144.013 113.44L72.0127 154.44L0.0126953 113.44L72.0127 72.4397Z" fill="#E1C7FF"/>
<path d="M144.013 113.44L72.0127 154.44V188.94V259.44L82 253.752V194.569L134.232 224.009L144.013 218.44V113.44Z" fill="#8C35E3"/>
<path d="M102.34 193.091L87.4862 201.607M102.34 193.091L79.0967 173.457L55.8536 166.44L41 174.956M102.34 193.091V203.184L87.4862 211.7M87.4862 201.607L64.2431 181.973L41 174.956M87.4862 201.607V211.7M41 174.956V185.049L64.2431 204.682L87.4862 211.7" stroke="#11171D" stroke-width="4" stroke-linecap="round" stroke-linejoin="round"/>
<path d="M55.8536 166.44L41 174.956L64.2431 181.973L79.0967 173.457L55.8536 166.44Z" stroke="#11171D" stroke-width="4" stroke-linecap="round" stroke-linejoin="round"/>
<path d="M90.0856 182.734L102.559 175.532C103.228 175.209 103.647 174.434 103.647 173.304C103.647 171.165 102.144 168.563 100.291 167.493C99.3496 166.949 98.4984 166.906 97.889 167.276L97.8673 167.238L82.3386 176.204" stroke="#11171D" stroke-width="4" stroke-linecap="round" stroke-linejoin="round"/>
<path d="M144.013 113.44L72.0127 154.44V259.44L82 253.752V159.252L134.232 129.509V224.009L144.013 219.295V113.44Z" fill="#BD80FF"/>
<path d="M0 218.44L72 259.44V154.44L0 113.44V218.44Z" fill="#CEA4FF"/>
<path fill-rule="evenodd" clip-rule="evenodd" d="M198.894 245.715H191.07V311.448V311.466H191.07C191.086 312.71 192.831 313.715 194.982 313.715C197.132 313.715 198.878 312.71 198.894 311.466H198.894V311.448V245.715Z" fill="#BD80FF"/>
<path fill-rule="evenodd" clip-rule="evenodd" d="M198.894 246.322H196.162V313.62C197.746 313.33 198.894 312.472 198.894 311.458C198.894 311.431 198.893 311.403 198.891 311.375H198.894V246.322Z" fill="#8C35E3"/>
<ellipse cx="194.982" cy="245.781" rx="3.91221" ry="2.2666" fill="#E1C7FF"/>
<path d="M400.654 139.625L162.268 277.78V266.78L400.654 128.625V139.625Z" fill="#BD80FF"/>
<path d="M98.2935 254.28L170.294 295.28V263.28L98.2935 222.28V254.28Z" fill="#CEA4FF"/>
<path d="M311.201 102.509L98.2934 222.28L170.293 263.279L399.201 130.509L371.201 82.0219L311.201 102.509Z" fill="#E1C7FF"/>
<path d="M365.159 63.1501L295.159 23.1501L331.159 2.65015L400.642 42.1008L365.159 63.1501Z" fill="#E1C7FF"/>
<path d="M295.159 22.6501L367.159 65.6501V82.1501V128.65L357.171 122.963V87.7795L304.94 117.22L295.159 111.65V22.6501Z" fill="#8C35E3"/>
<path d="M364.159 62.6501V151.279L400.649 131.081V42.0809L364.159 62.6501Z" fill="#A45AF4"/>
<path d="M295.159 22.6501L364.159 62.6501V151.279L354.171 145.963V67.4629L304.94 38.7199V117.22L295.159 111.65V22.6501Z" fill="#CEA4FF"/>
<path d="M359.117 8.30007C359.117 9.83561 358.141 11.3711 356.188 12.5427C352.283 14.8859 345.951 14.8859 342.046 12.5427C340.093 11.3711 339.117 9.83561 339.117 8.30007M359.117 8.30007C359.117 6.76454 358.141 5.229 356.188 4.05743C352.283 1.71428 345.284 0.941196 342.046 4.05743C340.093 5.229 339.117 6.76454 339.117 8.30007M359.117 8.30007C361.156 12.5091 362.59 29.3001 362.59 29.3001C362.543 31.2352 361.241 33.1621 358.684 34.6387C354.161 38.8732 345.028 37.6465 339.818 34.6387C337.26 33.1621 335.958 31.2352 335.912 29.3001C336.137 23.539 339.117 8.30007 339.117 8.30007M356.684 28.6387C354.612 29.8348 352.029 30.5553 349.34 30.8001" stroke="#11171D" stroke-width="4" stroke-linecap="round" stroke-linejoin="round"/>
<path d="M328.115 15.6906C328.115 15.6906 318.381 14.6613 315.558 12.3259" stroke="#11171D" stroke-width="4" stroke-linecap="round" stroke-linejoin="round"/>
<path d="M369.56 15.6905C369.56 15.6905 380.15 11.9688 382.117 12.3259" stroke="#11171D" stroke-width="4" stroke-linecap="round" stroke-linejoin="round"/>
<path d="M330.502 8.7115C328.335 6.85966 322.861 4.30006 322.861 4.30006" stroke="#11171D" stroke-width="4" stroke-linecap="round" stroke-linejoin="round"/>
<path d="M367.173 8.71149C367.173 8.71149 373.524 5.48346 374.814 4.30005" stroke="#11171D" stroke-width="4" stroke-linecap="round" stroke-linejoin="round"/>
<path d="M328.117 23.3001C328.117 23.3001 321.077 23.9528 319.117 23.3" stroke="#11171D" stroke-width="4" stroke-linecap="round" stroke-linejoin="round"/>
<path d="M369.558 23.3001C371.127 23.9528 378.558 23.3 378.558 23.3" stroke="#11171D" stroke-width="4" stroke-linecap="round" stroke-linejoin="round"/>
<circle r="10.1026" transform="matrix(1 0 0 -1 417.444 148.462)" stroke="#11171D" stroke-width="4" stroke-linecap="round" stroke-linejoin="round"/>
<circle r="9.50754" transform="matrix(-0.866025 0.5 -2.20305e-08 -1 383.315 93.4462)" fill="#7325C1"/>
<path d="M414.415 136.925C414.415 136.925 392.317 96.1014 382.975 86.3714M378.052 93.1392C378.052 93.1392 407.148 144.673 408.816 142.053" stroke="#11171D" stroke-width="4" stroke-linecap="round" stroke-linejoin="round"/>
<path d="M418.796 151.114C419.67 150.167 420.203 148.903 420.203 147.513C420.203 146.639 420.069 145.793 419.618 145.087" stroke="#11171D" stroke-width="4" stroke-linecap="round" stroke-linejoin="round"/>
<path d="M353.203 140.544L338.349 149.06M353.203 140.544L329.959 120.91L306.716 113.892L291.863 122.408M353.203 140.544V150.637L338.349 159.153M338.349 149.06L315.106 129.426L291.863 122.408M338.349 149.06V159.153M291.863 122.408V132.501L315.106 152.135L338.349 159.153" stroke="#11171D" stroke-width="4" stroke-linecap="round" stroke-linejoin="round"/>
<path d="M306.716 113.892L291.863 122.408L315.106 129.426L329.959 120.91L306.716 113.892Z" stroke="#11171D" stroke-width="4" stroke-linecap="round" stroke-linejoin="round"/>
<path d="M340.948 130.186L353.422 122.984C354.091 122.662 354.509 121.887 354.509 120.757C354.509 118.617 353.007 116.016 351.154 114.946C350.212 114.402 349.361 114.359 348.752 114.729L348.73 114.691L333.201 123.656" stroke="#11171D" stroke-width="4" stroke-linecap="round" stroke-linejoin="round"/>
<path d="M225.531 340.145L158.531 378.145V340.145L225.531 302.145V340.145Z" fill="#BD80FF"/>
<path fill-rule="evenodd" clip-rule="evenodd" d="M101.848 224.371C103.358 223.426 105.482 223.522 107.835 224.881C112.418 227.527 116.134 233.963 116.134 239.255C116.134 242.081 115.074 244.01 113.389 244.791L59.2063 275.554C57.6911 276.559 55.53 276.486 53.1312 275.101C48.5477 272.455 44.832 266.019 44.832 260.726C44.832 258.058 45.7764 256.19 47.3001 255.332L47.2997 255.332L92.6131 229.698L101.844 224.372L101.848 224.371Z" fill="#CEA4FF"/>
<path fill-rule="evenodd" clip-rule="evenodd" d="M114.544 233.069L114.546 233.043L60.2184 264.631L58.9692 275.705L113.249 244.853C115.018 244.117 116.137 242.16 116.137 239.255C116.137 237.241 115.6 235.062 114.681 232.989L114.544 233.069Z" fill="#8C35E3"/>
<circle r="9.58308" transform="matrix(0.866025 0.5 -2.20305e-08 1 53.1312 265.518)" fill="#E1C7FF"/>
<path fill-rule="evenodd" clip-rule="evenodd" d="M122.848 238.371C124.358 237.426 126.482 237.522 128.835 238.881C133.418 241.527 137.134 247.963 137.134 253.255C137.134 256.081 136.074 258.01 134.389 258.791L80.2063 289.554C78.6911 290.559 76.53 290.486 74.1312 289.101C69.5477 286.455 65.832 280.019 65.832 274.726C65.832 272.058 66.7764 270.19 68.3001 269.332L68.2997 269.332L113.613 243.698L122.844 238.372L122.848 238.371Z" fill="#CEA4FF"/>
<path fill-rule="evenodd" clip-rule="evenodd" d="M135.544 247.069L135.546 247.043L81.2184 278.631L79.9692 289.705L134.249 258.853C136.018 258.117 137.137 256.16 137.137 253.255C137.137 251.241 136.6 249.062 135.681 246.989L135.544 247.069Z" fill="#8C35E3"/>
<circle r="9.58308" transform="matrix(0.866025 0.5 -2.20305e-08 1 74.1312 279.518)" fill="#E1C7FF"/>
<path fill-rule="evenodd" clip-rule="evenodd" d="M144.848 252.371C146.358 251.426 148.482 251.522 150.835 252.881C155.418 255.527 159.134 261.963 159.134 267.255C159.134 270.081 158.074 272.01 156.389 272.791L102.206 303.554C100.691 304.559 98.53 304.486 96.1312 303.101C91.5477 300.455 87.832 294.019 87.832 288.726C87.832 286.058 88.7764 284.19 90.3001 283.332L90.2997 283.332L135.613 257.698L144.844 252.372L144.848 252.371Z" fill="#CEA4FF"/>
<path fill-rule="evenodd" clip-rule="evenodd" d="M157.544 261.069L157.546 261.043L103.218 292.631L101.969 303.705L156.249 272.853C158.018 272.117 159.137 270.16 159.137 267.255C159.137 265.241 158.6 263.062 157.681 260.989L157.544 261.069Z" fill="#8C35E3"/>
<circle r="9.58308" transform="matrix(0.866025 0.5 -2.20305e-08 1 96.1312 293.518)" fill="#E1C7FF"/>
<path fill-rule="evenodd" clip-rule="evenodd" d="M167.848 265.871C169.358 264.926 171.482 265.022 173.835 266.381C178.418 269.027 182.134 275.463 182.134 280.755C182.134 283.581 181.074 285.51 179.389 286.291L125.206 317.054C123.691 318.059 121.53 317.986 119.131 316.601C114.548 313.955 110.832 307.519 110.832 302.226C110.832 299.558 111.776 297.69 113.3 296.832L113.3 296.832L158.613 271.198L167.844 265.872L167.848 265.871Z" fill="#CEA4FF"/>
<path fill-rule="evenodd" clip-rule="evenodd" d="M180.544 274.569L180.546 274.543L126.218 306.131L124.969 317.205L179.249 286.353C181.018 285.617 182.137 283.66 182.137 280.755C182.137 278.741 181.6 276.562 180.681 274.489L180.544 274.569Z" fill="#8C35E3"/>
<circle r="9.58308" transform="matrix(0.866025 0.5 -2.20305e-08 1 119.131 307.018)" fill="#E1C7FF"/>
<path fill-rule="evenodd" clip-rule="evenodd" d="M190.848 279.871C192.358 278.926 194.482 279.022 196.835 280.381C201.418 283.027 205.134 289.463 205.134 294.755C205.134 297.581 204.074 299.51 202.389 300.291L148.206 331.054C146.691 332.059 144.53 331.986 142.131 330.601C137.548 327.955 133.832 321.519 133.832 316.226C133.832 313.558 134.776 311.69 136.3 310.832L136.3 310.832L181.613 285.198L190.844 279.872L190.848 279.871Z" fill="#CEA4FF"/>
<path fill-rule="evenodd" clip-rule="evenodd" d="M203.544 288.569L203.546 288.543L149.218 320.131L147.969 331.205L202.249 300.353C204.018 299.617 205.137 297.66 205.137 294.755C205.137 292.741 204.6 290.562 203.681 288.489L203.544 288.569Z" fill="#8C35E3"/>
<circle r="9.58308" transform="matrix(0.866025 0.5 -2.20305e-08 1 142.131 321.018)" fill="#E1C7FF"/>
<path fill-rule="evenodd" clip-rule="evenodd" d="M212.848 293.371C214.358 292.426 216.482 292.522 218.835 293.881C223.418 296.527 227.134 302.963 227.134 308.255C227.134 311.081 226.074 313.01 224.389 313.791L170.206 344.554C168.691 345.559 166.53 345.486 164.131 344.101C159.548 341.455 155.832 335.019 155.832 329.726C155.832 327.058 156.776 325.19 158.3 324.332L158.3 324.332L203.613 298.698L212.844 293.372L212.848 293.371Z" fill="#CEA4FF"/>
<path fill-rule="evenodd" clip-rule="evenodd" d="M225.544 302.069L225.546 302.043L171.218 333.631L169.969 344.705L224.249 313.853C226.018 313.117 227.137 311.16 227.137 308.255C227.137 306.241 226.6 304.062 225.681 301.989L225.544 302.069Z" fill="#8C35E3"/>
<circle r="9.58308" transform="matrix(0.866025 0.5 -2.20305e-08 1 164.131 334.518)" fill="#E1C7FF"/>
<path d="M45.3159 312.47L158.531 378.145V344.145L45.3159 276.47V312.47Z" fill="#CEA4FF"/>
<path fill-rule="evenodd" clip-rule="evenodd" d="M255.885 354.999C256.643 354.631 257.118 353.751 257.118 352.468C257.118 350.033 255.409 347.074 253.301 345.857C252.229 345.238 251.261 345.189 250.567 345.609L250.543 345.567L215.486 365.807L220.906 375.195L255.885 354.999Z" fill="#A45AF4"/>
<path fill-rule="evenodd" clip-rule="evenodd" d="M257.117 352.468C257.117 353.75 256.642 354.631 255.885 354.999L220.905 375.195L218.739 371.442L256.477 349.654C256.881 350.587 257.117 351.564 257.117 352.468Z" fill="#7325C1"/>
<path d="M255.63 374.978L238.733 384.666V396.148L255.63 386.46V374.978Z" fill="#BD80FF"/>
<path d="M238.733 384.666L212.291 362.33L185.849 354.346V365.828L212.291 388.164L238.733 396.148V384.666Z" fill="#CEA4FF"/>
<path d="M238.733 384.666L255.63 374.978L229.188 352.642L202.746 344.658L185.849 354.346L212.291 362.33L238.733 384.666Z" fill="#E1C7FF"/>
<path d="M202.746 344.658L185.849 354.346L212.291 362.33L229.188 352.642L202.746 344.658Z" fill="#E9D7FF"/>
<g clip-path="url(#clip0_13_472)">
<path fill-rule="evenodd" clip-rule="evenodd" d="M205.298 372.479C206.602 373.232 207.587 371.716 208.066 370.978L208.067 370.978C208.109 370.913 208.147 370.854 208.181 370.803C208.21 370.761 208.24 370.716 208.271 370.669C208.693 370.037 209.352 369.048 210.162 368.894L210.5 367.28C210.579 366.959 210.338 366.465 210.01 366.276L205.59 363.724C205.241 363.522 204.937 363.623 204.854 363.968C204.387 365.932 204.141 367.702 204.141 369.133C204.141 370.521 204.542 372.042 205.298 372.479ZM212.244 372.918C212.244 372.152 212.024 371.2 211.539 370.92C210.801 370.494 210.17 371.429 209.503 372.42L209.502 372.421L209.502 372.421C209.038 373.111 208.557 373.824 207.934 374.255C207.569 374.508 207.029 374.756 206.282 374.608L209.678 376.569C210.029 376.771 210.354 376.749 210.538 376.51C210.637 376.38 210.738 376.252 210.837 376.127L210.85 376.11C211.567 375.206 212.244 374.351 212.244 372.918ZM212.59 370.124L217.42 372.913C218.49 373.531 219.276 375.101 219.276 376.946C219.276 378.922 218.467 379.925 217.685 380.893C216.955 381.797 216.25 382.672 216.25 384.281L216.25 385.634C216.25 385.956 216.024 386.086 215.745 385.926L211.237 383.323C210.958 383.162 210.732 382.771 210.732 382.449L210.732 380.994C210.732 379.547 211.412 378.688 212.132 377.78L212.133 377.779C212.932 376.771 213.758 375.728 213.758 373.793C213.758 372.496 213.364 371.132 212.59 370.124Z" fill="#BD80FF"/>
</g>
<path d="M169.845 345.548C169.845 345.548 205.447 322.274 221.725 316.555C223.595 315.465 224.75 313.141 224.75 309.838C224.75 303.211 220.098 295.152 214.358 291.838C200.627 279.635 133.517 248.49 103.832 225.747C100.985 224.104 98.4056 223.936 96.5286 224.994C85.6866 234.029 54.9123 245.894 45.926 253.843M169.845 345.548C171.707 344.454 172.857 342.133 172.857 338.838C172.857 332.211 168.205 324.152 162.465 320.838C148.718 313.746 71.2264 266.287 52.9397 254.747C50.2366 253.186 47.7745 252.957 45.926 253.843M169.845 345.548C167.962 346.653 165.351 346.504 162.465 344.838L52.9397 278.747C47.2002 275.433 42.5474 267.374 42.5474 260.747C42.5474 257.241 43.8496 254.838 45.926 253.843" stroke="#11171D" stroke-width="4" stroke-linecap="round" stroke-linejoin="round"/>
<circle r="4.72227" transform="matrix(0.866025 0.5 -2.20305e-08 1 163.111 334.283)" stroke="#11171D" stroke-width="4" stroke-linecap="round" stroke-linejoin="round"/>
<circle r="4.72227" transform="matrix(0.866025 0.5 -2.20305e-08 1 52.9568 266.188)" stroke="#11171D" stroke-width="4" stroke-linecap="round" stroke-linejoin="round"/>
<path fill-rule="evenodd" clip-rule="evenodd" d="M185.468 179.465C183.365 178.46 182.045 176.028 182.045 172.478C182.045 165.774 186.752 157.622 192.557 154.27C195.537 152.55 198.228 152.428 200.141 153.625L200.145 153.626L208.23 158.445L245.234 179.841L245.234 179.842C247.164 180.929 248.36 183.295 248.36 186.675C248.36 193.379 243.653 201.531 237.848 204.883C234.78 206.654 232.019 206.73 230.098 205.42L185.468 179.465Z" fill="#E9D7FF"/>
<path fill-rule="evenodd" clip-rule="evenodd" d="M198.444 173.062L198.458 173.042L185.647 165.569L184.055 164.61L184.059 164.642L183.885 164.541C182.721 167.167 182.04 169.927 182.04 172.478C182.04 176.148 183.451 178.624 185.681 179.562L230.453 205.648L228.87 191.621L198.331 173.214C198.369 173.164 198.406 173.113 198.444 173.062Z" fill="#CEA4FF"/>
<circle r="12.1385" transform="matrix(-0.866025 0.5 2.20305e-08 1 237.848 192.744)" fill="#A45AF4"/>
<circle r="7.91104" transform="matrix(-0.866025 0.5 2.20305e-08 1 237.848 192.744)" fill="#7325C1"/>
<path d="M235.448 190.236L247.002 196.808L246.913 172.865L217.417 155.327L217.777 138.555" stroke="#11171D" stroke-width="4" stroke-linecap="round" stroke-linejoin="round"/>
<path fill-rule="evenodd" clip-rule="evenodd" d="M213.281 142.481C213.2 143.221 213.643 143.984 214.613 144.57C216.43 145.667 219.409 145.724 221.267 144.699C222.221 144.173 222.694 143.464 222.682 142.75L222.683 142.748L222.767 138.477L223.356 117.61L223.356 117.61C223.377 116.909 222.931 116.198 222.015 115.645C220.199 114.549 217.219 114.491 215.361 115.516C214.389 116.052 213.916 116.779 213.947 117.507L213.281 142.481Z" fill="#BD80FF"/>
<path fill-rule="evenodd" clip-rule="evenodd" d="M217.066 145.306L217.074 145.312L217.487 120.118L213.944 117.394L213.289 142.42C213.175 143.179 213.615 143.969 214.612 144.571C215.303 144.988 216.163 145.255 217.065 145.369L217.066 145.306Z" fill="#8C35E3"/>
<circle r="3.8424" transform="matrix(-0.875582 0.48307 -0.856142 -0.516741 218.651 117.501)" fill="#A45AF4"/>
<path fill-rule="evenodd" clip-rule="evenodd" d="M285.023 362.92C300.872 372.07 326.306 372.221 341.831 363.258C350.157 358.451 353.942 351.999 353.218 345.638H353.34V335.495H347.921C346.138 333.696 343.912 332 341.245 330.46C325.396 321.31 299.963 321.158 284.438 330.122C281.622 331.747 279.326 333.561 277.548 335.495H272.938V345.638H272.975C272.712 351.839 276.737 358.136 285.023 362.92Z" fill="#8C35E3"/>
<path fill-rule="evenodd" clip-rule="evenodd" d="M338.009 328.776L325.262 328.776V368.945C331.344 367.909 337.056 366.014 341.831 363.258C348.926 359.162 352.724 353.871 353.244 348.459H353.34V334.663H347.057C345.435 333.172 343.497 331.76 341.245 330.46C340.206 329.86 339.125 329.298 338.009 328.776Z" fill="#7325C1"/>
<ellipse rx="33.1361" ry="32.4597" transform="matrix(0.866025 0.5 -0.866025 0.5 313.134 336.648)" fill="#A45AF4"/>
<path fill-rule="evenodd" clip-rule="evenodd" d="M342.015 264.284H284.26V334.783H284.287C284.097 339.237 286.989 343.76 292.941 347.196C304.326 353.769 322.595 353.878 333.748 347.439C339.728 343.987 342.447 339.352 341.927 334.783H342.015V264.284Z" fill="#CEA4FF"/>
<path fill-rule="evenodd" clip-rule="evenodd" d="M342.015 264.485H329.846V349.32C331.219 348.771 332.526 348.145 333.748 347.44C338.844 344.497 341.572 340.697 341.946 336.809H342.015V264.485Z" fill="#BD80FF"/>
<ellipse rx="23.8026" ry="23.3167" transform="matrix(0.866025 0.5 -0.866025 0.5 313.134 265.112)" fill="#E9D7FF"/>
<circle r="4.72227" transform="matrix(0.866025 0.5 -2.20305e-08 1 286.211 246.721)" fill="#11171D"/>
<path d="M296.353 197.433L307.768 191.487C308.719 191.091 310.493 190.415 310.493 188.322C310.493 186.23 310.199 181.757 309.304 179.761C309.306 178.873 307.102 177.266 304.676 174.841C290.354 157.65 242.153 120.202 226.218 105.115C224.082 104.388 221.567 103.813 219.195 104.46C216.212 105.274 212.305 105.466 211.599 107.3M211.599 107.3C210.554 110.016 209.888 114.944 209.809 115.816C209.506 117.091 210.161 118.755 211.474 120.334C213.49 122.76 276.847 190.697 276.847 190.697M211.599 107.3C234.738 124.28 266.625 161.358 283.689 177.837M298.826 253.206C299.994 238.108 295.954 185.707 295.954 185.707C295.871 183.966 294.009 180.072 288.876 178.576C282.937 176.843 279.039 180.073 278.72 183.313C274.782 196.952 275.369 247.94 275.369 247.94C274.334 252.145 278.528 259.525 285.422 259.908C292.315 260.291 298.928 257.278 298.826 253.206Z" stroke="#11171D" stroke-width="4" stroke-linecap="round" stroke-linejoin="round"/>
<circle r="3.82084" transform="matrix(0.866025 0.5 -2.20305e-08 1 287.556 191.233)" fill="#11171D"/>
<path d="M316.607 234.766C318.904 216.603 314.025 171.343 314.025 171.343C313.817 169.155 312.08 165.708 306.947 164.211C301.008 162.479 298.233 164.967 297.915 168.208" stroke="#11171D" stroke-width="4" stroke-linecap="round" stroke-linejoin="round"/>
<path d="M283.557 259.363C288.815 260.404 296.773 272.935 310.696 274.176C321.672 275.154 338.283 269.39 333.498 260.382C331.103 255.874 312.194 222.942 297.901 221.411" stroke="#11171D" stroke-width="4" stroke-linecap="round" stroke-linejoin="round"/>
<defs>
<clipPath id="clip0_13_472">
<rect width="17.5218" height="16.3496" fill="white" transform="matrix(0.866025 0.5 -2.20305e-08 1 204.122 362.871)"/>
</clipPath>
</defs>
</svg>
