<svg width="200" height="200" viewBox="0 0 200 200" fill="none" xmlns="http://www.w3.org/2000/svg">
<path d="M109.232 181.981C109.674 167.643 108.28 142.551 109.232 129.65M162.646 150.331C162.646 135.78 163.642 136.975 162.646 99.4766M57.1005 150.331C57.4988 147.131 55.5074 114.87 57.1005 99.4766M109.232 129.65C109.232 130.403 127.199 118.056 162.646 99.4766M109.232 129.65C100.843 125.428 87.8549 117.647 78.4087 112.082C65.4811 104.466 57.1005 99.4766 57.1005 99.4766M57.1005 99.4766C69.6464 92.168 99.7169 74.6435 109.232 69.0413C109.232 69.0413 149.498 93.1637 162.646 99.4766" stroke="#11171D" stroke-width="2.5" stroke-linecap="round" stroke-linejoin="round"/>
<path d="M110.427 190.413C107.683 190.544 86.7727 176.206 52.7194 156.738V156.194C52.7194 156.194 53.3168 152.614 52.7194 148.763M110.427 190.413C110.427 190.413 115.648 187.358 117.956 186.283M110.427 190.413C110.427 190.413 109.873 185.964 110.427 182.671M110.427 182.671C110.427 182.671 63.0747 156.194 59.0412 152.614C59.0412 152.614 55.5073 149.72 52.7194 148.763M110.427 182.671C112.462 182.578 161.65 151.91 166.629 150.019M52.7194 148.763L56.9704 145.888M166.629 150.019V157.564C143.329 171.625 136.595 175.013 136.595 175.013M166.629 150.019L162.704 147.764" stroke="#11171D" stroke-width="2.5" stroke-linecap="round" stroke-linejoin="round"/>
<path d="M125.563 189.658V185.434M125.563 189.658C125.563 189.658 117.64 186.76 118.717 185.954V182.064M125.563 189.658C125.563 189.658 130.385 187.955 139.144 181.69V176.989M125.563 185.434L118.717 182.064M125.563 185.434C127.398 183.574 139.144 176.989 139.144 176.989M118.717 182.064C122.618 180.587 132.998 173.404 132.998 173.404C133.372 173.816 139.144 176.989 139.144 176.989" stroke="#11171D" stroke-width="2.5" stroke-linecap="round" stroke-linejoin="round"/>
<path d="M157.383 147.204C156.871 136.975 157.383 118.979 157.383 118.979C149.702 123.035 136.525 131.139 136.525 131.139C136.525 131.139 137.156 142.551 136.525 152.705M157.383 147.204C155.477 147.928 139.744 157.486 136.525 159.071C136.525 159.071 136.16 155.694 136.525 152.705M157.383 147.204L151.83 143.893C148.905 144.94 136.525 152.705 136.525 152.705" stroke="#11171D" stroke-width="2.5" stroke-linecap="round" stroke-linejoin="round"/>
<path d="M64.8758 112.058L101.518 133.461V165.827L64.8758 143.708V112.058Z" stroke="#11171D" stroke-width="2.5" stroke-linecap="round" stroke-linejoin="round"/>
<path d="M125.785 61.5971C125.785 66.7519 118.517 70.9306 109.553 70.9306C100.588 70.9306 93.3203 66.7519 93.3203 61.5971C93.3203 56.4423 100.588 52.2635 109.553 52.2635C118.517 52.2635 125.785 56.4423 125.785 61.5971Z" fill="#FFD7E7"/>
<path d="M131.77 92.5398C131.77 91.6356 131.608 90.7532 131.299 89.9021L125.785 61.5971C125.785 66.7519 118.517 70.9306 109.553 70.9306C100.588 70.9306 93.3203 66.7519 93.3203 61.5971L89.3757 86.9056L87.5376 90.4165V92.5398C87.5376 92.9001 87.5634 93.257 87.614 93.6098C87.8134 95.0011 88.467 95.7157 89.3757 96.9448L90.7943 97.6888V91.9837C90.7943 91.3598 91.469 90.9692 92.01 91.2798L98.5854 95.0546C99.0973 95.3485 99.4093 95.8971 99.4002 96.4872L99.2956 103.313L100.669 104.224C101.967 104.558 103.331 104.822 104.746 105.007C106.325 105.214 107.967 105.323 109.654 105.323C111.802 105.323 113.878 105.146 115.842 104.816C124.475 103.364 130.928 98.9535 131.694 93.6098C131.745 93.257 131.77 92.9002 131.77 92.5398Z" fill="#FFD7E7"/>
<mask id="mask0_5399_155152" style="mask-type:alpha" maskUnits="userSpaceOnUse" x="87" y="61" width="45" height="45">
<path d="M131.77 92.5393C131.77 91.635 131.608 90.7527 131.299 89.9015L125.785 61.5966C125.785 66.7513 118.517 70.9301 109.553 70.9301C100.588 70.9301 93.3203 66.7513 93.3203 61.5966L87.5376 90.4159V92.5393C87.5376 92.8996 87.5634 93.2565 87.614 93.6093C87.8134 95.0006 88.4671 95.2915 89.3757 96.5206L90.7943 97.3689L90.9311 90.8646L99.415 95.5308L99.2956 103.312L100.669 104.223C101.967 104.557 103.331 104.821 104.746 105.006C106.325 105.213 107.967 105.322 109.654 105.322C111.802 105.322 113.878 105.145 115.842 104.815C124.475 103.364 130.928 98.953 131.694 93.6093C131.745 93.2565 131.77 92.8996 131.77 92.5393Z" fill="#E7ECFD"/>
</mask>
<g mask="url(#mask0_5399_155152)">
<rect x="114.321" y="62.0028" width="30.6383" height="44.6386" fill="#FFA4C1"/>
</g>
<path d="M125.998 61.454C125.998 66.6861 118.528 70.9276 109.313 70.9276C100.098 70.9276 92.6278 66.6861 92.6278 61.454C92.6278 56.2218 100.098 51.9803 109.313 51.9803C118.528 51.9803 125.998 56.2218 125.998 61.454Z" fill="#FFA4C1"/>
<path fill-rule="evenodd" clip-rule="evenodd" d="M105.799 70.6509V52.5423C107.065 52.3599 108.391 52.2631 109.755 52.2631C118.72 52.2631 125.988 56.4418 125.988 61.5966C125.988 66.7514 118.72 70.9301 109.755 70.9301C108.391 70.9301 107.065 70.8333 105.799 70.6509Z" fill="#FF80A8"/>
<path d="M131.265 88.9606C131.574 89.8138 131.737 90.6982 131.737 91.6046C131.737 91.9658 131.711 92.3235 131.66 92.6771C131.66 99.3332 123.046 103.409 114.403 104.863M131.265 88.9606C132.133 89.8758 133.463 91.0961 132.956 97.0959C132.956 104.509 122.497 110.519 109.596 110.519C106.162 110.519 102.9 110.093 99.9637 109.329M131.265 88.9606L125.998 61.4542M125.998 61.4542C125.998 66.6864 118.528 70.9279 109.313 70.9279C100.098 70.9279 92.628 66.6864 92.628 61.4542C92.628 56.2221 100.098 51.9806 109.313 51.9806C118.528 51.9806 125.998 56.2221 125.998 61.4542ZM99.9637 109.329C98.5861 109.947 96.8531 110.316 94.9706 110.316C90.4832 110.316 86.8454 108.222 86.8454 105.638C86.8454 103.604 86.8557 102.831 86.8557 100.18M99.9637 109.329C99.5812 108.178 98.6947 106.212 100.122 104.165M100.122 104.165C98.6618 104.973 97.1561 104.621 94.9706 104.621C92.2001 104.621 89.7534 103.823 88.2868 102.604C87.4511 101.909 86.9335 101.078 86.8557 100.18M100.122 104.165C101.422 104.499 103.266 104.764 104.683 104.95M100.122 104.165L99.2259 102.403L99.2259 96.2661C99.226 95.6588 98.9021 95.0976 98.3764 94.7937L98.3375 94.7712L91.9911 91.1025C91.4242 90.7748 90.7152 91.1839 90.7152 91.8387L90.7151 97.4834L89.2263 96.635M89.2263 96.635C88.3166 95.403 87.7309 94.0717 87.5312 92.6771C87.4806 92.3235 87.4548 91.9658 87.4548 91.6046V89.4762M89.2263 96.635C87.7553 97.4815 86.8454 98.6512 86.8454 99.9433C86.8454 100.023 86.8489 100.102 86.8557 100.18M86.8557 100.18C86.4504 99.1901 86.236 98.1574 86.236 97.0959C85.8146 92.1168 86.659 90.4293 87.4548 89.4762M108.986 74.1136L114.054 70.5517L114.403 104.863M108.986 74.1136V98.5196L104.721 99.3332M108.986 74.1136L89.2264 63.4329M104.721 99.3332L104.683 104.95M104.721 99.3332C104.721 99.3332 101.572 94.9604 96.0877 91.6675C90.6033 88.3747 87.4548 89.2899 87.4548 89.2899M104.683 104.95C106.263 105.157 107.907 105.266 109.596 105.266C111.746 105.266 112.438 105.194 114.403 104.863M89.2264 63.4329L92.6738 60.7472M89.2264 63.4329V87.0255L88.1554 88.3944L87.4548 89.2899M87.4548 89.2899V89.4762" stroke="#11171D" stroke-width="2.5" stroke-linejoin="round"/>
<path d="M95.4559 76.8663L101.677 80.5427" stroke="#11171D" stroke-width="2.5"/>
<path d="M101.96 81.591C101.96 83.6859 100.441 84.5351 98.5667 83.4876C96.6925 82.4401 95.1732 79.8927 95.1732 77.7977C95.1732 75.7027 96.6925 74.8536 98.5667 75.9011C100.441 76.9485 101.96 79.496 101.96 81.591Z" stroke="#11171D" stroke-width="2.5" stroke-linejoin="round"/>
<path fill-rule="evenodd" clip-rule="evenodd" d="M99.9972 22.5293C100.687 22.5297 101.247 23.0892 101.247 23.7793C101.247 23.7758 101.247 23.7772 101.248 23.7833C101.256 23.8199 101.303 24.0259 101.551 24.3721C101.816 24.7439 102.256 25.1919 102.908 25.6256C104.203 26.4871 106.314 27.2755 109.433 27.2755C112.753 27.2755 114.944 26.4805 116.266 25.619C116.931 25.1858 117.371 24.7397 117.634 24.3718C117.883 24.0233 117.926 23.8157 117.933 23.7827C117.934 23.7781 117.934 23.7769 117.934 23.7793C117.934 23.1913 118.34 22.6982 118.887 22.5648C118.407 21.6269 117.343 20.6765 115.705 19.94C114.015 19.1799 111.837 18.7078 109.433 18.7078C106.958 18.7078 104.723 19.2082 103.014 20.007C101.472 20.728 100.47 21.6344 99.9972 22.5293ZM120.402 23.4947C120.423 23.5861 120.434 23.6814 120.434 23.7793C120.434 24.4839 120.111 25.2055 119.667 25.8262C119.202 26.4767 118.524 27.1315 117.631 27.7135C115.837 28.8826 113.153 29.7755 109.433 29.7755C105.887 29.7755 103.28 28.876 101.523 27.707C100.649 27.1254 99.9789 26.4726 99.5167 25.8259C99.0778 25.2118 98.7468 24.4893 98.7465 23.7801C94.9343 25.7015 92.0128 28.004 89.8992 31.1897C87.6925 34.5156 86.2927 38.9152 85.8006 45.0864C84.8567 56.9245 95.2555 68.8193 109.637 68.8193C116.322 68.8193 121.83 66.9184 125.871 63.0669C129.916 59.2115 132.638 53.2629 133.473 44.886C133.775 40.022 132.077 34.8243 129.385 30.7203C126.792 26.7681 123.456 24.0869 120.402 23.4947ZM101.956 17.7422C104.037 16.7695 106.639 16.2078 109.433 16.2078C112.148 16.2078 114.681 16.7382 116.731 17.6599C118.509 18.4596 120.023 19.6021 120.9 21.0444C124.898 21.8269 128.724 25.1557 131.475 29.349C134.405 33.8155 136.316 39.551 135.967 45.0661C135.966 45.0809 135.964 45.0957 135.963 45.1105C135.09 53.9047 132.198 60.49 127.596 64.8766C122.985 69.2705 116.804 71.3193 109.637 71.3193C93.8967 71.3193 82.2408 58.2784 83.3085 44.8877C83.8223 38.4446 85.3033 33.5946 87.816 29.8075C90.2534 26.134 93.5925 23.5647 97.7154 21.5003C98.5093 19.8889 100.082 18.6181 101.956 17.7422Z" fill="#11171D"/>
<path d="M122.892 29.8965C126.378 33.6758 128.508 38.7256 128.508 44.2729C128.508 47.7627 127.973 51.1427 126.172 53.9591" stroke="#11171D" stroke-width="2.5" stroke-linecap="round" stroke-linejoin="round"/>
<path d="M68.2487 31.4397H71.3651V90.288L68.2487 92.1023V31.4397Z" fill="#FFA4C1"/>
<path fill-rule="evenodd" clip-rule="evenodd" d="M70.2768 90.9177V31.5743H71.3651V90.2929L70.2768 90.9177Z" fill="#FF80A8"/>
<ellipse cx="69.8069" cy="31.5744" rx="1.55817" ry="0.902751" fill="#FFC7DE"/>
<path d="M36.9944 50.9175C48.3382 44.9712 59.291 39.1961 68.6692 32.4779L68.6692 54.8071C59.6893 61.3009 48.3382 67.4743 36.9944 73.2468L36.9944 50.9175Z" stroke="#11171D" stroke-width="2.5" stroke-linejoin="round"/>
<path fill-rule="evenodd" clip-rule="evenodd" d="M46.8127 56.6069C47.7813 56.0184 48.5131 53.9442 48.8694 52.9345C48.9007 52.8456 48.9292 52.765 48.9546 52.6944C48.9759 52.6353 48.9982 52.5731 49.0215 52.5081L49.0215 52.5081C49.3346 51.6338 49.8245 50.2657 50.4262 49.4136L50.6769 47.8478C50.7355 47.5252 50.5564 47.3567 50.3132 47.5045L47.03 49.4994C46.7703 49.6571 46.5446 50.0106 46.4836 50.3544C46.1361 52.3118 45.9539 53.9169 45.9539 55.0351C45.9539 56.1201 46.2511 56.9481 46.8127 56.6069ZM51.9717 50.6808C51.9717 50.0817 51.8077 49.5366 51.4474 49.7555C50.8995 50.0884 50.4311 51.389 49.9353 52.766L49.9348 52.7674C49.5896 53.7259 49.2327 54.7169 48.7698 55.6166C48.4985 56.1441 48.0975 56.8251 47.5431 57.3831L50.0653 55.8507C50.3258 55.6924 50.5677 55.3811 50.7038 55.0286C50.7777 54.8373 50.8524 54.6472 50.9265 54.4587L50.9362 54.4341C51.4688 53.0799 51.9717 51.801 51.9717 50.6808ZM52.2284 48.1848L55.8161 46.0049C56.6106 45.5222 57.195 46.0394 57.1949 47.4818C57.1949 49.0265 56.5937 50.5408 56.0131 52.0033C55.471 53.369 54.9467 54.6896 54.9467 55.9476L54.9467 57.0054C54.9467 57.2568 54.779 57.5625 54.5721 57.6883L51.2232 59.723C51.0163 59.8487 50.8485 59.7468 50.8485 59.4953L50.8485 58.3576C50.8485 57.2265 51.3537 55.9418 51.8885 54.5818L51.8888 54.5811C52.4824 53.0716 53.096 51.5109 53.096 49.9977C53.096 48.9843 52.8034 48.2733 52.2284 48.1848Z" fill="#11171D"/>
<path fill-rule="evenodd" clip-rule="evenodd" d="M37.1163 51.5428H34V154.201H34.0001C34.0065 154.696 34.7016 155.097 35.5582 155.097C36.4148 155.097 37.1099 154.696 37.1163 154.201C37.1164 154.2 37.1163 154.199 37.1163 154.198V154.201M37.1163 51.5428V154.19V51.5428Z" fill="#FFA4C1"/>
<path fill-rule="evenodd" clip-rule="evenodd" d="M37.1164 51.7847H36.0281V155.059C36.659 154.944 37.1164 154.602 37.1164 154.198C37.1164 154.187 37.1161 154.176 37.1154 154.165H37.1164V51.7847Z" fill="#FF80A8"/>
<ellipse cx="35.5582" cy="51.5694" rx="1.55817" ry="0.902751" fill="#FFC7DE"/>
<path d="M86.4286 126.133L79.6062 122.206L59.9052 141.692L66.7383 145.712L86.4286 126.133Z" fill="#FCEEF5"/>
<path d="M59.8618 141.673V146.62L66.6504 150.394V145.631L59.8618 141.673Z" fill="#FFA4C1"/>
<path d="M100.035 133.988L93.2126 130.061L73.5117 149.547L80.3447 153.568L100.035 133.988Z" fill="#FCEEF5"/>
<path d="M73.4682 149.529V154.475L80.2568 158.25V153.486L73.4682 149.529Z" fill="#FFA4C1"/>
<path d="M93.2318 130.06L86.4094 126.133L66.7085 145.619L73.5415 149.64L93.2318 130.06Z" fill="#FFC7DE"/>
<path d="M66.665 145.601V150.547L73.4536 154.322V149.559L66.665 145.601Z" fill="#FF80A8"/>
<path d="M79.6256 122.205L72.8032 118.278L53.1023 137.764L59.9353 141.785L79.6256 122.205Z" fill="#FFC7DE"/>
<path d="M53.0588 137.745V142.692L59.8474 146.467V141.703L53.0588 137.745Z" fill="#FF80A8"/>
<path d="M72.8226 118.278L66.0002 114.351L46.2993 133.837L53.1323 137.857L72.8226 118.278Z" fill="#FCEEF5"/>
<path d="M46.2556 133.818V138.765L53.0442 142.539V137.776L46.2556 133.818Z" fill="#FFA4C1"/>
<path d="M131.717 169.463C131.337 162.937 132.598 158.639 131.717 133.398C131.717 133.398 117.241 140.958 118.184 141.704C117.242 152.906 118.184 177.769 118.184 177.769" stroke="#11171D" stroke-width="2.5" stroke-linecap="round" stroke-linejoin="round"/>
<circle r="1.70576" transform="matrix(0.866025 -0.5 2.20305e-08 1 122.99 158.764)" stroke="#11171D" stroke-width="2.5" stroke-linecap="round" stroke-linejoin="round"/>
</svg>
