<svg width="426" height="444" viewBox="0 0 426 444" fill="none" xmlns="http://www.w3.org/2000/svg">
<path d="M83.059 339.003C83.059 339.003 66.5 347.412 67.6152 349.777M83.059 339.003C83.5 388.412 88 414.912 88.3493 439.902C82.359 440.902 76.0245 441.439 69.4719 441.439C64.3264 441.439 59.3153 441.108 54.4998 440.481M83.059 339.003C83.059 339.003 54.6159 335.319 42.0601 327.322C29.5042 319.325 19.9514 307.636 19.9514 307.636C19.9514 307.636 8.5 314.912 7.39877 317.471M67.6152 349.777C66 370.912 69.4719 399.412 67.6152 423.599M67.6152 349.777C69.4719 347.412 61 346.412 7.39877 317.471M67.6152 423.599L54.6159 426.059M67.6152 423.599C67.6152 423.599 48.1163 406.373 31.3879 397.761C14.6595 389.148 7.39877 388.832 7.39877 388.832M54.6159 426.059L54.4998 440.481M54.6159 426.059C54.6159 426.059 45.0213 412.833 28.308 402.873C11.5947 392.913 2 395.681 2 395.681M54.4998 440.481C50.1813 439.919 46.0201 439.119 42.0601 438.107L37.8711 435.345V423.585C37.8711 421.655 36.8383 419.871 35.1637 418.911V418.911C35.1637 418.911 26.5955 414.44 19.7024 409.615C17.1671 407.84 11.9355 410.051 11.9355 413.146V420.464L7.3984 417.898C4.62637 414.171 2.84163 410.145 2.23303 405.926C2.0787 404.857 2 403.775 2 402.682V396.244V395.681M7.39877 317.471C6.5 319.412 8.5 376.412 7.39877 388.832M7.39877 388.832L4.13495 392.972L2 395.681" stroke="#11171D" stroke-width="4" stroke-linejoin="round"/>
<path d="M424 321.912C424 339.032 410 349.412 365 352.912C332 352.912 306 339.032 306 321.912C308 300.412 332.415 290.912 365 290.912C397.585 290.912 424 304.791 424 321.912Z" stroke="#11171D" stroke-width="4" stroke-linejoin="round"/>
<path d="M412.255 321.688C414.5 332.912 392.104 342.084 364.802 344.248C337.5 346.412 317.349 334.148 317.349 321.688C317.349 306.412 338.594 299.128 364.802 299.128C391.01 299.128 412.255 309.229 412.255 321.688Z" stroke="#11171D" stroke-width="4" stroke-linejoin="round"/>
<path d="M363.685 2C329.727 2 324.834 23.6587 324.518 36.7027C324.494 37.6591 324.805 38.6017 325.394 39.3557C347.754 67.9894 395.689 56.307 403.709 37.4018C403.915 36.9145 404.004 36.4033 403.987 35.8743C403.815 30.4861 401.267 1.99998 363.685 2Z" stroke="#11171D" stroke-width="3.59322" stroke-linejoin="round"/>
<ellipse cx="363.127" cy="15.6236" rx="10.3305" ry="6.28814" stroke="#11171D" stroke-width="3.59322" stroke-linejoin="round"/>
<path d="M372.559 18.3188C372.559 16.5223 368.032 14.7256 363.127 14.7256C357.468 14.7256 353.695 16.5222 353.695 18.3188" stroke="#11171D" stroke-width="3.59322" stroke-linejoin="round"/>
<path d="M286.841 350.412C286.841 346.945 286.218 343.562 285.033 340.299C288.359 343.8 293.453 348.467 291.508 371.416C291.508 399.772 255 418.205 202.047 422.759C186 424.139 176.406 421.13 165.159 418.205M286.841 350.412C286.841 323.345 248.877 301.403 202.047 301.403C155.217 301.403 117.254 323.345 117.254 350.412M286.841 350.412C286.841 351.794 286.742 353.162 286.548 354.514M117.254 350.412V342.271M117.254 350.412C117.254 351.793 117.353 353.162 117.547 354.514M165.159 418.205C159.883 420.571 153.247 421.981 146.037 421.981C124.038 422.759 114.92 413.97 114.92 404.089C114.92 396.309 114.96 393.354 114.96 383.214M165.159 418.205C163.695 413.802 162.132 403.039 167.598 395.208M167.598 395.208C162.005 398.299 154.407 400.199 146.037 400.199C136.5 402.412 126.057 397.145 120.44 392.483C117.24 389.827 115.258 386.648 114.96 383.214M167.598 395.208C172.575 396.488 177 397.477 183.231 398.21C189.463 398.943 192.5 398.21 202.047 399.421C210.5 400.199 218.243 398.743 225.771 397.477C258.87 391.913 282.5 372.898 286.548 354.514M167.598 395.208L162.334 391.716C157.967 393.608 152.27 394.753 146.037 394.753C138.778 394.753 132.245 393.2 127.695 390.722C123.627 388.506 121.144 385.551 121.144 382.307C121.144 378.549 124.474 375.18 129.74 372.898L124.038 369.653M124.038 369.653C118.405 372.891 114.92 377.365 114.92 382.307C114.92 382.611 114.933 382.913 114.96 383.214M124.038 369.653C120.555 364.94 118.312 359.849 117.547 354.514M114.96 383.214C113.407 379.426 112.586 375.476 112.586 371.416C110.972 352.371 114.206 345.917 117.254 342.271M117.254 342.271V341.558L119.937 338.133M286.548 354.514C274.372 334.462 241.137 320.073 202.047 320.073C162.957 320.073 129.723 334.462 117.547 354.514" stroke="#11171D" stroke-width="4" stroke-linejoin="round"/>
<path fill-rule="evenodd" clip-rule="evenodd" d="M174.61 98.5652C181.022 94.7627 189.75 92.4753 199.284 92.4753C208.817 92.4753 217.545 94.7627 223.957 98.5652C230.326 102.342 234.734 107.844 234.734 114.312C234.734 120.78 230.326 126.283 223.957 130.06C217.545 133.862 208.817 136.149 199.284 136.149C189.75 136.149 181.022 133.862 174.61 130.06C168.242 126.283 163.833 120.78 163.833 114.312C163.833 107.844 168.242 102.342 174.61 98.5652ZM167.833 114.312C167.833 114.233 167.834 114.154 167.836 114.074C169.385 117.481 172.809 120.265 176.955 122.285C182.773 125.119 190.67 126.816 199.284 126.816C207.898 126.816 215.795 125.119 221.613 122.285C225.758 120.265 229.182 117.481 230.731 114.075C230.733 114.154 230.734 114.233 230.734 114.312C230.734 118.8 227.655 123.216 221.917 126.619C216.222 129.996 208.225 132.149 199.284 132.149C190.343 132.149 182.345 129.996 176.651 126.619C170.912 123.216 167.833 118.8 167.833 114.312ZM175.261 103.416C172.332 105.536 170.945 107.869 170.945 110.036C170.945 111.97 172.05 114.038 174.372 115.967L185.287 109.904L175.261 103.416ZM179.153 101.17L186.682 106.042C187.155 104.729 188.161 103.669 189.328 102.862L184.217 99.284C182.376 99.8242 180.678 100.458 179.153 101.17ZM189.465 98.0749L193.604 100.972C195.333 100.507 197.268 100.255 199.284 100.255C201.517 100.255 203.651 100.564 205.515 101.131L209.722 98.186C206.499 97.5875 202.981 97.2551 199.284 97.2551C195.822 97.2551 192.517 97.5465 189.465 98.0749ZM186.393 113.865L178.182 118.427C178.354 118.515 178.529 118.602 178.707 118.689C180.915 119.765 183.51 120.676 186.393 121.365V113.865ZM212.016 106.461C211.66 105.104 210.74 103.997 209.621 103.139L214.894 99.4476C216.706 100.006 218.371 100.656 219.861 101.382L219.863 101.383L212.016 106.461ZM214.058 109.904L223.669 103.685C226.35 105.732 227.623 107.96 227.623 110.036C227.623 111.883 226.615 113.852 224.502 115.706L214.058 109.904ZM212.175 113.433L220.786 118.217C220.488 118.376 220.179 118.534 219.861 118.689C217.652 119.765 215.058 120.676 212.175 121.365V113.433ZM208.175 122.148V113.187C208.076 113.24 207.978 113.291 207.879 113.34C205.576 114.491 202.534 115.146 199.284 115.146C196.033 115.146 192.991 114.491 190.688 113.34C190.59 113.291 190.491 113.24 190.393 113.187V122.148C193.183 122.58 196.17 122.816 199.284 122.816C202.398 122.816 205.384 122.58 208.175 122.148ZM192.477 109.762C190.719 108.883 190.393 108.039 190.393 107.701C190.393 107.362 190.719 106.518 192.477 105.639C194.116 104.82 196.519 104.255 199.284 104.255C202.048 104.255 204.452 104.82 206.09 105.639C207.849 106.518 208.175 107.362 208.175 107.701C208.175 108.039 207.849 108.883 206.09 109.762C204.452 110.581 202.048 111.146 199.284 111.146C196.519 111.146 194.116 110.581 192.477 109.762Z" fill="#11171D"/>
<path d="M174.557 41.3552C180.12 44.4864 188.338 46.4674 197.506 46.4674C205.276 46.4674 212.364 45.0443 217.732 42.7038M174.557 41.3552C169.952 38.7634 167.167 35.3836 167.167 31.6869C167.167 23.5238 180.75 16.9064 197.506 16.9064C214.261 16.9064 227.845 23.5238 227.845 31.6869C227.845 36.0644 223.938 39.9974 217.732 42.7038M174.557 41.3552C173.26 37.2248 173.001 28.4974 182.336 26.6304L187.393 28.9266L187.591 28.6525C188.612 27.2427 190.474 26.7284 192.074 27.4142V27.4142C193.661 28.0945 194.573 29.7772 194.275 31.4785L194.17 32.0759L203.617 37.0009L204.084 36.2363C205.022 34.6999 206.874 33.9848 208.601 34.4927V34.4927C210.657 35.0973 211.864 37.2215 211.332 39.297L211.119 40.1258L217.732 42.7038" stroke="#11171D" stroke-width="4" stroke-linejoin="round"/>
<path d="M228.623 18.8497C231.887 19.7989 233.701 15.2229 236.402 16.5159C245.259 20.7556 247.293 24.3487 247.293 30.9075C247.293 43.7965 226.047 54.2452 199.84 54.2452C173.632 54.2452 152.386 43.7965 152.386 30.9075C152.386 18.0185 173.632 7.56982 199.84 7.56982C206.468 7.56982 212.78 8.23825 218.51 9.44551C219.747 9.70621 219.779 12.2961 220.153 14.1822M228.623 18.8497C228.025 18.676 220.348 15.1629 220.153 14.1822M228.623 18.8497L220.153 14.1822" stroke="#11171D" stroke-width="4" stroke-linejoin="round"/>
<path d="M261.907 192.495C261.907 212.258 234.044 228.279 199.673 228.279C165.302 228.279 137.439 212.258 137.439 192.495C137.439 172.732 165.302 156.71 199.673 156.71C234.044 156.71 261.907 172.732 261.907 192.495Z" fill="#FFE98F"/>
<path d="M284.855 311.128C284.855 307.661 284.232 304.278 283.048 301.015L261.907 192.495C261.907 212.258 234.044 228.279 199.673 228.279C165.302 228.279 137.439 212.258 137.439 192.495L115.268 302.987V311.128C115.268 312.509 115.367 313.878 115.561 315.23C116.326 320.565 118.569 325.656 122.053 330.369L127.755 333.614L127.755 311.776C127.755 309.381 130.348 307.884 132.422 309.081L157.237 323.408C159.162 324.52 160.349 326.574 160.348 328.798L160.348 352.432L165.613 355.924C170.589 357.204 175.819 358.216 181.246 358.926C187.298 359.719 193.595 360.137 200.062 360.137C208.296 360.137 216.257 359.459 223.785 358.193C256.884 352.629 281.625 335.718 284.562 315.23C284.756 313.878 284.855 312.51 284.855 311.128Z" fill="#FFE98F"/>
<mask id="mask0_13_425" style="mask-type:alpha" maskUnits="userSpaceOnUse" x="115" y="192" width="170" height="169">
<path d="M284.855 311.127C284.855 307.66 284.232 304.277 283.048 301.014L261.907 192.493C261.907 212.256 234.044 228.278 199.673 228.278C165.302 228.278 137.439 212.256 137.439 192.493L115.268 302.986V311.126C115.268 312.508 115.367 313.876 115.561 315.229C116.326 320.563 118.569 325.655 122.052 330.367L127.754 333.612L127.754 306.385L160.348 325.203L160.348 352.43L165.612 355.922C170.589 357.203 175.819 358.214 181.246 358.925C187.297 359.717 193.595 360.136 200.061 360.136C208.296 360.136 216.257 359.457 223.785 358.192C256.884 352.628 281.625 335.716 284.562 315.229C284.756 313.876 284.855 312.508 284.855 311.127Z" fill="#FFED9C"/>
</mask>
<g mask="url(#mask0_13_425)">
<rect x="217.954" y="194.05" width="117.466" height="171.143" fill="#FFDB4A"/>
</g>
<path d="M262.295 192.494C262.295 212.258 234.432 228.279 200.062 228.279C165.691 228.279 137.828 212.258 137.828 192.494C137.828 172.731 165.691 156.71 200.062 156.71C234.432 156.71 262.295 172.731 262.295 192.494Z" fill="#FFE371"/>
<path fill-rule="evenodd" clip-rule="evenodd" d="M185.281 227.207V157.779C190.136 157.08 195.218 156.708 200.451 156.708C234.821 156.708 262.684 172.73 262.684 192.493C262.684 212.256 234.821 228.277 200.451 228.277C195.218 228.277 190.136 227.906 185.281 227.207Z" fill="#FFCF10"/>
<path d="M116.5 310.412C87.1666 324.318 73.3189 330.481 65 334.423" stroke="#11171D" stroke-width="4" stroke-linecap="round" stroke-linejoin="round" stroke-dasharray="4 9"/>
<path d="M238.958 51.6899C237 143.912 241 186.912 238.958 202.218" stroke="#11171D" stroke-width="4" stroke-linecap="round" stroke-linejoin="round" stroke-dasharray="4 9"/>
<path d="M158.054 51.6899C158.054 51.6899 154 91.9116 158.054 202.218" stroke="#11171D" stroke-width="4" stroke-linecap="round" stroke-linejoin="round" stroke-dasharray="4 9"/>
<path d="M90.9629 402.154C150 367.412 156.351 367.307 187.5 347.912" stroke="#11171D" stroke-width="4" stroke-linecap="round" stroke-linejoin="round" stroke-dasharray="4 9"/>
<path d="M338.741 254.291C340.5 256.912 338.741 289.412 338.741 320.078" stroke="#11171D" stroke-width="4" stroke-linecap="round" stroke-linejoin="round" stroke-dasharray="4 9"/>
<path d="M388.139 254.291C386.5 283.912 388.5 317.412 388.139 320.078" stroke="#11171D" stroke-width="4" stroke-linecap="round" stroke-linejoin="round" stroke-dasharray="4 9"/>
<path d="M342 56.9116V81.9116" stroke="#11171D" stroke-width="4" stroke-linecap="round" stroke-linejoin="round" stroke-dasharray="4 9"/>
<path d="M386 56.9116V81.9116" stroke="#11171D" stroke-width="4" stroke-linecap="round" stroke-linejoin="round" stroke-dasharray="4 9"/>
</svg>
