<svg width="199" height="199" viewBox="0 0 199 199" fill="none" xmlns="http://www.w3.org/2000/svg">
<path d="M47.4042 144.943C47.4042 144.943 40.8661 148.263 41.3064 149.197M47.4042 144.943C47.5784 164.451 49.3552 174.915 49.4931 184.782C47.1278 185.177 44.6267 185.389 42.0395 185.389C40.0078 185.389 38.0293 185.258 36.1279 185.011M47.4042 144.943C47.4042 144.943 36.1737 143.488 31.2162 140.331C26.2586 137.173 22.4867 132.558 22.4867 132.558C22.4867 132.558 17.9653 135.431 17.5305 136.441M41.3064 149.197C40.6686 157.542 42.0395 168.795 41.3064 178.345M41.3064 149.197C42.0395 148.263 38.6944 147.868 17.5305 136.441M41.3064 178.345L36.1737 179.316M41.3064 178.345C41.3064 178.345 33.6074 171.543 27.0024 168.143C20.3973 164.742 17.5305 164.617 17.5305 164.617M36.1737 179.316L36.1279 185.011M36.1737 179.316C36.1737 179.316 32.3854 174.094 25.7863 170.161C19.1872 166.229 15.3988 167.322 15.3988 167.322M36.1279 185.011C34.4228 184.789 32.7798 184.473 31.2162 184.073L29.5622 182.983V178.34C29.5622 177.577 29.1544 176.873 28.4932 176.494V176.494C28.4932 176.494 25.1101 174.729 22.3885 172.823C21.3874 172.123 19.3218 172.996 19.3218 174.218V177.107L17.5303 176.094C16.4358 174.622 15.7311 173.033 15.4908 171.367C15.4299 170.945 15.3988 170.517 15.3988 170.086V167.544V167.322M17.5305 136.441C17.1756 137.207 17.9653 159.713 17.5305 164.617M17.5305 164.617L16.2418 166.252L15.3988 167.322" stroke="#11171D" stroke-width="2.5" stroke-linejoin="round"/>
<path d="M182.022 138.194C182.022 144.954 176.494 149.052 158.726 150.434C145.696 150.434 135.431 144.954 135.431 138.194C136.22 129.705 145.86 125.954 158.726 125.954C171.592 125.954 182.022 131.434 182.022 138.194Z" stroke="#11171D" stroke-width="2.5" stroke-linejoin="round"/>
<path d="M178.271 97.1308C178.271 103.623 169.684 109.597 158.392 109.597C147.101 109.597 138.195 105.005 138.195 98.5127C138.195 92.0203 144.155 87.1223 158.392 86.0859C169.387 85.2855 178.271 90.6384 178.271 97.1308Z" stroke="#11171D" stroke-width="2.5" stroke-linejoin="round"/>
<path fill-rule="evenodd" clip-rule="evenodd" d="M150.215 46.572C147.999 47.6078 146.599 48.9685 146.08 50.3284C146.063 50.3741 146.043 50.4186 146.02 50.4616C146.185 50.3812 146.371 50.3361 146.567 50.3361C147.257 50.3361 147.817 50.8957 147.817 51.5861C147.817 51.6485 147.876 51.9801 148.257 52.5131C148.615 53.0137 149.195 53.6011 150.04 54.1634C151.721 55.282 154.43 56.2841 158.393 56.2841C162.604 56.2841 165.413 55.2753 167.129 54.1568C167.991 53.5951 168.572 53.0096 168.928 52.5128C169.304 51.9862 169.363 51.6535 169.363 51.5861C169.363 50.8957 169.923 50.3361 170.613 50.3361C170.662 50.3361 170.709 50.3389 170.756 50.3442C170.699 50.2691 170.649 50.1869 170.609 50.0985C170.007 48.7744 168.571 47.47 166.383 46.486C164.219 45.513 161.445 44.9139 158.393 44.9139C155.25 44.9139 152.404 45.5488 150.215 46.572ZM171.603 50.8234C171.766 51.0344 171.863 51.299 171.863 51.5861C171.863 52.3774 171.497 53.2175 170.961 53.9671C170.404 54.7466 169.584 55.5407 168.494 56.2513C166.306 57.6775 163.004 58.7841 158.393 58.7841C154.003 58.7841 150.798 57.6708 148.655 56.2448C147.588 55.5347 146.777 54.7424 146.223 53.9668C145.692 53.2236 145.317 52.3823 145.317 51.5861C145.317 51.3771 145.368 51.18 145.459 51.0068C140.354 53.4907 136.447 56.4803 133.649 60.6978C130.845 64.9243 129.08 70.4949 128.461 78.2631C127.262 93.2951 140.453 108.347 158.648 108.347C167.087 108.347 174.074 105.946 179.211 101.05C184.352 96.1513 187.784 88.6149 188.835 78.0626C189.221 71.8838 187.066 65.3008 183.661 60.1109C180.226 54.8751 175.716 51.3402 171.603 50.8234ZM149.156 44.3072C151.717 43.1101 154.932 42.4139 158.393 42.4139C161.755 42.4139 164.885 43.0713 167.408 44.206C169.653 45.2154 171.522 46.653 172.564 48.4432C177.504 49.3498 182.292 53.467 185.751 58.7396C189.394 64.292 191.761 71.4129 191.329 78.2428C191.328 78.2576 191.327 78.2724 191.325 78.2872C190.237 89.2567 186.634 97.4297 180.936 102.86C175.23 108.298 167.569 110.847 158.648 110.847C139.095 110.847 124.647 94.649 125.969 78.0644C126.61 70.0243 128.456 64.0033 131.566 59.3157C134.6 54.7422 138.769 51.5435 143.946 48.965C144.882 46.9889 146.807 45.4054 149.156 44.3072Z" fill="#11171D"/>
<path d="M175.259 59.2521C179.628 63.9883 182.297 70.3167 182.297 77.2686C182.297 81.642 181.627 85.8778 179.37 89.4074" stroke="#11171D" stroke-width="2.5" stroke-linecap="round" stroke-linejoin="round"/>
<path d="M165.833 48.3556C164.008 47.3584 161.351 46.7305 158.393 46.7305C155.434 46.7305 152.777 47.3584 150.952 48.3556" stroke="#11171D" stroke-width="2.5" stroke-linecap="round" stroke-linejoin="round"/>
<path d="M127.866 149.448C127.866 148.079 127.62 146.743 127.152 145.454C128.465 146.837 130.477 148.68 129.709 157.741C129.709 168.937 115.294 176.215 94.3858 178.013C88.0497 178.558 84.2617 177.37 79.8209 176.215M127.866 149.448C127.866 138.76 112.876 130.097 94.3858 130.097C75.8953 130.097 60.9059 138.76 60.9059 149.447M127.866 149.448C127.866 149.993 127.827 150.533 127.75 151.067M60.9059 149.447V146.233M60.9059 149.447C60.9059 149.993 60.9449 150.533 61.0215 151.067M79.8209 176.215C77.7377 177.149 75.1173 177.706 72.2707 177.706C63.5846 178.013 59.9844 174.543 59.9844 170.641C59.9844 167.57 59.9999 166.403 59.9999 162.399M79.8209 176.215C79.2425 174.476 78.6255 170.227 80.7839 167.135M80.7839 167.135C78.5756 168.355 75.5755 169.105 72.2707 169.105C68.505 169.979 64.3817 167.9 62.164 166.059C60.9003 165.01 60.1177 163.755 59.9999 162.399M80.7839 167.135C82.7489 167.64 84.4961 168.031 86.9565 168.32C89.4169 168.61 90.6161 168.32 94.3858 168.798C97.7233 169.105 100.78 168.53 103.753 168.031C116.822 165.834 126.152 158.326 127.75 151.067M80.7839 167.135L78.7053 165.756C76.9811 166.503 74.7315 166.955 72.2707 166.955C69.4047 166.955 66.8251 166.342 65.0285 165.364C63.4222 164.489 62.4417 163.322 62.4417 162.041C62.4417 160.557 63.7568 159.227 65.8359 158.326L63.5846 157.045M63.5846 157.045C61.3603 158.323 59.9844 160.09 59.9844 162.041C59.9844 162.161 59.9896 162.28 59.9999 162.399M63.5846 157.045C62.2091 155.184 61.3235 153.173 61.0215 151.067M59.9999 162.399C59.3871 160.903 59.0629 159.344 59.0629 157.741C58.4257 150.221 59.7026 147.673 60.9059 146.233M60.9059 146.233V145.952L61.9652 144.599M127.75 151.067C122.943 143.15 109.82 137.469 94.3858 137.469C78.9513 137.469 65.829 143.15 61.0215 151.067" stroke="#11171D" stroke-width="2.5" stroke-linejoin="round"/>
<path fill-rule="evenodd" clip-rule="evenodd" d="M83.5118 49.9393C86.0579 48.4294 89.5187 47.5236 93.2947 47.5236C97.0706 47.5236 100.531 48.4294 103.078 49.9393C105.605 51.438 107.372 53.6323 107.372 56.2258C107.372 58.8193 105.605 61.0136 103.078 62.5123C100.531 64.0222 97.0706 64.928 93.2947 64.928C89.5187 64.928 86.0579 64.0222 83.5118 62.5123C80.9846 61.0136 79.2172 58.8193 79.2172 56.2258C79.2172 53.6323 80.9846 51.438 83.5118 49.9393ZM84.3991 61.0161C82.2578 59.7463 81.0774 58.128 80.9655 56.4835C81.6454 57.7075 82.9302 58.7085 84.4433 59.4457C86.7536 60.5712 89.8842 61.2429 93.2948 61.2429C96.7053 61.2429 99.8359 60.5712 102.146 59.4457C103.659 58.7086 104.944 57.7076 105.624 56.4838C105.512 58.1282 104.331 59.7463 102.19 61.0161C99.9562 62.341 96.8131 63.1885 93.2947 63.1885C89.7762 63.1885 86.6332 62.341 84.3991 61.0161ZM85.2052 51.1924C83.1212 52.2077 82.1854 53.4444 82.1854 54.5372C82.1854 55.6299 83.1212 56.8666 85.2052 57.8819C86.0462 58.2917 87.0311 58.6407 88.1247 58.9088V53.6152C88.1247 52.5145 88.9944 51.7522 89.865 51.3169C90.7877 50.8555 92.0015 50.5953 93.2947 50.5953C94.5879 50.5953 95.8017 50.8555 96.7243 51.3169C97.595 51.7522 98.4646 52.5145 98.4646 53.6152V58.9089C99.5584 58.6407 100.543 58.2917 101.384 57.8819C103.468 56.8666 104.404 55.6299 104.404 54.5372C104.404 53.4444 103.468 52.2077 101.384 51.1924C99.359 50.2057 96.5 49.571 93.2948 49.571C90.0895 49.571 87.2305 50.2057 85.2052 51.1924ZM96.7251 59.2511V55.913L96.7243 55.9134C95.8017 56.3748 94.5879 56.635 93.2947 56.635C92.0015 56.635 90.7877 56.3748 89.865 55.9134L89.8643 55.913V59.251C90.9421 59.4143 92.0941 59.5034 93.2948 59.5034C94.4953 59.5034 95.6473 59.4143 96.7251 59.2511ZM90.643 54.3576C89.9572 54.0147 89.8643 53.702 89.8643 53.6152C89.8643 53.5283 89.9572 53.2156 90.643 52.8727C91.2767 52.5559 92.213 52.3348 93.2947 52.3348C94.3764 52.3348 95.3127 52.5559 95.9464 52.8727C96.6321 53.2156 96.7251 53.5283 96.7251 53.6152C96.7251 53.702 96.6321 54.0147 95.9464 54.3576C95.3127 54.6744 94.3764 54.8955 93.2947 54.8955C92.213 54.8955 91.2767 54.6744 90.643 54.3576Z" fill="#11171D"/>
<path d="M92.5925 17.7657C99.2083 17.7657 104.572 20.3786 104.572 23.6017C104.572 25.3301 103.029 26.883 100.579 27.9516C98.4592 28.8758 95.6605 29.4377 92.5925 29.4377C88.9727 29.4377 85.7279 28.6555 83.5314 27.4191C81.7133 26.3958 80.6134 25.0613 80.6134 23.6017C80.6134 20.3786 85.9766 17.7657 92.5925 17.7657Z" stroke="#11171D" stroke-width="2.5" stroke-linejoin="round"/>
<path d="M104.879 18.5331C106.168 18.9079 106.884 17.1011 107.95 17.6116C111.448 19.2856 112.251 20.7043 112.251 23.294C112.251 28.3831 103.862 32.5087 93.5141 32.5087C83.1662 32.5087 74.7776 28.3831 74.7776 23.294C74.7776 18.2049 83.1662 14.0793 93.5141 14.0793C96.1313 14.0793 98.6233 14.3433 100.886 14.8199C101.374 14.9229 101.387 15.9455 101.535 16.6902M104.879 18.5331C104.643 18.4645 101.612 17.0774 101.535 16.6902M104.879 18.5331L101.535 16.6902" stroke="#11171D" stroke-width="2.5" stroke-linejoin="round"/>
<path d="M118.021 87.0966C118.021 94.8999 107.019 101.226 93.4483 101.226C79.8773 101.226 68.8759 94.8999 68.8759 87.0966C68.8759 79.2932 79.8773 72.9674 93.4483 72.9674C107.019 72.9674 118.021 79.2932 118.021 87.0966Z" fill="#FFE98F"/>
<path d="M127.082 133.938C127.082 132.569 126.836 131.233 126.368 129.945L118.021 87.0966C118.021 94.8999 107.019 101.226 93.4483 101.226C79.8773 101.226 68.8759 94.8999 68.8759 87.0966L60.1219 130.724V133.938C60.1219 134.483 60.1609 135.024 60.2375 135.558C60.5395 137.664 61.4251 139.674 62.8006 141.535L65.0519 142.816L65.052 134.194C65.052 133.248 66.0759 132.657 66.8949 133.13L76.6928 138.786C77.453 139.225 77.9214 140.037 77.9214 140.915L77.9213 150.246L79.9999 151.625C81.9649 152.131 84.0297 152.53 86.1725 152.811C88.562 153.123 91.0485 153.289 93.6018 153.289C96.8532 153.289 99.9964 153.021 102.969 152.521C116.038 150.324 125.806 143.647 126.966 135.558C127.043 135.024 127.082 134.483 127.082 133.938Z" fill="#FFE98F"/>
<mask id="mask0_5399_155319" style="mask-type:alpha" maskUnits="userSpaceOnUse" x="60" y="87" width="68" height="67">
<path d="M127.082 133.936C127.082 132.567 126.836 131.232 126.368 129.943L118.021 87.0947C118.021 94.898 107.019 101.224 93.4482 101.224C79.8772 101.224 68.8758 94.898 68.8758 87.0947L60.1218 130.722V133.936C60.1218 134.482 60.1608 135.022 60.2374 135.556C60.5394 137.662 61.425 139.672 62.8005 141.533L65.0518 142.814L65.0519 132.064L77.9213 139.494L77.9212 150.244L79.9998 151.623C81.9648 152.129 84.0296 152.528 86.1724 152.809C88.5619 153.122 91.0484 153.287 93.6017 153.287C96.8531 153.287 99.9963 153.019 102.969 152.519C116.037 150.322 125.806 143.645 126.966 135.556C127.043 135.022 127.082 134.482 127.082 133.936Z" fill="#FFED9C"/>
</mask>
<g mask="url(#mask0_5399_155319)">
<rect x="100.667" y="87.7094" width="46.3805" height="67.5743" fill="#FFDB4A"/>
</g>
<path d="M118.174 87.0961C118.174 94.8994 107.173 101.225 93.6018 101.225C80.0308 101.225 69.0293 94.8994 69.0293 87.0961C69.0293 79.2928 80.0308 72.9669 93.6018 72.9669C107.173 72.9669 118.174 79.2928 118.174 87.0961Z" fill="#FFE371"/>
<path fill-rule="evenodd" clip-rule="evenodd" d="M87.7658 100.801V73.3881C89.6829 73.1121 91.6893 72.9655 93.7552 72.9655C107.326 72.9655 118.328 79.2913 118.328 87.0946C118.328 94.8979 107.326 101.224 93.7552 101.224C91.6893 101.224 89.6829 101.077 87.7658 100.801Z" fill="#FFCF10"/>
<path d="M60.6082 133.654C49.0261 139.144 43.5585 141.578 40.2739 143.135" stroke="#11171D" stroke-width="2.5" stroke-linecap="round" stroke-linejoin="round" stroke-dasharray="1.58 3.55"/>
<path d="M108.96 31.4998C108.187 67.9127 109.766 84.8908 108.96 90.9344" stroke="#11171D" stroke-width="2.5" stroke-linecap="round" stroke-linejoin="round" stroke-dasharray="1.58 3.55"/>
<path d="M77.0154 31.4998C77.0154 31.4998 75.4149 47.3809 77.0154 90.9344" stroke="#11171D" stroke-width="2.5" stroke-linecap="round" stroke-linejoin="round" stroke-dasharray="1.58 3.55"/>
<path d="M50.5251 169.877C73.8354 156.16 76.3429 156.118 88.6419 148.46" stroke="#11171D" stroke-width="2.5" stroke-linecap="round" stroke-linejoin="round" stroke-dasharray="1.58 3.55"/>
<path d="M148.358 111.495C149.053 112.53 148.358 125.362 148.358 137.47" stroke="#11171D" stroke-width="2.5" stroke-linecap="round" stroke-linejoin="round" stroke-dasharray="1.58 3.55"/>
<path d="M167.863 111.495C167.215 123.19 168.005 136.418 167.863 137.47" stroke="#11171D" stroke-width="2.5" stroke-linecap="round" stroke-linejoin="round" stroke-dasharray="1.58 3.55"/>
<path d="M149.645 33.5615V43.4326" stroke="#11171D" stroke-width="2.5" stroke-linecap="round" stroke-linejoin="round" stroke-dasharray="1.58 3.55"/>
<path d="M167.018 33.5615V43.4326" stroke="#11171D" stroke-width="2.5" stroke-linecap="round" stroke-linejoin="round" stroke-dasharray="1.58 3.55"/>
<path d="M158.207 11.8801C144.799 11.8801 142.867 20.4319 142.742 25.5822C142.733 25.9598 142.856 26.332 143.088 26.6297C151.917 37.9355 170.844 33.3228 174.01 25.8582C174.092 25.6658 174.127 25.464 174.12 25.2551C174.052 23.1276 173.046 11.8801 158.207 11.8801Z" stroke="#11171D" stroke-width="2.5" stroke-linejoin="round"/>
</svg>
