<svg width="201" height="201" viewBox="0 0 201 201" fill="none" xmlns="http://www.w3.org/2000/svg">
<path d="M14.2321 140.437L14.1447 68.5948L16.5345 67.2372V139.075L14.3304 140.574L14.2321 140.437Z" fill="#A1B6FC"/>
<path d="M11.9495 67.5267V139.198L14.3394 140.58V68.51L11.9495 67.5267Z" fill="#CFD9FC"/>
<path d="M14.1054 66.2947L11.9514 67.5311L14.3189 68.5187L16.5428 67.2446L14.1054 66.2947Z" fill="#E7ECFD"/>
<path d="M50.0802 124.68L49.9928 52.8376L52.3827 51.48V123.318L50.1785 124.817L50.0802 124.68Z" fill="#A1B6FC"/>
<path d="M47.7976 51.7695V123.441L50.1875 124.823V52.7528L47.7976 51.7695Z" fill="#CFD9FC"/>
<path d="M49.9535 50.5375L47.7996 51.7739L50.1671 52.7615L52.391 51.4874L49.9535 50.5375Z" fill="#E7ECFD"/>
<path d="M52.1542 103.22C54.4805 104.383 56.158 105.234 57.7317 106.067M64.7037 109.96C61.7178 108.24 59.8157 107.17 57.7317 106.067M57.7317 106.067L64.7037 103.569L52.1542 96.7128L57.7317 106.067Z" stroke="#11171D" stroke-width="2.5" stroke-linejoin="round"/>
<path d="M32.4002 122.741L67.0277 102.755L50.0625 92.9872L15.435 112.974L32.4002 122.741Z" fill="#A1B6FC"/>
<path d="M67.0278 106.009V102.755L32.4003 122.741V125.995L67.0278 106.009Z" fill="#0F36B8"/>
<path d="M32.4003 122.741V125.995L15.4351 116.227V112.974L32.4003 122.741Z" fill="#4C76FF"/>
<path d="M32.4002 93.924L67.0277 73.9376L50.0625 64.1698L15.435 84.1562L32.4002 93.924Z" fill="#A1B6FC"/>
<path d="M67.0278 77.1913V73.9377L32.4003 93.9241V97.1777L67.0278 77.1913Z" fill="#1D4ADD"/>
<path d="M32.4003 93.9242V97.1778L15.4351 87.41V84.1564L32.4003 93.9242Z" fill="#4C76FF"/>
<path d="M66.013 132.248L65.9255 60.4055L68.3154 59.048V130.886L66.1113 132.385L66.013 132.248Z" fill="#A1B6FC"/>
<path d="M63.7304 59.3374V131.009L66.1202 132.391V60.3208L63.7304 59.3374Z" fill="#CFD9FC"/>
<path d="M65.8862 58.1055L63.7323 59.3419L66.0998 60.3294L68.3237 59.0554L65.8862 58.1055Z" fill="#E7ECFD"/>
<path d="M64.7036 113.91C64.7036 113.91 53.8354 119.849 49.3652 122.741C47.0057 124.103 38.0791 130.154 34.0269 131.573M64.7036 107.403L34.0269 125.065" stroke="#11171D" stroke-width="2.5" stroke-linecap="round" stroke-linejoin="round"/>
<path d="M64.7036 85.0929C59.3471 87.9772 49.3652 93.9241 49.3652 93.9241C40.3557 99.8993 34.0269 102.755 34.0269 102.755M64.7036 78.5857C52.9368 86.5993 37.3602 93.5488 34.0269 96.2481" stroke="#11171D" stroke-width="2.5" stroke-linecap="round" stroke-linejoin="round"/>
<path d="M14.7378 122.509L21.5936 126.271C21.5936 126.271 25.5242 128.536 30.541 131.573M14.7378 116.002C17.8297 118.531 28.8531 124.403 30.541 125.066" stroke="#11171D" stroke-width="2.5" stroke-linecap="round" stroke-linejoin="round"/>
<path d="M14.7378 93.6915C15.613 93.7288 21.5936 97.4531 21.5936 97.4531C21.5936 97.4531 26.277 100.319 30.541 102.755M14.7378 87.1843C14.7378 87.1843 28.5535 95.9455 30.541 96.2479" stroke="#11171D" stroke-width="2.5" stroke-linecap="round" stroke-linejoin="round"/>
<path d="M32.1561 150.57L32.0687 78.7278L34.4586 77.3702V149.208L32.2545 150.707L32.1561 150.57Z" fill="#A1B6FC"/>
<path d="M29.8735 77.6597V149.331L32.2634 150.713V78.6431L29.8735 77.6597Z" fill="#CFD9FC"/>
<path d="M32.0294 76.4277L29.8755 77.6641L32.243 78.6517L34.4669 77.3777L32.0294 76.4277Z" fill="#E7ECFD"/>
<mask id="mask0_5399_155973" style="mask-type:alpha" maskUnits="userSpaceOnUse" x="55" y="98" width="63" height="63">
<path d="M117.975 142.396C117.975 141.123 117.746 139.88 117.311 138.681L109.545 98.8137C109.545 106.074 99.3085 111.96 86.6816 111.96C74.0548 111.96 63.8188 106.074 63.8188 98.8137L55.6738 139.405V142.396C55.6738 142.904 55.7102 143.406 55.7814 143.903C56.0624 145.863 56.9831 146.273 58.2629 148.004L60.261 149.199L60.4536 140.037L72.403 146.61L72.2349 157.57L74.1689 158.853C75.9971 159.323 77.9183 159.695 79.912 159.956C82.1353 160.247 84.4488 160.401 86.8244 160.401C89.8496 160.401 92.7742 160.151 95.5398 159.686C107.699 157.642 116.788 151.43 117.868 143.903C117.939 143.406 117.975 142.904 117.975 142.396Z" fill="#E7ECFD"/>
</mask>
<g mask="url(#mask0_5399_155973)">
<rect x="93.3976" y="99.3855" width="43.1537" height="62.8729" fill="#A1B6FC"/>
</g>
<path fill-rule="evenodd" clip-rule="evenodd" d="M81.3944 111.566V86.0608C83.1782 85.8039 85.0451 85.6675 86.9675 85.6675C99.5943 85.6675 109.83 91.5532 109.83 98.8136C109.83 106.074 99.5943 111.96 86.9675 111.96C85.0451 111.96 83.1782 111.823 81.3944 111.566Z" fill="#4C76FF"/>
<path d="M109.844 98.6128C109.844 105.982 99.323 111.956 86.344 111.956C73.365 111.956 62.8435 105.982 62.8435 98.6128C62.8435 91.2434 73.365 85.2693 86.344 85.2693C99.323 85.2693 109.844 91.2434 109.844 98.6128Z" fill="#A1B6FC"/>
<path d="M109.545 98.8142C109.545 106.075 99.3087 111.96 86.6819 111.96C74.0551 111.96 63.819 106.075 63.819 98.8142C63.819 91.5538 74.0551 85.6681 86.6819 85.6681C99.3087 85.6681 109.545 91.5538 109.545 98.8142Z" fill="#CFD9FC"/>
<path d="M117.975 142.397C117.975 141.123 117.747 139.88 117.311 138.681L109.545 98.8142C109.545 106.075 99.3087 111.96 86.6819 111.96C74.0551 111.96 63.819 106.075 63.819 98.8142L58.263 134.461L55.6741 139.406V142.397C55.6741 142.904 55.7104 143.407 55.7817 143.904C56.0626 145.863 56.9832 146.87 58.263 148.601L60.2612 149.649V141.613C60.2612 140.735 61.2114 140.184 61.9735 140.622L71.2348 145.939C71.9557 146.353 72.3952 147.125 72.3825 147.957L72.2351 157.57L74.1691 158.853C75.9974 159.324 77.9185 159.695 79.9123 159.956C82.1355 160.247 84.449 160.401 86.8247 160.401C89.8499 160.401 92.7744 160.152 95.5401 159.687C107.7 157.643 116.789 151.43 117.868 143.904C117.939 143.407 117.975 142.904 117.975 142.397Z" fill="#CFD9FC"/>
<path d="M117.263 137.355C117.698 138.557 117.927 139.803 117.927 141.079C117.927 141.588 117.891 142.092 117.82 142.59C117.82 151.965 105.686 157.705 93.5135 159.754M117.263 137.355C118.486 138.644 120.359 140.363 119.644 148.814C119.644 159.256 106.363 168.197 86.7421 167.72C81.9051 167.72 77.3119 167.121 73.1755 166.043M117.263 137.355C113.427 123.632 109.844 98.6129 109.844 98.6129M109.844 98.6129C109.844 105.982 99.3228 111.956 86.3438 111.956C73.3649 111.956 62.8433 105.982 62.8433 98.6129C62.8433 91.2435 73.3649 85.2694 86.3438 85.2694C99.3228 85.2694 109.844 91.2435 109.844 98.6129ZM73.1755 166.043C71.2351 166.915 68.7942 167.434 66.1427 167.434C59.8223 167.434 54.6986 164.484 54.6986 160.845C54.6986 157.981 54.713 156.892 54.713 153.158M73.1755 166.043C72.6368 164.422 71.3882 161.654 73.3986 158.77M73.3986 158.77C71.3418 159.908 69.2211 159.413 66.1427 159.413C62.2406 159.413 58.7945 158.288 56.7288 156.572C55.5516 155.593 54.8227 154.423 54.713 153.158M73.3986 158.77C75.229 159.241 77.8261 159.614 79.822 159.875M73.3986 158.77L72.1363 156.289M58.052 148.164C56.7707 146.429 55.9458 144.554 55.6646 142.59C55.5932 142.092 55.5568 141.588 55.5568 141.079V138.081M58.052 148.164C55.9801 149.357 54.6986 151.004 54.6986 152.824C54.6986 152.936 54.7034 153.048 54.713 153.158M58.052 148.164L60.149 149.359M54.713 153.158C54.1422 151.763 53.8402 150.309 53.8402 148.814C53.2466 141.801 54.436 139.424 55.5568 138.081M85.8839 116.443L93.022 111.427C92.4928 123.889 94.2908 154.969 93.5135 159.754M85.8839 116.443C86.3282 125.559 85.3008 141.612 85.8839 150.819M85.8839 116.443L58.0521 101.4M85.8839 150.819L79.8757 151.965M85.8839 150.819C85.8839 150.819 76.8716 142.798 69.1398 138.788C61.408 134.777 58.0521 134.63 58.0521 134.63M79.8757 151.965L79.822 159.875M79.8757 151.965C79.8757 151.965 75.4411 145.806 67.7163 141.168C59.9915 136.53 55.5568 137.819 55.5568 137.819M79.822 159.875C82.0478 160.167 84.3638 160.321 86.7421 160.321C89.7707 160.321 90.7447 160.22 93.5135 159.754M58.0521 101.4L62.9078 97.6171M58.0521 101.4C58.8444 111.303 58.0521 134.63 58.0521 134.63M58.0521 134.63L56.5436 136.558L55.5568 137.819M55.5568 137.819V138.081M72.1363 156.289C70.5303 156.986 68.4349 157.408 66.1427 157.408C63.4732 157.408 61.0704 156.836 59.3969 155.923M72.1363 156.289L72.1364 147.645C72.1364 146.79 71.6803 145.999 70.9398 145.571L70.8851 145.539M60.149 149.359C58.2124 150.2 56.9874 151.44 56.9874 152.824C56.9874 154.019 57.9007 155.107 59.3969 155.923M60.149 149.359L60.1491 141.409C60.1491 140.487 61.1477 139.911 61.9462 140.372L70.8851 145.539M70.8851 145.539C70.0047 149.336 67.1418 153.721 59.3969 155.923" stroke="#11171D" stroke-width="2.5" stroke-linejoin="round"/>
<path d="M66.8267 120.321L75.5896 125.499" stroke="#11171D" stroke-width="2.5"/>
<path d="M75.9879 126.975C75.9879 129.926 73.8479 131.122 71.2081 129.647C68.5683 128.171 66.4283 124.583 66.4283 121.633C66.4283 118.682 68.5683 117.486 71.2081 118.961C73.8479 120.437 75.9879 124.025 75.9879 126.975Z" stroke="#11171D" stroke-width="2.5" stroke-linejoin="round"/>
<path fill-rule="evenodd" clip-rule="evenodd" d="M77.2561 40.5696C74.7457 41.743 73.1333 43.2963 72.5301 44.8765C72.4169 45.1733 72.1949 45.4158 71.9093 45.5547C66.1554 48.3545 61.7391 51.7305 58.5743 56.5005C55.4037 61.2792 53.4155 67.5679 52.718 76.3155C51.3632 93.3064 66.2665 110.294 86.7999 110.294C96.3143 110.294 104.209 107.587 110.018 102.051C115.83 96.5115 119.699 88.0015 120.882 76.115C121.318 69.1299 118.883 61.6973 115.042 55.8415C111.167 49.9351 106.058 45.9164 101.367 45.3329C100.936 45.2792 100.563 45.0052 100.384 44.6094C99.6864 43.0743 98.0349 41.5866 95.5566 40.472C93.1026 39.3685 89.9625 38.6915 86.5127 38.6915C82.9613 38.6915 79.7394 39.4089 77.2561 40.5696ZM76.1975 38.3048C79.0528 36.9701 82.6432 36.1915 86.5127 36.1915C90.2729 36.1915 93.7684 36.9267 96.5819 38.192C99.1136 39.3305 101.199 40.9497 102.341 42.9526C107.858 43.9343 113.238 48.5346 117.132 54.4702C121.212 60.6885 123.859 68.659 123.375 76.2952C123.374 76.31 123.373 76.3248 123.372 76.3396C122.151 88.6433 118.112 97.79 111.742 103.861C105.365 109.939 96.7966 112.794 86.7999 112.794C64.9077 112.794 48.7474 94.6603 50.2259 76.1168C50.9451 67.0973 53.0145 60.3581 56.4911 55.1183C59.8918 49.9929 64.5687 46.4079 70.3937 43.5141C71.416 41.3151 73.5556 39.5396 76.1975 38.3048ZM78.665 41.4494C80.7334 40.3194 83.6324 39.6569 86.7706 39.6569C89.9089 39.6569 92.8079 40.3194 94.8763 41.4494C95.4821 41.7804 95.705 42.5398 95.374 43.1456C95.043 43.7515 94.2836 43.9743 93.6777 43.6433C92.0634 42.7614 89.6011 42.1569 86.7706 42.1569C83.9402 42.1569 81.4779 42.7614 79.8636 43.6433C79.2577 43.9743 78.4983 43.7515 78.1673 43.1456C77.8363 42.5398 78.0591 41.7804 78.665 41.4494ZM73.2217 45.0953C73.9121 45.0953 74.4717 45.655 74.4717 46.3453C74.4717 46.4609 74.5577 46.8652 74.9952 47.4773C75.4096 48.057 76.0757 48.7298 77.0392 49.3709C78.9575 50.6472 82.0322 51.7803 86.5127 51.7803C91.2711 51.7803 94.458 50.6405 96.4161 49.3644C97.399 48.7238 98.0673 48.0528 98.4792 47.4769C98.9124 46.8713 98.9975 46.4659 98.9975 46.3453C98.9975 45.655 99.5571 45.0953 100.247 45.0953C100.938 45.0953 101.497 45.655 101.497 46.3453C101.497 47.1898 101.105 48.1026 100.513 48.9313C99.8986 49.7898 98.9924 50.6694 97.7811 51.4588C95.3509 53.0426 91.6704 54.2803 86.5127 54.2803C81.6055 54.2803 78.0347 53.036 75.6544 51.4523C74.4686 50.6634 73.5722 49.7857 72.9613 48.931C72.3736 48.1087 71.9717 47.1948 71.9717 46.3453C71.9717 45.655 72.5314 45.0953 73.2217 45.0953Z" fill="#11171D"/>
<path d="M105.469 54.9612C110.38 60.2842 113.38 67.3969 113.38 75.2101C113.38 80.1254 112.626 84.8861 110.089 88.8531" stroke="#11171D" stroke-width="2.5" stroke-linecap="round" stroke-linejoin="round"/>
<path fill-rule="evenodd" clip-rule="evenodd" d="M163.613 165.005C164.002 164.819 164.246 164.368 164.246 163.711C164.246 162.468 163.373 160.957 162.297 160.336C161.75 160.02 161.256 159.995 160.902 160.209L160.889 160.187L142.99 170.521L145.757 175.314L163.613 165.005Z" fill="#F5F7FF"/>
<path fill-rule="evenodd" clip-rule="evenodd" d="M164.246 163.711C164.246 164.366 164.004 164.815 163.617 165.003L145.757 175.314L144.651 173.399L163.919 162.275C164.125 162.751 164.246 163.249 164.246 163.711Z" fill="#0F36B8"/>
<path d="M163.487 175.204L154.859 180.15V186.012L163.487 181.066V175.204Z" fill="#4C76FF"/>
<path d="M154.859 180.15L141.359 168.746L127.859 164.67V170.532L141.359 181.936L154.859 186.012V180.15Z" fill="#A1B6FC"/>
<path d="M154.859 180.15L163.487 175.204L149.986 163.8L136.486 159.724L127.859 164.67L141.359 168.746L154.859 180.15Z" fill="#CFD9FC"/>
<path d="M136.486 159.724L127.859 164.67L141.359 168.746L149.986 163.8L136.486 159.724Z" fill="#E7ECFD"/>
<g clip-path="url(#clip0_5399_155973)">
<g filter="url(#filter0_i_5399_155973)">
<path fill-rule="evenodd" clip-rule="evenodd" d="M137.789 173.928C138.454 174.312 138.957 173.538 139.202 173.161C139.224 173.128 139.243 173.098 139.261 173.072L139.307 173.004C139.522 172.681 139.859 172.176 140.272 172.097L140.445 171.274C140.485 171.109 140.362 170.857 140.195 170.761L137.938 169.458C137.759 169.355 137.604 169.407 137.562 169.583C137.323 170.585 137.198 171.489 137.198 172.22C137.198 172.928 137.403 173.705 137.789 173.928ZM141.335 174.152C141.335 173.761 141.222 173.275 140.975 173.132C140.598 172.914 140.276 173.392 139.935 173.898L139.935 173.899C139.698 174.251 139.453 174.615 139.134 174.835C138.948 174.964 138.672 175.091 138.291 175.015L140.025 176.016C140.204 176.119 140.37 176.108 140.464 175.986C140.515 175.919 140.566 175.855 140.617 175.79L140.617 175.79L140.623 175.782C140.99 175.32 141.335 174.884 141.335 174.152ZM141.512 172.726L143.978 174.149C144.524 174.465 144.925 175.266 144.925 176.208C144.925 177.217 144.512 177.729 144.113 178.224C143.74 178.685 143.38 179.132 143.38 179.954L143.38 180.645C143.38 180.809 143.265 180.875 143.123 180.793L140.821 179.464C140.678 179.382 140.563 179.182 140.563 179.018L140.563 178.275C140.563 177.536 140.91 177.098 141.278 176.634L141.278 176.634C141.686 176.119 142.108 175.587 142.108 174.598C142.108 173.937 141.907 173.24 141.512 172.726Z" fill="#668AFF"/>
</g>
</g>
<path d="M167.952 134.172L189.834 121.355L172.868 111.588L150.987 124.404L167.952 134.172Z" fill="#A1B6FC"/>
<path d="M189.833 127.796V121.355L167.952 134.172V140.612L189.833 127.796Z" fill="#1D4ADD"/>
<path d="M167.952 134.172V140.612L150.987 130.845V124.404L167.952 134.172Z" fill="#4C76FF"/>
<g clip-path="url(#clip1_5399_155973)">
<path fill-rule="evenodd" clip-rule="evenodd" d="M153.553 58.3487L145.48 61.4322L169.221 123.584C169.221 123.585 169.222 123.587 169.223 123.589C169.223 123.591 169.224 123.593 169.225 123.594L169.243 123.642L169.246 123.641C169.614 124.364 171.619 124.287 173.797 123.456C175.975 122.624 177.52 121.344 177.313 120.56L177.316 120.559L153.553 58.3487Z" fill="#CFD9FC"/>
<path fill-rule="evenodd" clip-rule="evenodd" d="M153.638 58.5718L150.819 59.6486L174.992 122.932C176.545 122.134 177.523 121.157 177.303 120.526L177.303 120.526L177.3 120.518L177.298 120.512L177.295 120.505L153.638 58.5718Z" fill="#4C76FF"/>
<ellipse cx="149.526" cy="59.9157" rx="4.32071" ry="0.887886" transform="rotate(-20.9056 149.526 59.9157)" fill="#CFD9FC"/>
</g>
<g clip-path="url(#clip2_5399_155973)">
<path fill-rule="evenodd" clip-rule="evenodd" d="M146.723 44.2556L141.165 46.3786L146.703 60.878C146.703 60.879 146.704 60.8801 146.704 60.8811C146.704 60.8821 146.705 60.8831 146.705 60.8841L146.706 60.8855L146.706 60.8854C146.837 61.1944 148.174 60.9742 149.701 60.3906C151.229 59.8071 152.372 59.0802 152.264 58.7624L152.264 58.7624L146.723 44.2556Z" fill="#CFD9FC"/>
<path fill-rule="evenodd" clip-rule="evenodd" d="M146.781 44.4085L144.84 45.1499L150.53 60.0464C151.628 59.5436 152.361 59.0158 152.263 58.7604C152.261 58.7534 152.257 58.7466 152.253 58.7401L152.255 58.7394L146.781 44.4085Z" fill="#4C76FF"/>
<ellipse cx="143.95" cy="45.3339" rx="2.97491" ry="0.611331" transform="rotate(-20.9056 143.95 45.3339)" fill="#E7ECFD"/>
</g>
<g clip-path="url(#clip3_5399_155973)">
<path fill-rule="evenodd" clip-rule="evenodd" d="M142.087 34.9341L138.448 36.3242L142.074 45.8178C142.075 45.8185 142.075 45.8192 142.075 45.8199C142.075 45.8205 142.076 45.8212 142.076 45.8219L142.076 45.8227L142.076 45.8227C142.162 46.025 143.037 45.8808 144.038 45.4987C145.038 45.1166 145.786 44.6407 145.716 44.4326L145.716 44.4326L142.087 34.9341Z" fill="#CFD9FC"/>
<path fill-rule="evenodd" clip-rule="evenodd" d="M142.126 35.0342L140.855 35.5197L144.58 45.2734C145.299 44.9442 145.779 44.5986 145.715 44.4313C145.713 44.4267 145.711 44.4223 145.709 44.4181L145.71 44.4176L142.126 35.0342Z" fill="#4C76FF"/>
<ellipse cx="140.272" cy="35.6402" rx="1.94786" ry="0.400276" transform="rotate(-20.9056 140.272 35.6402)" fill="#E7ECFD"/>
</g>
<g clip-path="url(#clip4_5399_155973)">
<path fill-rule="evenodd" clip-rule="evenodd" d="M138.682 26.7943L135.572 27.9822L138.671 36.0949C138.671 36.0955 138.671 36.0961 138.671 36.0966C138.672 36.0972 138.672 36.0978 138.672 36.0984L138.672 36.0991L138.672 36.0991C138.746 36.272 139.493 36.1487 140.348 35.8222C141.203 35.4957 141.843 35.089 141.782 34.9112L141.782 34.9112L138.682 26.7943Z" fill="#CFD9FC"/>
<path fill-rule="evenodd" clip-rule="evenodd" d="M138.714 26.8797L137.628 27.2946L140.812 35.6295C141.426 35.3481 141.836 35.0528 141.782 34.9099C141.78 34.906 141.778 34.9023 141.776 34.8987L141.777 34.8983L138.714 26.8797Z" fill="#4C76FF"/>
<ellipse cx="137.13" cy="27.3975" rx="1.66453" ry="0.342054" transform="rotate(-20.9056 137.13 27.3975)" fill="#E7ECFD"/>
</g>
<path d="M139.278 22.8684L136.567 26.219L132.448 25.5688L135.072 22.2748L139.278 22.8684Z" fill="#E7ECFD"/>
<path d="M138.105 30.2334L136.569 26.2131L132.444 25.5681L133.953 29.5172L138.105 30.2334Z" fill="#CFD9FC"/>
<path d="M139.277 22.867L140.76 26.9781L138.101 30.2362L136.564 26.2135L139.277 22.867Z" fill="#4C76FF"/>
<path d="M163.287 127.487C161.533 114.412 157.118 97.194 154.754 83.0327" stroke="#11171D" stroke-width="2.5" stroke-linecap="round" stroke-linejoin="round"/>
<path d="M152.28 57.3906C153.22 57.6211 154.368 59.6529 150.831 61.3112C146.41 63.3841 143.931 62.3448 145.542 60.3114" stroke="#11171D" stroke-width="2.5" stroke-linecap="round" stroke-linejoin="round"/>
<path d="M145.978 43.426C146.619 43.5637 147.445 44.9445 145.094 46.1763C142.156 47.7161 140.454 47.0541 141.493 45.6075" stroke="#11171D" stroke-width="2.5" stroke-linecap="round" stroke-linejoin="round"/>
<path d="M147.28 112.689C140.486 117.066 129.608 117.066 122.814 112.689C116.02 108.313 116.02 101.216 122.814 96.8396C129.608 92.4628 140.486 92.4628 147.28 96.8396C154.075 101.216 154.075 108.313 147.28 112.689Z" fill="#4C76FF"/>
<path d="M147.387 111.64C143.731 114.007 139.264 115.245 134.929 115.354C130.586 115.463 126.484 114.436 123.515 112.401C120.543 110.364 119.069 107.654 119.016 105.088C118.963 102.549 120.295 99.8924 123.473 97.8984C126.718 95.862 131.045 94.807 135.437 94.807C139.83 94.807 144.157 95.862 147.402 97.8984C150.579 99.8917 151.811 102.477 151.721 104.878C151.63 107.317 150.165 109.842 147.387 111.64Z" stroke="#11171D" stroke-width="2.5"/>
<g filter="url(#filter1_i_5399_155973)">
<ellipse cx="138.68" cy="98.8307" rx="6.00615" ry="6.203" fill="#CFD9FC"/>
</g>
<g filter="url(#filter2_i_5399_155973)">
<ellipse cx="129.68" cy="98.6092" rx="6.00615" ry="6.203" fill="#1D4ADD"/>
</g>
<g filter="url(#filter3_i_5399_155973)">
<ellipse cx="127.955" cy="104.425" rx="6.00615" ry="6.203" fill="#668AFF"/>
</g>
<g filter="url(#filter4_i_5399_155973)">
<ellipse cx="144.455" cy="103.083" rx="6.00615" ry="6.203" fill="#668AFF"/>
</g>
<g filter="url(#filter5_i_5399_155973)">
<ellipse cx="137.126" cy="106.932" rx="6.00615" ry="6.203" fill="#1D4ADD"/>
</g>
<path d="M134.126 69.0824C134.126 69.0824 133.394 99.4225 134.126 114.882" stroke="#11171D" stroke-width="2.5" stroke-linecap="round"/>
<path d="M134.126 69.0824C131.76 76.5406 122.887 93.1183 119.152 102.224" stroke="#11171D" stroke-width="2.5" stroke-linecap="round"/>
<path d="M134.126 69.0824C138.064 78.175 143.041 86.6116 151.634 102.829" stroke="#11171D" stroke-width="2.5" stroke-linecap="round"/>
<path d="M132.558 66.1763C131.973 67.1899 132.321 68.4859 133.334 69.0711C134.348 69.6562 135.644 69.309 136.229 68.2954C136.814 67.2819 136.467 65.9858 135.453 65.4007C134.44 64.8155 134.092 63.5195 134.677 62.506" stroke="#11171D" stroke-width="2.5" stroke-linecap="round" stroke-linejoin="round"/>
<path d="M134.939 27.2208C134.606 31.5045 135.284 57.0363 134.939 62.1279" stroke="#11171D" stroke-width="2.5" stroke-linecap="round" stroke-linejoin="round"/>
<defs>
<filter id="filter0_i_5399_155973" x="137.198" y="169.405" width="7.72717" height="11.4232" filterUnits="userSpaceOnUse" color-interpolation-filters="sRGB">
<feFlood flood-opacity="0" result="BackgroundImageFix"/>
<feBlend mode="normal" in="SourceGraphic" in2="BackgroundImageFix" result="shape"/>
<feColorMatrix in="SourceAlpha" type="matrix" values="0 0 0 0 0 0 0 0 0 0 0 0 0 0 0 0 0 0 127 0" result="hardAlpha"/>
<feOffset dx="0.518856" dy="-0.172952"/>
<feComposite in2="hardAlpha" operator="arithmetic" k2="-1" k3="1"/>
<feColorMatrix type="matrix" values="0 0 0 0 0.1127 0 0 0 0 0.288773 0 0 0 0 0.8673 0 0 0 1 0"/>
<feBlend mode="normal" in2="shape" result="effect1_innerShadow_5399_155973"/>
</filter>
<filter id="filter1_i_5399_155973" x="132.674" y="92.6277" width="12.0123" height="12.406" filterUnits="userSpaceOnUse" color-interpolation-filters="sRGB">
<feFlood flood-opacity="0" result="BackgroundImageFix"/>
<feBlend mode="normal" in="SourceGraphic" in2="BackgroundImageFix" result="shape"/>
<feColorMatrix in="SourceAlpha" type="matrix" values="0 0 0 0 0 0 0 0 0 0 0 0 0 0 0 0 0 0 127 0" result="hardAlpha"/>
<feOffset dx="-4.38145" dy="-3.18651"/>
<feComposite in2="hardAlpha" operator="arithmetic" k2="-1" k3="1"/>
<feColorMatrix type="matrix" values="0 0 0 0 0.6314 0 0 0 0 0.714747 0 0 0 0 0.9886 0 0 0 1 0"/>
<feBlend mode="normal" in2="shape" result="effect1_innerShadow_5399_155973"/>
</filter>
<filter id="filter2_i_5399_155973" x="123.674" y="92.4062" width="12.0123" height="12.406" filterUnits="userSpaceOnUse" color-interpolation-filters="sRGB">
<feFlood flood-opacity="0" result="BackgroundImageFix"/>
<feBlend mode="normal" in="SourceGraphic" in2="BackgroundImageFix" result="shape"/>
<feColorMatrix in="SourceAlpha" type="matrix" values="0 0 0 0 0 0 0 0 0 0 0 0 0 0 0 0 0 0 127 0" result="hardAlpha"/>
<feOffset dx="-4.38145" dy="-3.18651"/>
<feComposite in2="hardAlpha" operator="arithmetic" k2="-1" k3="1"/>
<feColorMatrix type="matrix" values="0 0 0 0 0.0585 0 0 0 0 0.2132 0 0 0 0 0.7215 0 0 0 1 0"/>
<feBlend mode="normal" in2="shape" result="effect1_innerShadow_5399_155973"/>
</filter>
<filter id="filter3_i_5399_155973" x="121.949" y="98.2219" width="12.0123" height="12.406" filterUnits="userSpaceOnUse" color-interpolation-filters="sRGB">
<feFlood flood-opacity="0" result="BackgroundImageFix"/>
<feBlend mode="normal" in="SourceGraphic" in2="BackgroundImageFix" result="shape"/>
<feColorMatrix in="SourceAlpha" type="matrix" values="0 0 0 0 0 0 0 0 0 0 0 0 0 0 0 0 0 0 127 0" result="hardAlpha"/>
<feOffset dx="-4.38145" dy="-3.18651"/>
<feComposite in2="hardAlpha" operator="arithmetic" k2="-1" k3="1"/>
<feColorMatrix type="matrix" values="0 0 0 0 0.16 0 0 0 0 0.356 0 0 0 0 1 0 0 0 1 0"/>
<feBlend mode="normal" in2="shape" result="effect1_innerShadow_5399_155973"/>
</filter>
<filter id="filter4_i_5399_155973" x="138.449" y="96.8805" width="12.0123" height="12.406" filterUnits="userSpaceOnUse" color-interpolation-filters="sRGB">
<feFlood flood-opacity="0" result="BackgroundImageFix"/>
<feBlend mode="normal" in="SourceGraphic" in2="BackgroundImageFix" result="shape"/>
<feColorMatrix in="SourceAlpha" type="matrix" values="0 0 0 0 0 0 0 0 0 0 0 0 0 0 0 0 0 0 127 0" result="hardAlpha"/>
<feOffset dx="-4.38145" dy="-3.18651"/>
<feComposite in2="hardAlpha" operator="arithmetic" k2="-1" k3="1"/>
<feColorMatrix type="matrix" values="0 0 0 0 0.16 0 0 0 0 0.356 0 0 0 0 1 0 0 0 1 0"/>
<feBlend mode="normal" in2="shape" result="effect1_innerShadow_5399_155973"/>
</filter>
<filter id="filter5_i_5399_155973" x="131.12" y="100.729" width="12.0123" height="12.406" filterUnits="userSpaceOnUse" color-interpolation-filters="sRGB">
<feFlood flood-opacity="0" result="BackgroundImageFix"/>
<feBlend mode="normal" in="SourceGraphic" in2="BackgroundImageFix" result="shape"/>
<feColorMatrix in="SourceAlpha" type="matrix" values="0 0 0 0 0 0 0 0 0 0 0 0 0 0 0 0 0 0 127 0" result="hardAlpha"/>
<feOffset dx="-4.38145" dy="-3.18651"/>
<feComposite in2="hardAlpha" operator="arithmetic" k2="-1" k3="1"/>
<feColorMatrix type="matrix" values="0 0 0 0 0.0585 0 0 0 0 0.2132 0 0 0 0 0.7215 0 0 0 1 0"/>
<feBlend mode="normal" in2="shape" result="effect1_innerShadow_5399_155973"/>
</filter>
<clipPath id="clip0_5399_155973">
<rect width="8.94602" height="8.34752" fill="white" transform="matrix(0.866025 0.5 -2.20305e-08 1 137.188 169.022)"/>
</clipPath>
<clipPath id="clip1_5399_155973">
<rect width="8.7629" height="68.9082" fill="white" transform="translate(145.173 60.6281) rotate(-20.9056)"/>
</clipPath>
<clipPath id="clip2_5399_155973">
<rect width="6.08333" height="16.7292" fill="white" transform="translate(140.953 45.8243) rotate(-20.9056)"/>
</clipPath>
<clipPath id="clip3_5399_155973">
<rect width="3.98313" height="10.9536" fill="white" transform="translate(138.309 35.9613) rotate(-20.9056)"/>
</clipPath>
<clipPath id="clip4_5399_155973">
<rect width="3.40377" height="9.36037" fill="white" transform="translate(135.453 27.6719) rotate(-20.9056)"/>
</clipPath>
</defs>
</svg>
