<svg width="447" height="419" viewBox="0 0 447 419" fill="none" xmlns="http://www.w3.org/2000/svg">
<path d="M5.73068 304.58L5.51123 124.213L11.5112 120.805V301.161L5.97751 304.923L5.73068 304.58Z" fill="#A1B6FC"/>
<path d="M0 121.531V301.469L6 304.938V124L0 121.531Z" fill="#CFD9FC"/>
<path d="M5.41253 118.438L0.00488281 121.543L5.94868 124.022L11.532 120.823L5.41253 118.438Z" fill="#E7ECFD"/>
<path d="M95.7307 265.02L95.5112 84.6529L101.511 81.2446V261.601L95.9775 265.363L95.7307 265.02Z" fill="#A1B6FC"/>
<path d="M90 81.9712V261.909L96 265.377V84.4399L90 81.9712Z" fill="#CFD9FC"/>
<path d="M95.4125 78.8784L90.0049 81.9825L95.9487 84.4619L101.532 81.2634L95.4125 78.8784Z" fill="#E7ECFD"/>
<path d="M100.937 211.142C106.777 214.063 110.989 216.2 114.94 218.291M132.444 228.063C124.947 223.747 120.172 221.059 114.94 218.291M114.94 218.291L132.444 212.018L100.937 194.806L114.94 218.291Z" stroke="#11171D" stroke-width="4" stroke-linejoin="round"/>
<path d="M51.3429 260.153L138.278 209.975L95.6858 185.452L8.75043 235.63L51.3429 260.153Z" fill="#A1B6FC"/>
<path d="M138.278 218.144V209.975L51.343 260.153V268.321L138.278 218.144Z" fill="#0F36B8"/>
<path d="M51.343 260.152V268.321L8.75045 243.798V235.63L51.343 260.152Z" fill="#4C76FF"/>
<path d="M51.3429 187.804L138.278 137.627L95.6858 113.104L8.75043 163.281L51.3429 187.804Z" fill="#A1B6FC"/>
<path d="M138.278 145.795V137.627L51.343 187.804V195.973L138.278 145.795Z" fill="#1D4ADD"/>
<path d="M51.343 187.805V195.973L8.75045 171.45V163.282L51.343 187.805Z" fill="#4C76FF"/>
<path d="M135.731 284.02L135.511 103.653L141.511 100.245V280.601L135.978 284.363L135.731 284.02Z" fill="#A1B6FC"/>
<path d="M130 100.971V280.909L136 284.378V103.44L130 100.971Z" fill="#CFD9FC"/>
<path d="M135.413 97.8787L130.005 100.983L135.949 103.462L141.532 100.264L135.413 97.8787Z" fill="#E7ECFD"/>
<path d="M132.444 237.981C132.444 237.981 105.158 252.892 93.9354 260.153M55.4271 282.324C65.6006 278.762 88.0116 263.571 93.9354 260.153M93.9354 260.153L132.444 221.645L55.4271 265.987L93.9354 260.153Z" stroke="#11171D" stroke-width="4" stroke-linecap="round" stroke-linejoin="round"/>
<path d="M132.444 165.633C118.996 172.874 93.9354 187.804 93.9354 187.804M55.4271 209.976C55.4271 209.976 71.3162 202.805 93.9354 187.804M93.9354 187.804C99.1418 181.297 128.02 155.427 132.444 149.296C102.902 169.415 63.7957 186.862 55.4271 193.639C57.4785 194.834 93.9354 187.804 93.9354 187.804Z" stroke="#11171D" stroke-width="4" stroke-linecap="round" stroke-linejoin="round"/>
<path d="M7.00002 259.57L24.2121 269.013M46.6752 282.325C34.0802 274.701 24.2121 269.013 24.2121 269.013M24.2121 269.013C24.2121 269.013 37.023 268.384 46.6752 265.988C42.4377 264.323 14.7625 249.583 7.00002 243.233C7.00002 243.233 17.4698 263.12 24.2121 269.013Z" stroke="#11171D" stroke-width="4" stroke-linecap="round" stroke-linejoin="round"/>
<path d="M7.00002 187.22C9.19734 187.314 24.2121 196.664 24.2121 196.664M46.6752 209.975C35.9701 203.859 24.2121 196.664 24.2121 196.664M24.2121 196.664L46.6752 193.638C41.6857 192.879 7.00002 170.884 7.00002 170.884C7.99406 178.44 24.2382 194.534 24.2121 196.664Z" stroke="#11171D" stroke-width="4" stroke-linecap="round" stroke-linejoin="round"/>
<path d="M50.7307 330.02L50.5112 149.653L56.5112 146.245V326.601L50.9775 330.363L50.7307 330.02Z" fill="#A1B6FC"/>
<path d="M45 146.971V326.909L51 330.377V149.44L45 146.971Z" fill="#CFD9FC"/>
<path d="M50.4125 143.878L45.0049 146.982L50.9487 149.462L56.532 146.263L50.4125 143.878Z" fill="#E7ECFD"/>
<path d="M245.021 200.082C245.021 218.309 219.323 233.086 187.622 233.086C155.921 233.086 130.223 218.309 130.223 200.082C130.223 181.854 155.921 167.077 187.622 167.077C219.323 167.077 245.021 181.854 245.021 200.082Z" fill="#CFD9FC"/>
<path d="M266.187 309.499C266.187 306.301 265.613 303.181 264.52 300.172L245.021 200.082C245.021 218.309 219.323 233.086 187.622 233.086C155.921 233.086 130.223 218.309 130.223 200.082L116.274 289.576L109.774 301.99V309.499C109.774 310.773 109.866 312.035 110.045 313.283C110.75 318.202 113.061 320.729 116.274 325.076L121.291 327.706V307.532C121.291 305.326 123.676 303.945 125.59 305.043L148.841 318.392C150.651 319.431 151.754 321.371 151.722 323.457L151.352 347.594L156.208 350.815C160.798 351.996 165.621 352.929 170.627 353.584C176.208 354.315 182.016 354.701 187.981 354.701C195.576 354.701 202.918 354.075 209.861 352.908C240.389 347.776 263.208 332.179 265.917 313.283C266.096 312.035 266.187 310.773 266.187 309.499Z" fill="#CFD9FC"/>
<mask id="mask0_13_684" style="mask-type:alpha" maskUnits="userSpaceOnUse" x="109" y="200" width="158" height="155">
<path d="M266.187 309.497C266.187 306.3 265.612 303.18 264.52 300.17L245.021 200.08C245.021 218.308 219.323 233.085 187.622 233.085C155.921 233.085 130.223 218.308 130.223 200.08L109.774 301.989V309.497C109.774 310.772 109.865 312.034 110.044 313.281C110.75 318.201 113.061 319.229 116.274 323.576L121.291 326.576L121.774 303.576L151.774 320.076L151.352 347.592L156.208 350.813C160.798 351.994 165.621 352.927 170.626 353.582C176.208 354.313 182.016 354.699 187.98 354.699C195.575 354.699 202.918 354.073 209.861 352.906C240.389 347.775 263.207 332.177 265.917 313.281C266.096 312.034 266.187 310.772 266.187 309.497Z" fill="#E7ECFD"/>
</mask>
<g mask="url(#mask0_13_684)">
<rect x="204.483" y="201.516" width="108.341" height="157.848" fill="#A1B6FC"/>
</g>
<path d="M245.774 199.576C245.774 218.077 219.359 233.076 186.774 233.076C154.189 233.076 127.774 218.077 127.774 199.576C127.774 181.074 154.189 166.076 186.774 166.076C219.359 166.076 245.774 181.074 245.774 199.576Z" fill="#A1B6FC"/>
<path fill-rule="evenodd" clip-rule="evenodd" d="M174.348 232.097V168.063C178.826 167.418 183.513 167.076 188.339 167.076C220.04 167.076 245.739 181.852 245.739 200.08C245.739 218.308 220.04 233.085 188.339 233.085C183.513 233.085 178.826 232.742 174.348 232.097Z" fill="#4C76FF"/>
<path d="M264.399 296.842C265.492 299.859 266.067 302.986 266.067 306.191C266.067 307.468 265.976 308.733 265.797 309.984C265.797 333.52 235.336 347.932 204.774 353.076M264.399 296.842C267.469 300.078 272.173 304.393 270.377 325.609C270.377 351.824 237.034 374.273 187.774 373.076C175.63 373.076 164.099 371.57 153.714 368.865M264.399 296.842C254.768 262.389 245.774 199.576 245.774 199.576M245.774 199.576C245.774 218.077 219.359 233.076 186.774 233.076C154.189 233.076 127.774 218.077 127.774 199.576C127.774 181.074 154.189 166.076 186.774 166.076C219.359 166.076 245.774 181.074 245.774 199.576ZM153.714 368.865C148.842 371.053 142.714 372.356 136.058 372.356C120.19 372.356 107.326 364.951 107.326 355.815C107.326 348.623 107.362 345.891 107.362 336.516M153.714 368.865C152.361 364.795 149.227 357.845 154.274 350.605M154.274 350.605C149.11 353.462 143.786 352.219 136.058 352.219C126.261 352.219 117.609 349.396 112.423 345.086C109.468 342.63 107.638 339.691 107.362 336.516M154.274 350.605C158.869 351.788 165.39 352.724 170.401 353.381M154.274 350.605L151.105 344.376M115.745 323.979C112.528 319.623 110.457 314.915 109.751 309.984C109.572 308.733 109.481 307.468 109.481 306.191V298.665M115.745 323.979C110.543 326.973 107.326 331.109 107.326 335.678C107.326 335.959 107.338 336.239 107.362 336.516M115.745 323.979L121.01 326.979M107.362 336.516C105.929 333.014 105.171 329.363 105.171 325.609C103.681 308.002 106.667 302.035 109.481 298.665M185.619 244.341L203.54 231.746C202.212 263.034 206.726 341.062 204.774 353.076M185.619 244.341C186.735 267.225 184.155 307.529 185.619 330.644M185.619 244.341L115.745 206.573M185.619 330.644L170.535 333.52M185.619 330.644C185.619 330.644 162.993 310.506 143.582 300.437C124.171 290.369 115.745 289.999 115.745 289.999M170.535 333.52L170.401 353.381M170.535 333.52C170.535 333.52 159.402 318.058 140.008 306.414C120.614 294.77 109.481 298.006 109.481 298.006M170.401 353.381C175.988 354.113 181.803 354.5 187.774 354.5C195.378 354.5 197.823 354.246 204.774 353.076M115.745 206.573L127.936 197.076M115.745 206.573C117.734 231.435 115.745 289.999 115.745 289.999M115.745 289.999L111.958 294.84L109.481 298.006M109.481 298.006V298.665M151.105 344.376C147.073 346.126 141.812 347.185 136.058 347.185C129.355 347.185 123.323 345.749 119.122 343.458M151.105 344.376L151.105 322.675C151.105 320.527 149.96 318.543 148.101 317.468L147.964 317.389M121.01 326.979C116.148 329.089 113.072 332.204 113.072 335.678C113.072 338.678 115.365 341.409 119.122 343.458M121.01 326.979L121.01 307.019C121.01 304.703 123.517 303.257 125.522 304.416L147.964 317.389M147.964 317.389C145.753 326.919 138.566 337.93 119.122 343.458" stroke="#11171D" stroke-width="4" stroke-linejoin="round"/>
<path d="M137.774 254.076L159.774 267.076" stroke="#11171D" stroke-width="4"/>
<path d="M160.774 270.782C160.774 278.19 155.402 281.193 148.774 277.489C142.147 273.785 136.774 264.777 136.774 257.369C136.774 249.961 142.147 246.958 148.774 250.662C155.402 254.366 160.774 263.374 160.774 270.782Z" stroke="#11171D" stroke-width="4" stroke-linejoin="round"/>
<path fill-rule="evenodd" clip-rule="evenodd" d="M380.767 366.259C381.742 365.789 382.353 364.659 382.353 363.01C382.353 359.89 380.163 356.096 377.461 354.536C376.087 353.743 374.846 353.68 373.957 354.219L373.926 354.165L328.989 380.109L335.937 392.142L380.767 366.259Z" fill="#295BFF"/>
<path fill-rule="evenodd" clip-rule="evenodd" d="M382.353 363.01C382.353 364.659 381.742 365.789 380.767 366.259L335.937 392.142L333.16 387.332L381.533 359.404C382.051 360.6 382.353 361.852 382.353 363.01Z" fill="#0F36B8"/>
<path d="M380.447 391.864L358.787 404.282V419L380.447 406.582V391.864Z" fill="#4C76FF"/>
<path d="M358.787 404.282L324.894 375.652L291 365.418V380.136L324.894 408.767L358.787 419V404.282Z" fill="#A1B6FC"/>
<path d="M358.787 404.282L380.447 391.864L346.554 363.233L312.66 353L291 365.418L324.894 375.652L358.787 404.282Z" fill="#CFD9FC"/>
<path d="M312.66 353L291 365.418L324.894 375.652L346.554 363.233L312.66 353Z" fill="#E7ECFD"/>
<g clip-path="url(#clip0_13_684)">
<g filter="url(#filter0_i_13_684)">
<path fill-rule="evenodd" clip-rule="evenodd" d="M315.931 388.661C317.602 389.626 318.865 387.683 319.48 386.737L319.48 386.737C319.534 386.653 319.583 386.578 319.627 386.513C319.664 386.458 319.702 386.401 319.742 386.341C320.283 385.531 321.128 384.263 322.166 384.065L322.599 381.997C322.7 381.585 322.391 380.952 321.971 380.709L316.306 377.438C315.858 377.18 315.468 377.31 315.363 377.752C314.763 380.269 314.449 382.538 314.449 384.372C314.449 386.151 314.962 388.101 315.931 388.661ZM324.834 389.224C324.834 388.241 324.551 387.021 323.929 386.662C322.984 386.116 322.176 387.315 321.32 388.585L321.319 388.587C320.723 389.471 320.108 390.384 319.309 390.937C318.84 391.262 318.148 391.58 317.192 391.39L321.544 393.903C321.994 394.162 322.411 394.134 322.646 393.827C322.774 393.66 322.903 393.498 323.03 393.336L323.047 393.315C323.966 392.156 324.834 391.061 324.834 389.224ZM325.277 385.642L331.468 389.217C332.839 390.008 333.848 392.021 333.848 394.386C333.848 396.919 332.81 398.204 331.808 399.446C330.873 400.605 329.968 401.726 329.968 403.789L329.968 405.523C329.968 405.935 329.679 406.103 329.321 405.896L323.542 402.56C323.185 402.354 322.896 401.852 322.896 401.44L322.896 399.574C322.896 397.72 323.768 396.62 324.691 395.455L324.691 395.454C325.715 394.162 326.774 392.825 326.774 390.344C326.774 388.682 326.269 386.933 325.277 385.642Z" fill="#668AFF"/>
</g>
</g>
<path d="M391.658 288.851L446.593 256.673L404.001 232.15L349.065 264.328L391.658 288.851Z" fill="#A1B6FC"/>
<path d="M446.593 272.842V256.674L391.658 288.851V305.019L446.593 272.842Z" fill="#1D4ADD"/>
<path d="M391.658 288.851V305.02L349.065 280.497V264.328L391.658 288.851Z" fill="#4C76FF"/>
<g clip-path="url(#clip1_13_684)">
<path fill-rule="evenodd" clip-rule="evenodd" d="M355.508 98.4897L335.241 106.231L394.899 262.415L394.906 262.412C395.831 264.226 400.864 264.035 406.332 261.946C411.8 259.858 415.679 256.644 415.159 254.676L415.166 254.674L415.116 254.542C415.115 254.541 415.115 254.54 415.115 254.539C415.114 254.539 415.114 254.538 415.114 254.537L355.508 98.4897Z" fill="#CFD9FC"/>
<path fill-rule="evenodd" clip-rule="evenodd" d="M355.722 99.0495L348.644 101.753L409.332 260.631C413.232 258.627 415.687 256.174 415.134 254.592L415.135 254.592L415.122 254.557L415.121 254.555L415.12 254.553L355.722 99.0495Z" fill="#4C76FF"/>
<ellipse cx="345.398" cy="102.424" rx="10.8475" ry="2.22911" transform="rotate(-20.9056 345.398 102.424)" fill="#CFD9FC"/>
</g>
<g clip-path="url(#clip2_13_684)">
<path fill-rule="evenodd" clip-rule="evenodd" d="M338.36 63.1077L324.405 68.4379L338.312 104.845C338.312 104.846 338.313 104.847 338.313 104.848C338.313 104.848 338.314 104.849 338.314 104.85L338.317 104.858L338.317 104.858C338.647 105.634 342.002 105.081 345.838 103.616C349.673 102.151 352.543 100.326 352.271 99.5284L352.271 99.5283L338.36 63.1077Z" fill="#CFD9FC"/>
<path fill-rule="evenodd" clip-rule="evenodd" d="M338.507 63.4916L333.634 65.3529L347.919 102.752C350.674 101.489 352.515 100.164 352.27 99.5232C352.263 99.5055 352.255 99.4886 352.245 99.4723L352.25 99.4706L338.507 63.4916Z" fill="#4C76FF"/>
<ellipse cx="331.399" cy="65.8149" rx="7.46877" ry="1.5348" transform="rotate(-20.9056 331.399 65.8149)" fill="#E7ECFD"/>
</g>
<g clip-path="url(#clip3_13_684)">
<path fill-rule="evenodd" clip-rule="evenodd" d="M326.722 39.7055L317.586 43.1954L326.692 67.0349L326.694 67.0423L326.695 67.0422C326.911 67.55 329.107 67.1879 331.619 66.2287C334.13 65.2695 336.009 64.0747 335.831 63.5523L335.831 63.5523L335.828 63.545L326.722 39.7055Z" fill="#CFD9FC"/>
<path fill-rule="evenodd" clip-rule="evenodd" d="M326.818 39.9568L323.628 41.1755L332.981 65.663C334.785 64.8364 335.99 63.9688 335.83 63.549C335.826 63.5374 335.82 63.5263 335.814 63.5156L335.817 63.5145L326.818 39.9568Z" fill="#4C76FF"/>
<ellipse cx="322.164" cy="41.4781" rx="4.89027" ry="1.00493" transform="rotate(-20.9056 322.164 41.4781)" fill="#E7ECFD"/>
</g>
<g clip-path="url(#clip4_13_684)">
<path fill-rule="evenodd" clip-rule="evenodd" d="M318.172 19.2695L310.364 22.2518L318.145 42.6214C318.145 42.6223 318.146 42.6232 318.146 42.624C318.146 42.6249 318.147 42.6258 318.147 42.6267L318.148 42.63L318.148 42.63C318.332 43.0643 320.21 42.7549 322.356 41.9351C324.503 41.1152 326.108 40.094 325.956 39.6477L325.956 39.6477L318.172 19.2695Z" fill="#CFD9FC"/>
<path fill-rule="evenodd" clip-rule="evenodd" d="M318.254 19.4842L315.528 20.5256L323.521 41.4511C325.062 40.7447 326.092 40.0032 325.955 39.6445C325.951 39.6347 325.947 39.6254 325.941 39.6163L325.944 39.6154L318.254 19.4842Z" fill="#4C76FF"/>
<ellipse cx="314.277" cy="20.7841" rx="4.17896" ry="0.858757" transform="rotate(-20.9056 314.277 20.7841)" fill="#E7ECFD"/>
</g>
<path d="M319.668 9.4133L312.862 17.8252L302.521 16.193L309.109 7.92307L319.668 9.4133Z" fill="#E7ECFD"/>
<path d="M316.724 27.9039L312.868 17.8105L302.513 16.1912L306.3 26.1056L316.724 27.9039Z" fill="#CFD9FC"/>
<path d="M319.667 9.40977L323.389 19.7311L316.714 27.9109L312.856 17.8116L319.667 9.40977Z" fill="#4C76FF"/>
<path d="M379.945 272.067C375.542 239.242 364.458 196.014 358.524 160.461" stroke="#11171D" stroke-width="4" stroke-linecap="round" stroke-linejoin="round"/>
<path d="M352.311 96.0841C354.671 96.6629 357.553 101.764 348.674 105.927C337.575 111.131 331.351 108.522 335.395 103.417" stroke="#11171D" stroke-width="4" stroke-linecap="round" stroke-linejoin="round"/>
<path d="M336.49 61.0249C338.1 61.3705 340.174 64.8371 334.271 67.9297C326.894 71.7955 322.621 70.1336 325.231 66.5018" stroke="#11171D" stroke-width="4" stroke-linecap="round" stroke-linejoin="round"/>
<path d="M326.281 38.6228C327.641 38.7227 329.488 40.7051 324.643 43.014C318.587 45.9002 314.956 45.1783 317.027 42.7681" stroke="#11171D" stroke-width="4" stroke-linecap="round" stroke-linejoin="round"/>
<path d="M339.761 234.916C322.703 245.905 295.393 245.905 278.336 234.916C261.278 223.928 261.278 206.112 278.336 195.124C295.393 184.136 322.703 184.136 339.761 195.124C356.818 206.112 356.818 223.928 339.761 234.916Z" fill="#4C76FF"/>
<path d="M340.647 233.237C331.272 239.306 319.848 242.467 308.781 242.744C297.7 243.022 287.148 240.407 279.452 235.131C271.75 229.852 267.803 222.736 267.661 215.855C267.52 209.02 271.124 202.001 279.384 196.818C287.752 191.567 298.837 188.883 310.028 188.883C321.218 188.883 332.303 191.567 340.671 196.818C348.929 202 352.29 208.846 352.047 215.348C351.802 221.91 347.87 228.562 340.647 233.237Z" stroke="#11171D" stroke-width="4"/>
<g filter="url(#filter1_i_13_684)">
<ellipse cx="318.169" cy="200.123" rx="15.079" ry="15.5731" fill="#CFD9FC"/>
</g>
<g filter="url(#filter2_i_13_684)">
<ellipse cx="295.573" cy="199.567" rx="15.079" ry="15.5731" fill="#1D4ADD"/>
</g>
<g filter="url(#filter3_i_13_684)">
<ellipse cx="291.243" cy="214.168" rx="15.079" ry="15.5731" fill="#668AFF"/>
</g>
<g filter="url(#filter4_i_13_684)">
<ellipse cx="332.667" cy="210.8" rx="15.079" ry="15.5731" fill="#668AFF"/>
</g>
<g filter="url(#filter5_i_13_684)">
<ellipse cx="314.268" cy="220.462" rx="15.079" ry="15.5731" fill="#1D4ADD"/>
</g>
<path d="M306.735 125.438C306.735 125.438 304.899 201.609 306.735 240.423" stroke="#11171D" stroke-width="4" stroke-linecap="round"/>
<path d="M306.735 125.438C300.795 144.162 278.52 185.782 269.141 208.643" stroke="#11171D" stroke-width="4" stroke-linecap="round"/>
<path d="M306.735 125.438C316.623 148.265 329.117 169.446 350.69 210.162" stroke="#11171D" stroke-width="4" stroke-linecap="round"/>
<path d="M308.775 20.3403C307.94 31.0949 309.641 95.1946 308.775 107.978" stroke="#11171D" stroke-width="4" stroke-linecap="round" stroke-linejoin="round"/>
<path d="M302.799 118.141C301.33 120.686 302.202 123.94 304.746 125.409C307.291 126.878 310.545 126.006 312.014 123.462C313.483 120.917 312.611 117.663 310.066 116.194C307.522 114.725 306.65 111.471 308.119 108.927" stroke="#11171D" stroke-width="4" stroke-linecap="round" stroke-linejoin="round"/>
<defs>
<filter id="filter0_i_13_684" x="314.449" y="377.306" width="19.399" height="28.6785" filterUnits="userSpaceOnUse" color-interpolation-filters="sRGB">
<feFlood flood-opacity="0" result="BackgroundImageFix"/>
<feBlend mode="normal" in="SourceGraphic" in2="BackgroundImageFix" result="shape"/>
<feColorMatrix in="SourceAlpha" type="matrix" values="0 0 0 0 0 0 0 0 0 0 0 0 0 0 0 0 0 0 127 0" result="hardAlpha"/>
<feOffset dx="1.30263" dy="-0.434211"/>
<feComposite in2="hardAlpha" operator="arithmetic" k2="-1" k3="1"/>
<feColorMatrix type="matrix" values="0 0 0 0 0.1127 0 0 0 0 0.288773 0 0 0 0 0.8673 0 0 0 1 0"/>
<feBlend mode="normal" in2="shape" result="effect1_innerShadow_13_684"/>
</filter>
<filter id="filter1_i_13_684" x="303.091" y="184.55" width="30.1579" height="31.1462" filterUnits="userSpaceOnUse" color-interpolation-filters="sRGB">
<feFlood flood-opacity="0" result="BackgroundImageFix"/>
<feBlend mode="normal" in="SourceGraphic" in2="BackgroundImageFix" result="shape"/>
<feColorMatrix in="SourceAlpha" type="matrix" values="0 0 0 0 0 0 0 0 0 0 0 0 0 0 0 0 0 0 127 0" result="hardAlpha"/>
<feOffset dx="-11" dy="-8"/>
<feComposite in2="hardAlpha" operator="arithmetic" k2="-1" k3="1"/>
<feColorMatrix type="matrix" values="0 0 0 0 0.6314 0 0 0 0 0.714747 0 0 0 0 0.9886 0 0 0 1 0"/>
<feBlend mode="normal" in2="shape" result="effect1_innerShadow_13_684"/>
</filter>
<filter id="filter2_i_13_684" x="280.494" y="183.994" width="30.158" height="31.1462" filterUnits="userSpaceOnUse" color-interpolation-filters="sRGB">
<feFlood flood-opacity="0" result="BackgroundImageFix"/>
<feBlend mode="normal" in="SourceGraphic" in2="BackgroundImageFix" result="shape"/>
<feColorMatrix in="SourceAlpha" type="matrix" values="0 0 0 0 0 0 0 0 0 0 0 0 0 0 0 0 0 0 127 0" result="hardAlpha"/>
<feOffset dx="-11" dy="-8"/>
<feComposite in2="hardAlpha" operator="arithmetic" k2="-1" k3="1"/>
<feColorMatrix type="matrix" values="0 0 0 0 0.0585 0 0 0 0 0.2132 0 0 0 0 0.7215 0 0 0 1 0"/>
<feBlend mode="normal" in2="shape" result="effect1_innerShadow_13_684"/>
</filter>
<filter id="filter3_i_13_684" x="276.164" y="198.595" width="30.1579" height="31.1462" filterUnits="userSpaceOnUse" color-interpolation-filters="sRGB">
<feFlood flood-opacity="0" result="BackgroundImageFix"/>
<feBlend mode="normal" in="SourceGraphic" in2="BackgroundImageFix" result="shape"/>
<feColorMatrix in="SourceAlpha" type="matrix" values="0 0 0 0 0 0 0 0 0 0 0 0 0 0 0 0 0 0 127 0" result="hardAlpha"/>
<feOffset dx="-11" dy="-8"/>
<feComposite in2="hardAlpha" operator="arithmetic" k2="-1" k3="1"/>
<feColorMatrix type="matrix" values="0 0 0 0 0.16 0 0 0 0 0.356 0 0 0 0 1 0 0 0 1 0"/>
<feBlend mode="normal" in2="shape" result="effect1_innerShadow_13_684"/>
</filter>
<filter id="filter4_i_13_684" x="317.588" y="195.227" width="30.1579" height="31.1462" filterUnits="userSpaceOnUse" color-interpolation-filters="sRGB">
<feFlood flood-opacity="0" result="BackgroundImageFix"/>
<feBlend mode="normal" in="SourceGraphic" in2="BackgroundImageFix" result="shape"/>
<feColorMatrix in="SourceAlpha" type="matrix" values="0 0 0 0 0 0 0 0 0 0 0 0 0 0 0 0 0 0 127 0" result="hardAlpha"/>
<feOffset dx="-11" dy="-8"/>
<feComposite in2="hardAlpha" operator="arithmetic" k2="-1" k3="1"/>
<feColorMatrix type="matrix" values="0 0 0 0 0.16 0 0 0 0 0.356 0 0 0 0 1 0 0 0 1 0"/>
<feBlend mode="normal" in2="shape" result="effect1_innerShadow_13_684"/>
</filter>
<filter id="filter5_i_13_684" x="299.189" y="204.888" width="30.158" height="31.1462" filterUnits="userSpaceOnUse" color-interpolation-filters="sRGB">
<feFlood flood-opacity="0" result="BackgroundImageFix"/>
<feBlend mode="normal" in="SourceGraphic" in2="BackgroundImageFix" result="shape"/>
<feColorMatrix in="SourceAlpha" type="matrix" values="0 0 0 0 0 0 0 0 0 0 0 0 0 0 0 0 0 0 127 0" result="hardAlpha"/>
<feOffset dx="-11" dy="-8"/>
<feComposite in2="hardAlpha" operator="arithmetic" k2="-1" k3="1"/>
<feColorMatrix type="matrix" values="0 0 0 0 0.0585 0 0 0 0 0.2132 0 0 0 0 0.7215 0 0 0 1 0"/>
<feBlend mode="normal" in2="shape" result="effect1_innerShadow_13_684"/>
</filter>
<clipPath id="clip0_13_684">
<rect width="22.4597" height="20.9572" fill="white" transform="matrix(0.866025 0.5 -2.20305e-08 1 314.423 376.344)"/>
</clipPath>
<clipPath id="clip1_13_684">
<rect width="22" height="173" fill="white" transform="translate(334.47 104.212) rotate(-20.9056)"/>
</clipPath>
<clipPath id="clip2_13_684">
<rect width="15.2727" height="42" fill="white" transform="translate(323.874 67.0463) rotate(-20.9056)"/>
</clipPath>
<clipPath id="clip3_13_684">
<rect width="10" height="27.5" fill="white" transform="translate(317.238 42.2843) rotate(-20.9056)"/>
</clipPath>
<clipPath id="clip4_13_684">
<rect width="8.54545" height="23.5" fill="white" transform="translate(310.067 21.473) rotate(-20.9056)"/>
</clipPath>
</defs>
</svg>
