<svg width="335" height="437" viewBox="0 0 335 437" fill="none" xmlns="http://www.w3.org/2000/svg">
<path d="M188.89 413.5C190 377.5 186.5 314.5 188.89 282.108M323 334.035C323 297.5 325.5 300.5 323 206.35M58 334.035C59 326 54 245 58 206.35M188.89 282.108C188.89 284 234 253 323 206.35M188.89 282.108C167.827 271.507 135.217 251.972 111.5 238C79.0419 218.878 58 206.35 58 206.35M58 206.35C89.5 188 165 144 188.89 129.934M188.89 129.934V151.571C188.89 151.571 108 196.81 91.4856 208.043C91.4856 208.043 101.5 214 103.773 215.11M188.89 129.934C188.89 129.934 289.989 190.5 323 206.35M103.773 215.11C107 217.5 164.5 253 188.89 264.754C203.5 256.5 278.524 212.973 278.524 212.973M103.773 215.11C103.773 215.11 130.5 200 130.577 198.168M244.281 179.829L289.988 206.35L278.524 212.973M278.524 212.973C273.5 207.5 249.288 196.81 249.288 196.81" stroke="#11171D" stroke-width="4" stroke-linecap="round" stroke-linejoin="round"/>
<path d="M191.89 434.671C185 435 132.5 399 47 350.12V348.754C47 348.754 48.5 339.766 47 330.098M191.89 434.671C191.89 434.671 205 427 210.794 424.303M191.89 434.671C191.89 434.671 190.5 423.5 191.89 415.232M191.89 415.232C191.89 415.232 73 348.754 62.8726 339.766C62.8726 339.766 54 332.5 47 330.098M191.89 415.232C197 415 320.5 338 333 333.25M47 330.098L57.6733 322.879M333 333.25V352.196C274.5 387.5 257.594 396.005 257.594 396.005M333 333.25L323.146 327.59" stroke="#11171D" stroke-width="4" stroke-linecap="round" stroke-linejoin="round"/>
<path d="M189.933 411.787L49 329.098" stroke="#11171D" stroke-width="4" stroke-linecap="round" stroke-linejoin="round"/>
<path d="M192.024 412.622L323.15 335.425" stroke="#11171D" stroke-width="4" stroke-linecap="round" stroke-linejoin="round"/>
<path d="M229.894 432.776V422.169M229.894 432.776C229.894 432.776 210 425.5 212.705 423.476V413.709M229.894 432.776C229.894 432.776 242 428.5 263.992 412.768V400.967M229.894 422.169L212.705 413.709M229.894 422.169C234.5 417.5 263.992 400.967 263.992 400.967M212.705 413.709C222.5 410 248.562 391.964 248.562 391.964C249.5 393 263.992 400.967 263.992 400.967" stroke="#11171D" stroke-width="4" stroke-linecap="round" stroke-linejoin="round"/>
<path d="M309.786 326.182C308.5 300.5 309.786 255.316 309.786 255.316C290.5 265.5 257.416 285.848 257.416 285.848C257.416 285.848 259 314.5 257.416 339.995M309.786 326.182C305 328 265.5 352 257.416 355.978C257.416 355.978 256.5 347.5 257.416 339.995M309.786 326.182L295.843 317.87C288.5 320.5 257.416 339.995 257.416 339.995" stroke="#11171D" stroke-width="4" stroke-linecap="round" stroke-linejoin="round"/>
<path d="M257.5 302.5C288 318 288.5 320.5 290 320" stroke="#11171D" stroke-width="4" stroke-linecap="round" stroke-linejoin="round"/>
<path d="M77.522 237.941L169.522 291.678V372.941L77.522 317.405V237.941Z" stroke="#11171D" stroke-width="4" stroke-linecap="round" stroke-linejoin="round"/>
<path d="M230.451 111.244C230.451 124.186 212.204 134.678 189.695 134.678C167.187 134.678 148.94 124.186 148.94 111.244C148.94 98.3014 167.187 87.8094 189.695 87.8094C212.204 87.8094 230.451 98.3014 230.451 111.244Z" fill="#FFD7E7"/>
<path d="M245.479 188.934C245.479 186.664 245.071 184.448 244.296 182.311L230.451 111.244C230.451 124.186 212.204 134.678 189.695 134.678C167.187 134.678 148.94 124.186 148.94 111.244L139.036 174.788L134.421 183.603V188.934C134.421 189.839 134.486 190.735 134.613 191.62C135.113 195.114 136.754 196.908 139.036 199.994L142.598 201.862V187.538C142.598 185.971 144.292 184.99 145.65 185.77L162.159 195.248C163.445 195.986 164.228 197.363 164.205 198.845L163.943 215.983L167.39 218.269C170.649 219.108 174.074 219.77 177.628 220.236C181.591 220.755 185.715 221.029 189.95 221.029C195.343 221.029 200.556 220.584 205.486 219.756C227.161 216.112 243.364 205.037 245.287 191.62C245.414 190.735 245.479 189.839 245.479 188.934Z" fill="#FFD7E7"/>
<mask id="mask0_13_775" style="mask-type:alpha" maskUnits="userSpaceOnUse" x="134" y="111" width="112" height="111">
<path d="M245.479 188.932C245.479 186.662 245.071 184.447 244.295 182.31L230.451 111.242C230.451 124.185 212.204 134.677 189.695 134.677C167.187 134.677 148.94 124.185 148.94 111.242L134.421 183.601V188.932C134.421 189.837 134.485 190.733 134.612 191.619C135.113 195.112 136.755 195.842 139.036 198.928L142.598 201.059L142.941 184.728L164.242 196.443L163.942 215.981L167.39 218.268C170.649 219.106 174.074 219.769 177.628 220.234C181.591 220.753 185.715 221.027 189.95 221.027C195.343 221.027 200.556 220.583 205.486 219.754C227.161 216.111 243.364 205.036 245.287 191.619C245.414 190.733 245.479 189.837 245.479 188.932Z" fill="#E7ECFD"/>
</mask>
<g mask="url(#mask0_13_775)">
<rect x="201.667" y="112.262" width="76.9258" height="112.077" fill="#FFA4C1"/>
</g>
<path d="M230.985 110.884C230.985 124.021 212.23 134.671 189.093 134.671C165.957 134.671 147.201 124.021 147.201 110.884C147.201 97.7477 165.957 87.0983 189.093 87.0983C212.23 87.0983 230.985 97.7477 230.985 110.884Z" fill="#FFA4C1"/>
<path fill-rule="evenodd" clip-rule="evenodd" d="M180.27 133.976V88.5092C183.45 88.0513 186.778 87.8081 190.205 87.8081C212.713 87.8081 230.96 98.3 230.96 111.242C230.96 124.185 212.713 134.677 190.205 134.677C186.778 134.677 183.45 134.434 180.27 133.976Z" fill="#FF80A8"/>
<path d="M244.209 179.947C244.986 182.089 245.394 184.309 245.394 186.585C245.394 187.492 245.329 188.39 245.202 189.278C245.202 205.99 223.574 216.223 201.874 219.875M244.209 179.947C246.389 182.245 249.729 185.309 248.454 200.373C248.454 218.986 222.195 234.076 189.803 234.076C181.181 234.076 172.993 233.006 165.619 231.086M244.209 179.947L230.985 110.885M230.985 110.885C230.985 124.021 212.23 134.671 189.093 134.671C165.957 134.671 147.201 124.021 147.201 110.885C147.201 97.7479 165.957 87.0985 189.093 87.0985C212.23 87.0985 230.985 97.7479 230.985 110.885ZM165.619 231.086C162.16 232.64 157.809 233.565 153.083 233.565C141.816 233.565 132.682 228.307 132.682 221.82C132.682 216.714 132.708 214.773 132.708 208.117M165.619 231.086C164.659 228.196 162.433 223.261 166.017 218.12M166.017 218.12C162.351 220.15 158.57 219.267 153.083 219.267C146.127 219.267 139.984 217.262 136.301 214.202C134.203 212.458 132.904 210.371 132.708 208.117M166.017 218.12C169.28 218.961 173.91 219.625 177.468 220.091M166.017 218.12L163.767 213.698L163.767 198.289C163.767 196.765 162.954 195.355 161.634 194.592L161.536 194.536L145.602 185.325C144.179 184.502 142.398 185.529 142.398 187.173L142.398 201.345L138.66 199.215M138.66 199.215C136.376 196.122 134.906 192.78 134.404 189.278C134.277 188.39 134.212 187.492 134.212 186.585V181.241M138.66 199.215C134.967 201.341 132.682 204.278 132.682 207.522C132.682 207.722 132.691 207.92 132.708 208.117M132.708 208.117C131.691 205.631 131.152 203.038 131.152 200.373C130.094 187.871 132.214 183.634 134.212 181.241M188.273 142.669L200.998 133.726L201.874 219.875M188.273 142.669V203.947L177.563 205.99M188.273 142.669L138.66 115.853M177.563 205.99L177.468 220.091M177.563 205.99C177.563 205.99 169.658 195.011 155.888 186.743C142.118 178.476 134.212 180.774 134.212 180.774M177.468 220.091C181.435 220.612 185.564 220.886 189.803 220.886C195.202 220.886 196.938 220.706 201.874 219.875M138.66 115.853L147.316 109.11M138.66 115.853V175.088L135.971 178.525L134.212 180.774M134.212 180.774V181.241" stroke="#11171D" stroke-width="4" stroke-linejoin="round"/>
<path d="M154.302 149.581L169.922 158.812" stroke="#11171D" stroke-width="2.84014"/>
<path d="M170.632 161.444C170.632 166.704 166.818 168.836 162.112 166.206C157.406 163.576 153.592 157.179 153.592 151.92C153.592 146.66 157.406 144.528 162.112 147.157C166.818 149.787 170.632 156.184 170.632 161.444Z" stroke="#11171D" stroke-width="2.84014" stroke-linejoin="round"/>
<path d="M85.9908 35.5255H93.8153V183.28L85.9908 187.835V35.5255Z" fill="#FFA4C1"/>
<path fill-rule="evenodd" clip-rule="evenodd" d="M91.083 184.861V35.8636H93.8154V183.292L91.083 184.861Z" fill="#FF80A8"/>
<ellipse cx="89.9031" cy="35.8638" rx="3.91221" ry="2.2666" fill="#FFC7DE"/>
<path d="M7.51855 84.4298C36 69.5001 63.5 55.0001 87.0465 38.132L87.0465 94.1957C64.5 110.5 36 126 7.51856 140.493L7.51855 84.4298Z" stroke="#11171D" stroke-width="4" stroke-linejoin="round"/>
<path fill-rule="evenodd" clip-rule="evenodd" d="M36.9696 98.5254C39.5255 97.0497 41.4567 91.8486 42.3968 89.3168C42.4795 89.0941 42.5545 88.892 42.6217 88.7149C42.6778 88.5669 42.7365 88.4111 42.7978 88.2484L42.798 88.2478C43.6243 86.0554 44.9171 82.6249 46.5047 80.4885L47.1664 76.5622C47.321 75.7534 46.8484 75.3309 46.2066 75.7015L37.543 80.7034C36.8578 81.099 36.2622 81.9854 36.1011 82.8473C35.1843 87.7555 34.7035 91.7801 34.7035 94.5842C34.7035 97.3047 35.4877 99.3809 36.9696 98.5254ZM50.5831 83.6658C50.5831 82.1636 50.1503 80.7969 49.1997 81.3457C47.754 82.1804 46.518 85.4416 45.2096 88.8945L45.2083 88.8979L45.2083 88.8979C44.2975 91.3012 43.3558 93.7862 42.1343 96.0422C41.4183 97.3649 40.3602 99.0725 38.8973 100.472L45.5528 96.6291C46.2401 96.2323 46.8784 95.4517 47.2376 94.5679C47.4324 94.0883 47.6295 93.6119 47.8248 93.1397L47.8252 93.1389L47.8507 93.0771C49.256 89.6816 50.5831 86.4747 50.5831 83.6658ZM51.2604 77.4071L60.7275 71.9413C62.824 70.7309 64.3661 72.0278 64.3658 75.6444C64.3658 79.5178 62.7796 83.3148 61.2475 86.982C59.8169 90.4065 58.4335 93.7177 58.4335 96.8721L58.4335 99.5244C58.4335 100.155 57.991 100.921 57.4449 101.237L48.6081 106.339C48.062 106.654 47.6195 106.398 47.6195 105.768L47.6195 102.915C47.6195 100.079 48.9525 96.8577 50.3638 93.4474L50.3645 93.4456C51.9307 89.6607 53.55 85.7473 53.55 81.953C53.55 79.4119 52.7779 77.629 51.2604 77.4071Z" fill="#11171D"/>
<path d="M73.3659 113.869C75.8659 117.036 79.3659 123.369 73.3659 123.369C67.3659 123.369 64.1992 114.369 63.3658 109.869" stroke="#11171D" stroke-width="4" stroke-linecap="round" stroke-linejoin="round"/>
<path d="M46.3659 129.869C48.8659 133.036 52.3659 139.369 46.3659 139.369C40.3659 139.369 37.1992 130.369 36.3658 125.869" stroke="#11171D" stroke-width="4" stroke-linecap="round" stroke-linejoin="round"/>
<path d="M80.3658 109.286L66.3658 117.369" stroke="#11171D" stroke-width="4" stroke-linecap="round" stroke-linejoin="round"/>
<path d="M53.3658 125.286L39.3658 133.369" stroke="#11171D" stroke-width="4" stroke-linecap="round" stroke-linejoin="round"/>
<path fill-rule="evenodd" clip-rule="evenodd" d="M7.82443 86H0V343.733V343.751H0.000112807C0.0162496 344.995 1.76157 346 3.91221 346C6.06285 346 7.80829 344.995 7.82443 343.751M7.82443 86V343.733Z" fill="#FFA4C1"/>
<path fill-rule="evenodd" clip-rule="evenodd" d="M7.82451 86.6069H5.09216V345.905C6.67618 345.615 7.82451 344.757 7.82451 343.743C7.82451 343.716 7.82364 343.688 7.82192 343.66H7.82451V86.6069Z" fill="#FF80A8"/>
<ellipse cx="3.91221" cy="86.0664" rx="3.91221" ry="2.2666" fill="#FFC7DE"/>
<path d="M132.514 270.779L113.895 260.061L60.1271 313.241L78.7758 324.215L132.514 270.779Z" fill="#FCEEF5"/>
<path d="M60.0084 313.19V326.69L78.5358 336.992V323.992L60.0084 313.19Z" fill="#FFA4C1"/>
<path d="M169.649 292.217L151.029 281.5L97.2614 334.68L115.91 345.653L169.649 292.217Z" fill="#FCEEF5"/>
<path d="M97.1427 334.629V348.129L115.67 358.43V345.43L97.1427 334.629Z" fill="#FFA4C1"/>
<path d="M151.082 281.498L132.462 270.781L78.6943 323.961L97.3429 334.934L151.082 281.498Z" fill="#FFC7DE"/>
<path d="M78.5756 323.91V337.41L97.103 347.711V334.711L78.5756 323.91Z" fill="#FF80A8"/>
<path d="M113.947 260.06L95.3277 249.342L41.56 302.522L60.2086 313.495L113.947 260.06Z" fill="#FFC7DE"/>
<path d="M41.4413 302.471V315.971L59.9687 326.273V313.273L41.4413 302.471Z" fill="#FF80A8"/>
<path d="M95.3801 249.34L76.7605 238.623L22.9928 291.803L41.6415 302.776L95.3801 249.34Z" fill="#FCEEF5"/>
<path d="M22.8741 291.752V305.252L41.4016 315.553V302.553L22.8741 291.752Z" fill="#FFA4C1"/>
<path d="M245.344 382.07C244.391 365.685 247.557 354.895 245.344 291.519C245.344 291.519 209 310.5 211.367 312.375C209 340.5 211.367 402.925 211.367 402.925" stroke="#11171D" stroke-width="4" stroke-linecap="round" stroke-linejoin="round"/>
<circle r="4.28277" transform="matrix(0.866025 -0.5 2.20305e-08 1 223.434 355.207)" stroke="#11171D" stroke-width="4" stroke-linecap="round" stroke-linejoin="round"/>
</svg>
