<svg width="200" height="200" viewBox="0 0 200 200" fill="none" xmlns="http://www.w3.org/2000/svg">
<path fill-rule="evenodd" clip-rule="evenodd" d="M168.106 81.9189H165.001V108.011H165.001C165.007 108.504 165.7 108.903 166.553 108.903C167.407 108.903 168.099 108.504 168.106 108.011H168.106V108.006C168.106 108.005 168.106 108.005 168.106 108.004C168.106 108.003 168.106 108.002 168.106 108.001V81.9189Z" fill="#BD80FF"/>
<path fill-rule="evenodd" clip-rule="evenodd" d="M168.106 82.1598H167.021V108.865C167.65 108.75 168.106 108.41 168.106 108.008C168.106 107.997 168.105 107.986 168.105 107.975H168.106V82.1598Z" fill="#8C35E3"/>
<ellipse cx="166.553" cy="81.9453" rx="1.55247" ry="0.899444" fill="#E1C7FF"/>
<path fill-rule="evenodd" clip-rule="evenodd" d="M118.106 87.4745H115.001V113.566H115.001C115.007 114.06 115.7 114.459 116.553 114.459C117.407 114.459 118.099 114.06 118.106 113.566H118.106V113.562C118.106 113.561 118.106 113.56 118.106 113.559C118.106 113.558 118.106 113.557 118.106 113.557V87.4745Z" fill="#BD80FF"/>
<path fill-rule="evenodd" clip-rule="evenodd" d="M118.106 87.7153H117.021V114.421C117.65 114.306 118.106 113.965 118.106 113.563C118.106 113.552 118.105 113.541 118.105 113.53H118.106V87.7153Z" fill="#8C35E3"/>
<ellipse cx="116.553" cy="87.5009" rx="1.55247" ry="0.899444" fill="#E1C7FF"/>
<path fill-rule="evenodd" clip-rule="evenodd" d="M120.487 109.3H117.382V135.392H117.382C117.388 135.885 118.081 136.284 118.934 136.284C119.788 136.284 120.48 135.885 120.487 135.392H120.487V135.387C120.487 135.386 120.487 135.386 120.487 135.385C120.487 135.384 120.487 135.383 120.487 135.382V109.3Z" fill="#BD80FF"/>
<path fill-rule="evenodd" clip-rule="evenodd" d="M120.487 109.541H119.402V136.246C120.031 136.131 120.487 135.791 120.487 135.389C120.487 135.378 120.486 135.367 120.486 135.356H120.487V109.541Z" fill="#8C35E3"/>
<ellipse cx="118.934" cy="109.326" rx="1.55247" ry="0.899444" fill="#E1C7FF"/>
<path fill-rule="evenodd" clip-rule="evenodd" d="M152.233 90.649H149.128V116.741H149.128C149.134 117.234 149.827 117.633 150.68 117.633C151.534 117.633 152.226 117.234 152.233 116.741H152.233V116.736C152.233 116.736 152.233 116.735 152.233 116.734C152.233 116.733 152.233 116.732 152.233 116.731V90.649Z" fill="#BD80FF"/>
<path fill-rule="evenodd" clip-rule="evenodd" d="M152.233 90.8899H151.148V117.596C151.777 117.48 152.233 117.14 152.233 116.738C152.233 116.727 152.232 116.716 152.232 116.705H152.233V90.8899Z" fill="#8C35E3"/>
<ellipse cx="150.68" cy="90.6754" rx="1.55247" ry="0.899444" fill="#E1C7FF"/>
<path d="M46.7244 55.2224L75.2958 71.4923L46.7244 87.7621L18.153 71.4923L46.7244 55.2224Z" fill="#E1C7FF"/>
<path d="M75.2954 71.4923L46.724 87.7622V101.453V129.429L50.6872 127.172V103.687L71.414 115.369L75.2954 113.159V71.4923Z" fill="#8C35E3"/>
<path d="M75.2954 71.4923L46.724 87.7622V129.429L50.6872 127.172V89.672L71.414 77.8692V115.369L75.2954 113.498V71.4923Z" fill="#BD80FF"/>
<path d="M18.1476 113.159L46.719 129.429V87.7622L18.1476 71.4923V113.159Z" fill="#CEA4FF"/>
<path fill-rule="evenodd" clip-rule="evenodd" d="M97.0739 123.982H93.9689V150.074H93.969C93.9753 150.568 94.6679 150.967 95.5214 150.967C96.3749 150.967 97.0675 150.568 97.0738 150.074H97.0739V150.07C97.0739 150.069 97.0739 150.068 97.0739 150.067C97.0739 150.066 97.0739 150.065 97.0739 150.064V123.982Z" fill="#BD80FF"/>
<path fill-rule="evenodd" clip-rule="evenodd" d="M97.0739 124.223H95.9896V150.929C96.6182 150.814 97.0739 150.473 97.0739 150.071C97.0739 150.06 97.0735 150.049 97.0729 150.038H97.0739V124.223Z" fill="#8C35E3"/>
<ellipse cx="95.5214" cy="124.009" rx="1.55247" ry="0.899444" fill="#E1C7FF"/>
<path d="M177.137 81.883L82.5396 136.707V132.341L177.137 77.5179V81.883Z" fill="#BD80FF"/>
<path d="M57.1529 127.381L85.7243 143.651V130.953L57.1529 114.683V127.381Z" fill="#CEA4FF"/>
<path d="M141.64 67.1548L57.1528 114.683L85.7243 130.952L176.561 78.2659L165.45 59.0248L141.64 67.1548Z" fill="#E1C7FF"/>
<path d="M163.052 51.536L135.274 35.663L149.56 27.5281L177.132 43.1831L163.052 51.536Z" fill="#E1C7FF"/>
<path d="M135.274 35.4646L163.845 52.5281V59.0757V77.5281L159.882 75.2713V61.3096L139.155 72.9923L135.274 70.7821V35.4646Z" fill="#8C35E3"/>
<path d="M162.655 51.3376V86.5079L177.135 78.4928V43.1753L162.655 51.3376Z" fill="#A45AF4"/>
<path d="M135.274 35.4646L162.655 51.3376V86.5078L158.692 84.3982V53.2475L139.155 41.8415V72.9923L135.274 70.7821V35.4646Z" fill="#CEA4FF"/>
<circle r="4.00895" transform="matrix(1 0 0 -1 183.8 85.3899)" stroke="#11171D" stroke-width="2.5" stroke-linecap="round" stroke-linejoin="round"/>
<circle r="3.77283" transform="matrix(-0.866025 0.5 -2.20305e-08 -1 170.257 63.5583)" fill="#7325C1"/>
<path d="M182.598 80.8116C182.598 80.8116 173.829 64.6119 170.122 60.7508M168.168 63.4364C168.168 63.4364 179.714 83.8863 180.376 82.8468" stroke="#11171D" stroke-width="2.5" stroke-linecap="round" stroke-linejoin="round"/>
<path d="M184.337 86.4424C184.683 86.0668 184.895 85.5648 184.895 85.0135C184.895 84.6666 184.842 84.3307 184.663 84.0508" stroke="#11171D" stroke-width="2.5" stroke-linecap="round" stroke-linejoin="round"/>
<path d="M158.307 82.2479L152.413 85.6272M158.307 82.2479L149.084 74.4567L139.86 71.6719L133.966 75.0512M158.307 82.2479V86.253L152.413 89.6323M152.413 85.6272L143.19 77.836L133.966 75.0512M152.413 85.6272V89.6323M133.966 75.0512V79.0563L143.19 86.8475L152.413 89.6323" stroke="#11171D" stroke-width="2.5" stroke-linecap="round" stroke-linejoin="round"/>
<path d="M139.86 71.6719L133.966 75.0512L143.19 77.836L149.084 74.4567L139.86 71.6719Z" stroke="#11171D" stroke-width="2.5" stroke-linecap="round" stroke-linejoin="round"/>
<path d="M153.445 78.1377L158.395 75.2799C158.66 75.152 158.826 74.8444 158.826 74.396C158.826 73.5469 158.23 72.5145 157.495 72.0899C157.121 71.8741 156.783 71.8569 156.541 72.0037L156.533 71.9888L150.37 75.5465" stroke="#11171D" stroke-width="2.5" stroke-linecap="round" stroke-linejoin="round"/>
<path d="M107.644 161.455L81.0567 176.534V161.455L107.644 146.375V161.455Z" fill="#BD80FF"/>
<path fill-rule="evenodd" clip-rule="evenodd" d="M64.2324 121.419C64.2324 122.541 63.8118 123.306 63.1428 123.616L41.642 135.824C41.0407 136.222 40.1832 136.193 39.2313 135.644C37.4125 134.593 35.938 132.04 35.938 129.939C35.938 128.881 36.3127 128.139 36.9174 127.799L36.9172 127.799L54.8965 117.628L58.5619 115.513L58.5633 115.512C59.1626 115.138 60.0055 115.176 60.9391 115.715C62.7579 116.765 64.2324 119.319 64.2324 121.419Z" fill="#CEA4FF"/>
<path fill-rule="evenodd" clip-rule="evenodd" d="M63.6014 118.964L63.6024 118.954L42.0437 131.489L41.548 135.883L63.0876 123.641C63.7894 123.348 64.2338 122.572 64.2338 121.419C64.2338 120.62 64.0204 119.755 63.6558 118.933L63.6014 118.964Z" fill="#8C35E3"/>
<circle r="3.80281" transform="matrix(0.866025 0.5 -2.20305e-08 1 39.2313 131.841)" fill="#E1C7FF"/>
<path fill-rule="evenodd" clip-rule="evenodd" d="M72.5658 126.975C72.5658 128.096 72.1453 128.862 71.4763 129.171L49.9754 141.379C49.3742 141.777 48.5166 141.749 47.5648 141.199C45.7459 140.149 44.2714 137.595 44.2714 135.495C44.2714 134.436 44.6462 133.695 45.2508 133.354L45.2507 133.354L63.2299 123.183L66.8953 121.069L66.8968 121.068C67.4961 120.693 68.3389 120.731 69.2725 121.27C71.0914 122.32 72.5658 124.874 72.5658 126.975Z" fill="#CEA4FF"/>
<path fill-rule="evenodd" clip-rule="evenodd" d="M71.9349 124.52L71.9359 124.509L50.3771 137.044L49.8814 141.439L71.4211 129.196C72.1228 128.904 72.5672 128.127 72.5672 126.974C72.5672 126.175 72.3538 125.311 71.9892 124.488L71.9349 124.52Z" fill="#8C35E3"/>
<circle r="3.80281" transform="matrix(0.866025 0.5 -2.20305e-08 1 47.5648 137.396)" fill="#E1C7FF"/>
<path fill-rule="evenodd" clip-rule="evenodd" d="M81.296 132.53C81.296 133.652 80.8754 134.417 80.2064 134.727L58.7056 146.935C58.1043 147.333 57.2468 147.304 56.2949 146.755C54.4761 145.705 53.0016 143.151 53.0016 141.051C53.0016 139.992 53.3763 139.25 53.981 138.91L53.9808 138.91L71.9601 128.739L75.6255 126.624L75.6269 126.624C76.2262 126.249 77.0691 126.287 78.0027 126.826C79.8215 127.876 81.296 130.43 81.296 132.53Z" fill="#CEA4FF"/>
<path fill-rule="evenodd" clip-rule="evenodd" d="M80.665 130.076L80.666 130.065L59.1073 142.6L58.6116 146.995L80.1512 134.752C80.853 134.46 81.2974 133.683 81.2974 132.53C81.2974 131.731 81.084 130.866 80.7194 130.044L80.665 130.076Z" fill="#8C35E3"/>
<circle r="3.80281" transform="matrix(0.866025 0.5 -2.20305e-08 1 56.2949 142.952)" fill="#E1C7FF"/>
<path fill-rule="evenodd" clip-rule="evenodd" d="M90.4229 137.887C90.4229 139.009 90.0023 139.774 89.3333 140.084L67.8325 152.292C67.2312 152.69 66.3737 152.661 65.4218 152.112C63.603 151.062 62.1285 148.508 62.1285 146.408C62.1285 145.349 62.5032 144.607 63.1079 144.267L63.1077 144.267L81.087 134.096L84.7524 131.981L84.7538 131.981C85.3531 131.606 86.196 131.644 87.1296 132.183C88.9484 133.233 90.4229 135.787 90.4229 137.887Z" fill="#CEA4FF"/>
<path fill-rule="evenodd" clip-rule="evenodd" d="M89.7919 135.433L89.7929 135.422L68.2342 147.957L67.7385 152.352L89.2781 140.109C89.9799 139.817 90.4243 139.04 90.4243 137.887C90.4243 137.088 90.2109 136.223 89.8463 135.401L89.7919 135.433Z" fill="#8C35E3"/>
<circle r="3.80281" transform="matrix(0.866025 0.5 -2.20305e-08 1 65.4218 148.309)" fill="#E1C7FF"/>
<path fill-rule="evenodd" clip-rule="evenodd" d="M99.55 143.443C99.55 144.564 99.1294 145.33 98.4604 145.64L76.9596 157.847C76.3584 158.246 75.5008 158.217 74.5489 157.667C72.7301 156.617 71.2556 154.063 71.2556 151.963C71.2556 150.904 71.6303 150.163 72.235 149.823L72.2349 149.822L90.2141 139.651L93.8795 137.537L93.881 137.536C94.4803 137.161 95.3231 137.199 96.2567 137.738C98.0756 138.789 99.55 141.342 99.55 143.443Z" fill="#CEA4FF"/>
<path fill-rule="evenodd" clip-rule="evenodd" d="M98.919 140.988L98.9201 140.978L77.3613 153.513L76.8656 157.907L98.4052 145.664C99.107 145.372 99.5514 144.595 99.5514 143.443C99.5514 142.644 99.338 141.779 98.9734 140.956L98.919 140.988Z" fill="#8C35E3"/>
<circle r="3.80281" transform="matrix(0.866025 0.5 -2.20305e-08 1 74.5489 153.864)" fill="#E1C7FF"/>
<path fill-rule="evenodd" clip-rule="evenodd" d="M108.28 148.8C108.28 149.922 107.86 150.687 107.191 150.997L85.6898 163.204C85.0885 163.603 84.231 163.574 83.2791 163.025C81.4603 161.974 79.9858 159.421 79.9858 157.32C79.9858 156.262 80.3605 155.52 80.9652 155.18L80.965 155.18L98.9443 145.009L102.61 142.894L102.611 142.893C103.21 142.519 104.053 142.557 104.987 143.096C106.806 144.146 108.28 146.7 108.28 148.8Z" fill="#CEA4FF"/>
<path fill-rule="evenodd" clip-rule="evenodd" d="M107.649 146.345L107.65 146.335L86.0915 158.87L85.5958 163.264L107.135 151.022C107.837 150.729 108.282 149.953 108.282 148.8C108.282 148.001 108.068 147.136 107.704 146.314L107.649 146.345Z" fill="#8C35E3"/>
<circle r="3.80281" transform="matrix(0.866025 0.5 -2.20305e-08 1 83.2791 159.222)" fill="#E1C7FF"/>
<path d="M36.13 150.472L81.0565 176.534V163.042L36.13 136.187V150.472Z" fill="#CEA4FF"/>
<path fill-rule="evenodd" clip-rule="evenodd" d="M119.7 167.344C119.994 167.195 120.178 166.848 120.178 166.345C120.178 165.379 119.5 164.204 118.664 163.721C118.238 163.476 117.854 163.456 117.579 163.623L117.569 163.607L103.658 171.639L105.809 175.364L119.7 167.344Z" fill="#A45AF4"/>
<path fill-rule="evenodd" clip-rule="evenodd" d="M120.178 166.345C120.178 166.848 119.994 167.196 119.699 167.345L105.808 175.364L104.948 173.875L119.924 165.228C120.085 165.598 120.178 165.986 120.178 166.345Z" fill="#7325C1"/>
<path d="M119.588 175.277L112.883 179.122V183.678L119.588 179.834V175.277Z" fill="#BD80FF"/>
<path d="M112.883 179.122L102.39 170.258L91.897 167.09V171.646L102.39 180.51L112.883 183.678V179.122Z" fill="#CEA4FF"/>
<path d="M112.883 179.122L119.588 175.277L109.095 166.414L98.6025 163.246L91.897 167.09L102.39 170.258L112.883 179.122Z" fill="#E1C7FF"/>
<path d="M98.6025 163.246L91.897 167.09L102.39 170.258L109.095 166.414L98.6025 163.246Z" fill="#E9D7FF"/>
<g clip-path="url(#clip0_5399_155447)">
<path fill-rule="evenodd" clip-rule="evenodd" d="M99.6155 174.286C100.133 174.585 100.524 173.983 100.714 173.69C100.731 173.665 100.746 173.641 100.76 173.621L100.796 173.568C100.963 173.317 101.225 172.925 101.546 172.863L101.68 172.223C101.711 172.096 101.616 171.9 101.486 171.825L99.7316 170.812C99.5929 170.732 99.4723 170.772 99.4397 170.909C99.2541 171.688 99.1567 172.391 99.1567 172.958C99.1567 173.509 99.3155 174.113 99.6155 174.286ZM102.372 174.46C102.372 174.156 102.284 173.778 102.091 173.667C101.799 173.498 101.549 173.869 101.284 174.262L101.283 174.263L101.283 174.263C101.099 174.536 100.908 174.819 100.661 174.99C100.516 175.091 100.302 175.189 100.006 175.131L101.353 175.908C101.492 175.989 101.621 175.98 101.694 175.885C101.734 175.833 101.774 175.783 101.813 175.733L101.818 175.727C102.103 175.368 102.372 175.029 102.372 174.46ZM102.509 173.351L104.425 174.458C104.85 174.703 105.162 175.326 105.162 176.058C105.162 176.843 104.841 177.241 104.531 177.625C104.241 177.984 103.961 178.331 103.961 178.969L103.961 179.506C103.961 179.634 103.871 179.686 103.761 179.622L101.972 178.589C101.861 178.525 101.771 178.37 101.771 178.242L101.771 177.665C101.771 177.09 102.041 176.75 102.327 176.389L102.327 176.389C102.644 175.989 102.972 175.575 102.972 174.807C102.972 174.293 102.816 173.751 102.509 173.351Z" fill="#BD80FF"/>
</g>
<path d="M85.5463 163.599C85.5463 163.599 99.674 154.363 106.134 152.094C106.876 151.661 107.334 150.739 107.334 149.428C107.334 146.798 105.488 143.6 103.21 142.285C97.7613 137.443 71.1303 125.084 59.3507 116.059C58.221 115.406 57.1974 115.34 56.4526 115.76C52.1502 119.345 39.9382 124.054 36.3722 127.208M85.5463 163.599C86.2853 163.165 86.7418 162.244 86.7418 160.936C86.7418 158.306 84.8954 155.108 82.6179 153.793C77.1627 150.979 46.412 132.146 39.1554 127.567C38.0827 126.947 37.1057 126.856 36.3722 127.208M85.5463 163.599C84.7991 164.037 83.763 163.978 82.6179 163.317L39.1554 137.09C36.8778 135.775 35.0314 132.577 35.0314 129.948C35.0314 128.556 35.5482 127.603 36.3722 127.208" stroke="#11171D" stroke-width="2.5" stroke-linecap="round" stroke-linejoin="round"/>
<circle r="1.87391" transform="matrix(0.866025 0.5 -2.20305e-08 1 82.874 159.128)" stroke="#11171D" stroke-width="2.5" stroke-linecap="round" stroke-linejoin="round"/>
<circle r="1.87391" transform="matrix(0.866025 0.5 -2.20305e-08 1 39.162 132.107)" stroke="#11171D" stroke-width="2.5" stroke-linecap="round" stroke-linejoin="round"/>
<path fill-rule="evenodd" clip-rule="evenodd" d="M37.6814 37.0773C38.2092 37.2188 38.5992 37.6972 38.6067 38.2678C38.6067 38.2648 38.6068 38.2632 38.6072 38.2632C38.6105 38.2626 38.6367 38.4036 38.8257 38.6681C39.0336 38.959 39.3851 39.3196 39.9159 39.6728C40.9686 40.3732 42.7052 41.0276 45.2955 41.0276C48.0572 41.0276 49.8613 40.3665 50.9358 39.6662C51.4769 39.3136 51.8282 38.9548 52.0335 38.6678C52.2207 38.406 52.2458 38.265 52.2488 38.2654C52.2491 38.2655 52.2492 38.267 52.2492 38.2699C52.2549 37.7786 52.544 37.3555 52.9607 37.1563C52.5408 36.4822 51.7247 35.7906 50.4908 35.2357C49.0974 34.6091 47.2935 34.2166 45.2955 34.2166C43.2383 34.2166 41.388 34.6327 39.9797 35.2909C38.8539 35.8172 38.098 36.4533 37.6814 37.0773ZM54.7491 38.2973C54.7453 38.9432 54.4505 39.5857 54.0669 40.1221C53.6594 40.6918 53.0703 41.2592 52.3008 41.7607C50.7542 42.7687 48.4565 43.5276 45.2955 43.5276C42.2785 43.5276 40.0458 42.762 38.531 41.7542C37.7781 41.2532 37.1963 40.6877 36.7918 40.1218C36.4714 39.6736 36.2059 39.1442 36.1292 38.5979C33.0735 40.176 30.7325 42.059 29.0275 44.6286C27.1954 47.39 26.0242 51.0555 25.612 56.2257C24.8277 66.0616 33.4761 75.9774 45.467 75.9774C51.0528 75.9774 55.6328 74.39 58.9875 71.1928C62.3463 67.9918 64.6223 63.0384 65.322 56.0253C65.5719 51.9854 64.1606 47.6562 61.9148 44.2328C59.8225 41.0436 57.1726 38.8798 54.7491 38.2973ZM38.9211 33.0261C40.7015 32.194 42.9202 31.7166 45.2955 31.7166C47.6039 31.7166 49.7633 32.1674 51.5162 32.9557C53.0036 33.6246 54.2942 34.5828 55.0656 35.8064C58.4735 36.5092 61.6971 39.3433 64.0051 42.8615C66.4888 46.6474 68.1128 51.5145 67.8156 56.2054C67.8147 56.2202 67.8135 56.235 67.812 56.2497C67.0747 63.6803 64.6284 69.2703 60.7123 73.0026C56.7885 76.7421 51.5351 78.4774 45.467 78.4774C32.1174 78.4774 22.2118 67.4154 23.1199 56.027C23.5538 50.585 24.8062 46.469 26.9444 43.2464C29.0076 40.1368 31.8272 37.9621 35.2899 36.2197C35.9936 34.8381 37.3446 33.763 38.9211 33.0261Z" fill="#11171D"/>
<path d="M56.618 43.4309C59.5511 46.6103 61.3429 50.8586 61.3429 55.5254C61.3429 58.4613 60.8929 61.3048 59.3775 63.6742" stroke="#11171D" stroke-width="2.5" stroke-linecap="round" stroke-linejoin="round"/>
<path fill-rule="evenodd" clip-rule="evenodd" d="M91.7474 97.6934C90.9119 97.295 90.3877 96.3296 90.3877 94.9203C90.3877 92.26 92.2553 89.0251 94.5592 87.695C95.7415 87.0124 96.8089 86.964 97.568 87.4383L97.5703 87.4393L100.824 89.3786L115.447 97.834C116.222 98.2613 116.703 99.2039 116.703 100.554C116.703 103.214 114.836 106.449 112.532 107.779C111.315 108.482 110.219 108.512 109.457 107.993L91.7474 97.6934Z" fill="#E9D7FF"/>
<path fill-rule="evenodd" clip-rule="evenodd" d="M96.8954 95.1522L96.9011 95.1445L91.8326 92.1877L91.1854 91.7977L91.1867 91.811L91.1182 91.771C90.6564 92.8129 90.3861 93.9081 90.3861 94.9202C90.3861 96.3774 90.9465 97.36 91.832 97.732L109.597 108.083L108.969 102.517L96.8508 95.2124C96.8658 95.1924 96.8806 95.1724 96.8954 95.1522Z" fill="#CEA4FF"/>
<circle r="4.81685" transform="matrix(-0.866025 0.5 2.20305e-08 1 112.532 102.962)" fill="#A45AF4"/>
<circle r="3.1393" transform="matrix(-0.866025 0.5 2.20305e-08 1 112.532 102.962)" fill="#7325C1"/>
<path d="M111.58 101.967L116.164 104.575L116.129 95.0739L104.424 88.1145L104.567 81.4589" stroke="#11171D" stroke-width="2.5" stroke-linecap="round" stroke-linejoin="round"/>
<path fill-rule="evenodd" clip-rule="evenodd" d="M103.311 83.8454C102.926 83.6131 102.751 83.3102 102.783 83.0164L103.047 73.1063C103.035 72.8173 103.223 72.5289 103.608 72.316C104.346 71.9092 105.528 71.9322 106.249 72.3673C106.612 72.5867 106.789 72.8689 106.781 73.147L106.781 73.147L106.547 81.4292L106.514 83.1226L106.514 83.1231C106.518 83.4065 106.33 83.688 105.952 83.8968C105.215 84.3036 104.032 84.2806 103.311 83.8454Z" fill="#BD80FF"/>
<path fill-rule="evenodd" clip-rule="evenodd" d="M104.285 84.1375L104.288 84.14L104.452 74.1422L103.046 73.0615L102.786 82.9923C102.741 83.2937 102.916 83.6071 103.311 83.846C103.586 84.0115 103.927 84.1174 104.284 84.1627L104.285 84.1375Z" fill="#8C35E3"/>
<circle r="1.52476" transform="matrix(-0.875582 0.48307 -0.856142 -0.516741 104.914 73.1039)" fill="#A45AF4"/>
<path fill-rule="evenodd" clip-rule="evenodd" d="M131.252 170.492C137.542 174.123 147.634 174.183 153.795 170.627C157.099 168.719 158.601 166.159 158.314 163.634H158.362V159.61H156.212C155.504 158.896 154.621 158.222 153.563 157.611C147.273 153.98 137.181 153.92 131.02 157.477C129.903 158.122 128.992 158.842 128.286 159.61H126.457V163.634H126.471C126.367 166.095 127.964 168.594 131.252 170.492Z" fill="#8C35E3"/>
<path fill-rule="evenodd" clip-rule="evenodd" d="M152.278 156.943L147.22 156.943V172.883C149.634 172.472 151.9 171.72 153.795 170.627C156.61 169.001 158.117 166.902 158.324 164.754H158.362V159.28H155.869C155.225 158.688 154.456 158.127 153.562 157.612C153.15 157.373 152.721 157.151 152.278 156.943Z" fill="#7325C1"/>
<ellipse rx="13.1493" ry="12.8808" transform="matrix(0.866025 0.5 -0.866025 0.5 142.407 160.067)" fill="#A45AF4"/>
<path fill-rule="evenodd" clip-rule="evenodd" d="M153.868 131.351H130.949V159.327H130.96C130.885 161.094 132.032 162.889 134.394 164.253C138.912 166.861 146.162 166.905 150.587 164.35C152.96 162.979 154.039 161.14 153.833 159.327H153.868V131.351Z" fill="#CEA4FF"/>
<path fill-rule="evenodd" clip-rule="evenodd" d="M153.868 131.431H149.039V165.096C149.584 164.878 150.103 164.629 150.587 164.349C152.61 163.182 153.692 161.674 153.84 160.131H153.868V131.431Z" fill="#BD80FF"/>
<ellipse rx="9.44547" ry="9.25264" transform="matrix(0.866025 0.5 -0.866025 0.5 142.407 131.68)" fill="#E9D7FF"/>
<circle r="1.87391" transform="matrix(0.866025 0.5 -2.20305e-08 1 131.723 124.382)" fill="#11171D"/>
<path d="M135.748 104.823L140.278 102.464C140.655 102.306 141.359 102.038 141.359 101.208C141.359 100.377 141.243 98.6024 140.887 97.8104C140.888 97.458 140.013 96.82 139.051 95.8578C133.367 89.036 114.24 74.1756 107.917 68.1887C107.069 67.9005 106.071 67.6723 105.13 67.929C103.946 68.2518 102.395 68.328 102.116 69.0558M102.116 69.0558C101.701 70.1337 101.437 72.0893 101.405 72.4353C101.285 72.941 101.545 73.6015 102.066 74.2283C102.866 75.1906 128.008 102.15 128.008 102.15M102.116 69.0558C111.298 75.7941 123.951 90.5074 130.722 97.047M136.729 126.955C137.193 120.964 135.59 100.17 135.59 100.17C135.557 99.479 134.818 97.9338 132.781 97.3399C130.424 96.6525 128.877 97.9339 128.751 99.2199C127.188 104.632 127.421 124.865 127.421 124.865C127.01 126.534 128.675 129.463 131.41 129.615C134.146 129.767 136.77 128.571 136.729 126.955Z" stroke="#11171D" stroke-width="2.5" stroke-linecap="round" stroke-linejoin="round"/>
<circle r="1.51621" transform="matrix(0.866025 0.5 -2.20305e-08 1 132.257 102.363)" fill="#11171D"/>
<path d="M143.786 119.637C144.697 112.43 142.761 94.4696 142.761 94.4696C142.678 93.6015 141.989 92.2337 139.952 91.6397C137.595 90.9524 136.494 91.9396 136.368 93.2256" stroke="#11171D" stroke-width="2.5" stroke-linecap="round" stroke-linejoin="round"/>
<path d="M130.67 129.398C132.757 129.811 135.915 134.784 141.44 135.276C145.795 135.665 152.387 133.377 150.488 129.803C149.538 128.014 142.034 114.946 136.363 114.338" stroke="#11171D" stroke-width="2.5" stroke-linecap="round" stroke-linejoin="round"/>
<defs>
<clipPath id="clip0_5399_155447">
<rect width="6.95311" height="6.48794" fill="white" transform="matrix(0.866025 0.5 -2.20305e-08 1 99.1483 170.473)"/>
</clipPath>
</defs>
</svg>
