<svg width="200" height="201" viewBox="0 0 200 201" fill="none" xmlns="http://www.w3.org/2000/svg">
<path fill-rule="evenodd" clip-rule="evenodd" d="M141.537 73.6437C141.325 73.5317 141.085 73.4832 140.846 73.5039L140.954 74.7493C140.846 73.5039 140.846 73.504 140.846 73.504L140.845 73.504L140.844 73.5042L140.837 73.5047L140.813 73.5068L140.722 73.515C140.642 73.5222 140.526 73.533 140.377 73.5472C140.078 73.5756 139.649 73.6179 139.124 73.6736C138.075 73.7849 136.637 73.9501 135.087 74.1658C133.54 74.3811 131.868 74.6485 130.354 74.9653C128.867 75.2765 127.444 75.6527 126.441 76.1095L126.417 76.1207C124.438 77.0629 121.375 79.5885 118.724 82.8333C116.28 85.824 114.039 89.6029 113.354 93.5711C109.305 93.7559 105.047 94.6776 100.947 96.501C100.513 96.6939 100.226 97.1159 100.206 97.5902C99.6554 110.581 99.6158 118.334 100.205 133.274V168.956L75.4218 180.619C74.7971 180.913 74.5291 181.657 74.823 182.282C75.1169 182.907 75.8616 183.175 76.4863 182.881L101.987 170.881C102.425 170.675 102.705 170.234 102.705 169.75V133.25C102.705 133.233 102.704 133.217 102.704 133.2C102.128 118.614 102.155 110.94 102.671 98.4807C112.137 94.5441 122.189 95.7482 127.709 99.3458C130.523 101.179 131.985 103.499 131.915 105.939C131.845 108.41 130.196 111.471 125.717 114.74C125.382 114.985 125.19 115.38 125.205 115.795C125.761 131.104 125.589 139.062 125.206 153.176L124.058 165.792C123.5 167.687 123.045 169.773 122.716 172.072C122.64 172.61 122.917 173.116 123.371 173.355L123.269 174.478L92.347 191.657C91.7435 191.992 91.5261 192.753 91.8613 193.357C92.1966 193.96 92.9576 194.178 93.5611 193.842L125.061 176.342C125.422 176.141 125.661 175.774 125.699 175.362L126.526 166.267C128.042 161.251 130.307 157.804 132.751 155.364C136.1 152.021 139.879 150.472 142.854 149.434L142.865 149.43C147.463 147.831 155.167 144.038 161.652 140.687C163.743 139.606 165.718 138.566 167.435 137.652C163.856 142.956 161.525 150.393 162.152 160.998C161.797 161.174 161.328 161.407 160.772 161.686C159.468 162.339 157.683 163.243 155.76 164.243C151.946 166.227 147.493 168.64 145.235 170.226C144.67 170.623 144.534 171.403 144.931 171.968C145.328 172.533 146.108 172.669 146.673 172.272C148.769 170.799 153.066 168.462 156.914 166.461C158.822 165.468 160.595 164.571 161.892 163.921C162.54 163.596 163.069 163.334 163.435 163.152C163.618 163.062 163.761 162.991 163.857 162.944L163.967 162.89L163.967 162.89C165.894 162.096 168.167 160.958 169.944 160.028C170.842 159.558 171.622 159.136 172.177 158.832C172.455 158.68 172.677 158.557 172.829 158.471C172.906 158.429 172.965 158.396 173.005 158.373L173.052 158.347L173.064 158.34L173.067 158.339L173.068 158.338L173.068 158.338C173.068 158.338 173.068 158.338 172.454 157.249L173.068 158.338C173.669 157.999 173.882 157.236 173.543 156.635C173.203 156.034 172.441 155.821 171.84 156.161L171.84 156.161L171.839 156.161L171.837 156.162L171.826 156.168L171.783 156.193C171.745 156.214 171.687 156.246 171.613 156.287C171.465 156.37 171.248 156.49 170.976 156.639C170.431 156.938 169.665 157.352 168.784 157.813C167.512 158.479 166.016 159.235 164.598 159.886C164.075 147.523 167.843 140.122 172.468 135.44C176.759 131.097 181.857 129 185.475 127.511L185.476 127.511L185.704 127.417V138.249C185.704 138.94 186.264 139.499 186.954 139.499C187.644 139.499 188.204 138.94 188.204 138.249V125.749C188.204 125.359 188.022 124.991 187.711 124.755C186.401 123.757 182.94 121.71 179.905 119.963C178.366 119.078 176.906 118.251 175.83 117.646C175.292 117.344 174.85 117.096 174.542 116.925L174.532 116.919C174.523 115.08 174.507 113.203 174.489 111.352C174.441 106.662 174.37 102.13 174.311 98.7706C174.281 97.0908 174.254 95.704 174.235 94.737C174.225 94.2535 174.217 93.8749 174.212 93.6172L174.206 93.3231L174.204 93.2478L174.204 93.2355C174.201 92.9787 174.12 92.7207 173.955 92.5001L173.94 92.4811C173.71 92.1843 173.369 91.8859 173.023 91.6123C172.655 91.3207 172.198 90.9924 171.676 90.6372C170.628 89.9259 169.265 89.0725 167.708 88.1365C164.59 86.2629 160.641 84.0272 156.768 81.8829C152.894 79.7373 149.086 77.6777 146.248 76.1549C144.829 75.3933 143.652 74.7658 142.829 74.3285C142.418 74.1099 142.095 73.9388 141.875 73.8224L141.624 73.6895L141.559 73.6554L141.543 73.6467L141.539 73.6445L141.538 73.6439C141.538 73.6438 141.537 73.6437 140.954 74.7493L141.537 73.6437ZM141.204 127.749V147.368C138.219 148.46 134.411 150.175 130.985 153.595C129.646 154.931 128.377 156.516 127.24 158.405L127.699 153.363C127.701 153.337 127.703 153.31 127.704 153.284C128.083 139.326 128.258 131.335 127.727 116.36C132.138 112.996 134.317 109.452 134.414 106.01C134.517 102.399 132.323 99.3686 129.074 97.2512C125.72 95.0652 121.056 93.7091 115.902 93.5514C116.571 90.3335 118.447 87.123 120.659 84.4152C122.881 81.6959 125.307 79.6465 126.894 78.7009L127.334 78.9856C128.014 79.4258 128.994 80.0579 130.193 80.8261C132.59 82.3624 135.863 84.4438 139.369 86.6238C145.084 90.1781 151.505 94.0517 155.723 96.2182C151.124 98.6655 147.934 101.989 145.749 105.746C141.565 112.937 141.204 121.493 141.204 127.749ZM184.116 125.365C182.6 124.422 180.592 123.243 178.657 122.13C177.128 121.25 175.676 120.427 174.605 119.825L174.541 119.789C174.543 121.582 174.539 123.304 174.524 124.891C174.505 127.035 174.469 128.968 174.407 130.505C177.895 127.976 181.47 126.452 184.116 125.365ZM169.604 92.2614C168.716 91.6806 167.638 91.0112 166.42 90.2794C163.34 88.4285 159.421 86.2096 155.557 84.0699C151.696 81.9315 147.899 79.8775 145.066 78.3578C143.65 77.598 142.476 76.972 141.656 76.5361C141.246 76.3181 140.924 76.1477 140.705 76.0318L140.698 76.0279L140.614 76.0359C140.323 76.0636 139.903 76.105 139.388 76.1596C138.356 76.269 136.947 76.4311 135.432 76.6419C133.914 76.8531 132.304 77.1115 130.866 77.4123C130.513 77.4862 130.175 77.5617 129.856 77.6383C130.35 77.9568 130.916 78.3204 131.542 78.7213C133.932 80.2536 137.196 82.3286 140.689 84.5009C147.422 88.688 154.883 93.1578 158.645 94.8627C161.738 93.6199 165.362 92.7214 169.604 92.2614ZM159.018 97.4126C159.087 97.3903 159.154 97.3621 159.218 97.3284C162.583 95.923 166.697 94.9491 171.731 94.5782L171.735 94.7869C171.755 95.7522 171.781 97.1371 171.811 98.8148C171.87 102.17 171.941 106.696 171.989 111.378C172.036 116.061 172.06 120.895 172.024 124.868C171.994 128.32 171.918 131.037 171.787 132.464L171.413 132.668C170.81 132.998 169.937 133.473 168.861 134.053C166.709 135.212 163.747 136.79 160.505 138.466C154.749 141.44 148.189 144.679 143.704 146.449V127.749C143.704 121.505 144.094 113.562 147.91 107.003C150.142 103.167 153.597 99.7243 159.018 97.4126Z" fill="#11171D"/>
<path d="M172.954 153.219C172.954 155.526 173.833 157.192 175.276 158.061C176.923 159.053 179.305 159.007 181.954 157.691C186.925 155.221 190.954 149.216 190.954 144.277C190.954 142.264 190.285 140.739 189.156 139.806C187.514 138.449 184.899 138.343 181.954 139.806C176.984 142.275 172.954 148.281 172.954 153.219Z" stroke="#11171D" stroke-width="2.5" stroke-linecap="round" stroke-linejoin="round"/>
<path d="M178.955 150.813C178.955 151.62 179.262 152.204 179.767 152.508C180.344 152.855 181.177 152.839 182.105 152.378C183.844 151.514 185.255 149.412 185.255 147.683C185.255 146.979 185.02 146.445 184.625 146.118C184.05 145.644 183.135 145.606 182.105 146.118C180.365 146.983 178.955 149.085 178.955 150.813Z" fill="#11171D"/>
<path d="M78.501 151.05L101.209 137.843L123.916 151.05L101.209 164.533L78.501 151.05Z" fill="#94FAF8"/>
<path d="M101.208 190.631L101.208 164.017L78.5635 151.223L78.5635 177.837L101.208 190.631Z" fill="#B1FCFB"/>
<path d="M123.997 150.878L123.997 177.319L101.209 190.631L101.209 164.19L123.997 150.878Z" fill="#18DCD9"/>
<path d="M127.954 176.219C127.954 178.526 128.833 180.192 130.276 181.061C131.923 182.053 134.305 182.007 136.954 180.691C141.924 178.221 145.954 172.216 145.954 167.277C145.954 165.264 145.284 163.739 144.155 162.806C142.513 161.449 139.898 161.343 136.954 162.806C131.983 165.275 127.954 171.281 127.954 176.219Z" stroke="#11171D" stroke-width="2.5" stroke-linecap="round" stroke-linejoin="round"/>
<path d="M133.954 173.813C133.954 174.62 134.261 175.204 134.766 175.508C135.343 175.855 136.177 175.839 137.104 175.378C138.843 174.514 140.254 172.412 140.254 170.683C140.254 169.979 140.02 169.445 139.624 169.118C139.049 168.644 138.134 168.606 137.104 169.118C135.364 169.983 133.954 172.085 133.954 173.813Z" fill="#11171D"/>
<path d="M44.9962 64.6195L64.346 53.3657L83.6959 64.6195L64.346 76.1084L44.9962 64.6195Z" fill="#CCFDFD"/>
<path d="M64.3458 98.3476L64.3458 75.6692L45.0494 64.7671L45.0494 87.4456L64.3458 98.3476Z" fill="#B1FCFB"/>
<path d="M83.7646 64.473L83.7647 87.0042L64.3464 98.3479L64.3463 75.8167L83.7646 64.473Z" fill="#51F0ED"/>
<path d="M6.22778 64.6195L25.5776 53.3657L44.9274 64.6195L25.5776 76.1084L6.22778 64.6195Z" fill="#B1FCFB"/>
<path d="M25.5774 98.3476L25.5774 75.6692L6.28101 64.7671L6.28101 87.4456L25.5774 98.3476Z" fill="#94FAF8"/>
<path d="M44.9962 64.473L44.9962 87.0042L25.5779 98.3479L25.5779 75.8167L44.9962 64.473Z" fill="#51F0ED"/>
<path d="M25.6653 31.0082L45.0151 19.7544L64.3649 31.0082L45.0151 42.4971L25.6653 31.0082Z" fill="#B1FCFB"/>
<path d="M45.0149 64.7363L45.0149 42.0578L25.7185 31.1558L25.7185 53.8342L45.0149 64.7363Z" fill="#94FAF8"/>
<path d="M64.4337 30.8617L64.4337 53.3929L45.0154 64.7366L45.0154 42.2054L64.4337 30.8617Z" fill="#51F0ED"/>
</svg>
