<svg width="200" height="201" viewBox="0 0 200 201" fill="none" xmlns="http://www.w3.org/2000/svg">
<path d="M82.7344 43.5701L176.691 98.2413L176.691 168.946L82.7344 114.275L82.7344 43.5701Z" fill="#94FAF8"/>
<path d="M82.7344 43.5701L176.691 98.2413L185.372 92.7501L92.9189 37.2482L82.7344 43.5701Z" fill="#B1FCFB"/>
<path d="M176.692 168.946L185.37 163.467L185.37 92.7621L176.692 98.2409L176.692 168.946Z" fill="#51F0ED"/>
<path d="M120.841 55.282L111.841 60.7735C111.841 60.7735 110.784 97.6837 111.841 99.478C112.898 101.272 149.023 125.01 147.937 120.056C146.851 115.102 147.937 81.4599 147.937 81.4599L156.266 76.6446" stroke="#11171D" stroke-width="2.5" stroke-linecap="round" stroke-linejoin="round"/>
<path d="M130.211 101.501C130.211 102.773 129.318 103.288 128.217 102.652C127.116 102.017 126.223 100.47 126.223 99.1987C126.223 97.9271 127.116 97.4117 128.217 98.0475C129.318 98.6833 130.211 100.23 130.211 101.501Z" stroke="#11171D" stroke-width="2.5" stroke-linecap="round" stroke-linejoin="round"/>
<path d="M145.024 75.0892C145.024 68.1836 140.176 59.7865 134.195 56.3337C128.215 52.8809 123.367 55.6799 123.367 62.5855" stroke="#11171D" stroke-width="2.5" stroke-linecap="round" stroke-linejoin="round"/>
<path d="M18.279 140.673L65.9623 111.914L113.78 140.585L65.8985 168.245L18.279 140.673Z" fill="#B1FCFB"/>
<path d="M65.9041 168.264L113.782 140.612L113.782 162.347L65.9041 190L65.9041 168.264Z" fill="#51F0ED"/>
<path d="M18.2703 140.704L65.9043 168.265L65.9043 190L18.2703 162.44L18.2703 140.704Z" fill="#94FAF8"/>
<path d="M32.2799 44.464L65.8978 24.1885L99.6106 44.402L65.8528 63.9031L32.2799 44.464Z" fill="#B1FCFB"/>
<path d="M65.8567 63.8766L99.6119 44.3776L99.6119 142.135L65.8567 161.634L65.8567 63.8766Z" fill="#51F0ED"/>
<path d="M69.5659 68.6965L75.5357 65.2751L75.5357 78.0059L69.5659 81.3974L69.5659 68.6965Z" fill="#94FAF8"/>
<path d="M79.8918 62.8176L85.8616 59.3962L85.8616 72.127L79.8918 75.5185L79.8918 62.8176Z" fill="#94FAF8"/>
<path d="M90.2178 56.6965L96.1875 53.2751L96.1875 66.0059L90.2178 69.3974L90.2178 56.6965Z" fill="#94FAF8"/>
<path d="M69.5659 86.9319L75.5357 83.5105L75.5357 96.2413L69.5659 99.6327L69.5659 86.9319Z" fill="#94FAF8"/>
<path d="M69.5659 105.167L75.5357 101.746L75.5357 114.477L69.5659 117.868L69.5659 105.167Z" fill="#94FAF8"/>
<path d="M69.5659 122.805L75.5357 119.384L75.5357 132.114L69.5659 135.506L69.5659 122.805Z" fill="#94FAF8"/>
<path d="M69.5659 140.44L75.5357 137.018L75.5357 149.749L69.5659 153.141L69.5659 140.44Z" fill="#94FAF8"/>
<path d="M79.8918 81.0549L85.8616 77.6335L85.8616 90.3643L79.8918 93.7558L79.8918 81.0549Z" fill="#94FAF8"/>
<path d="M79.8918 99.2903L85.8616 95.8689L85.8616 108.6L79.8918 111.991L79.8918 99.2903Z" fill="#94FAF8"/>
<path d="M79.8918 116.927L85.8616 113.506L85.8616 126.236L79.8918 129.628L79.8918 116.927Z" fill="#94FAF8"/>
<path d="M79.8918 134.564L85.8616 131.142L85.8616 143.873L79.8918 147.265L79.8918 134.564Z" fill="#94FAF8"/>
<path d="M90.2178 74.9338L96.1875 71.5124L96.1875 84.2432L90.2178 87.6347L90.2178 74.9338Z" fill="#94FAF8"/>
<path d="M90.2178 93.1702L96.1875 89.7488L96.1875 102.48L90.2178 105.871L90.2178 93.1702Z" fill="#94FAF8"/>
<path d="M90.2178 110.806L96.1875 107.385L96.1875 120.115L90.2178 123.507L90.2178 110.806Z" fill="#94FAF8"/>
<path d="M90.2178 128.443L96.1875 125.021L96.1875 137.752L90.2178 141.143L90.2178 128.443Z" fill="#94FAF8"/>
<path d="M32.2734 44.4277L65.8566 63.8767L65.8566 161.633L32.2734 142.184L32.2734 44.4277Z" fill="#94FAF8"/>
<path d="M62.3804 68.697L56.4106 65.2756L56.4106 78.0064L62.3804 81.3979L62.3804 68.697Z" fill="#51F0ED"/>
<path d="M52.0544 62.8181L46.0847 59.3967L46.0847 72.1275L52.0544 75.519L52.0544 62.8181Z" fill="#51F0ED"/>
<path d="M41.7285 56.697L35.7588 53.2756L35.7588 66.0064L41.7285 69.3979L41.7285 56.697Z" fill="#51F0ED"/>
<path d="M62.3804 86.9324L56.4106 83.511L56.4106 96.2417L62.3804 99.6332L62.3804 86.9324Z" fill="#51F0ED"/>
<path d="M62.3804 105.168L56.4106 101.746L56.4106 114.477L62.3804 117.869L62.3804 105.168Z" fill="#51F0ED"/>
<path d="M62.3804 122.805L56.4106 119.384L56.4106 132.115L62.3804 135.506L62.3804 122.805Z" fill="#51F0ED"/>
<path d="M62.3804 140.44L56.4106 137.019L56.4106 149.75L62.3804 153.141L62.3804 140.44Z" fill="#51F0ED"/>
<path d="M52.0544 81.0554L46.0847 77.634L46.0847 90.3648L52.0544 93.7563L52.0544 81.0554Z" fill="#51F0ED"/>
<path d="M52.0544 99.2908L46.0847 95.8694L46.0847 108.6L52.0544 111.992L52.0544 99.2908Z" fill="#51F0ED"/>
<path d="M52.0544 116.927L46.0847 113.506L46.0847 126.237L52.0544 129.628L52.0544 116.927Z" fill="#51F0ED"/>
<path d="M52.0544 134.564L46.0847 131.143L46.0847 143.874L52.0544 147.265L52.0544 134.564Z" fill="#51F0ED"/>
<path d="M41.7285 74.9343L35.7588 71.5129L35.7588 84.2437L41.7285 87.6352L41.7285 74.9343Z" fill="#51F0ED"/>
<path d="M41.7285 93.1707L35.7588 89.7493L35.7588 102.48L41.7285 105.872L41.7285 93.1707Z" fill="#51F0ED"/>
<path d="M41.7285 110.806L35.7588 107.385L35.7588 120.116L41.7285 123.507L41.7285 110.806Z" fill="#51F0ED"/>
<path d="M41.7285 128.443L35.7588 125.022L35.7588 137.752L41.7285 141.144L41.7285 128.443Z" fill="#51F0ED"/>
<path d="M66.3067 34.293V21.4395C70.4402 24.6034 82.9871 25.613 87.0179 25.7543L87.585 38.2479C80.3258 40.1689 68.6489 36.4117 66.3067 34.293ZM66.3067 34.293C66.3067 34.293 66.0437 41.7118 65.8752 46.4654" stroke="#11171D" stroke-width="2.5" stroke-linecap="round" stroke-linejoin="round"/>
</svg>
