<svg width="200" height="201" viewBox="0 0 200 201" fill="none" xmlns="http://www.w3.org/2000/svg">
<path d="M7.10498 105.257L106.794 162.76L106.794 193.745L7.10498 136.241L7.10498 105.257Z" fill="#94FAF8"/>
<path d="M106.794 162.822L193.345 113.044L193.345 144.03L106.794 193.808L106.794 162.822Z" fill="#51F0ED"/>
<path d="M6.5 105.801L107.009 163.83L193.5 113.894L92.991 55.8652L6.5 105.801Z" fill="#B1FCFB"/>
<path d="M96.3775 112.713V141.497M96.3775 112.713C96.3775 112.713 88.7002 109.026 84.8204 106.041M96.3775 112.713L105.134 107.658M50.1492 86.0233V114.807L61.7063 121.48M50.1492 86.0233L54.947 88.7933M50.1492 86.0233C50.1492 86.0233 54.0325 83.4841 56.6785 81.7443C57.6994 81.073 63.703 78.198 63.703 78.198V83.738M96.3775 141.497L109.931 133.672V104.888L105.134 107.658M96.3775 141.497L84.8204 134.825M61.7063 92.6958C61.7063 92.6958 60.9708 110.568 61.7063 121.48M61.7063 92.6958C66.1794 94.6848 84.8204 106.041 84.8204 106.041M61.7063 92.6958L54.947 88.7933M84.8204 106.041C84.8204 106.041 85.5484 127.22 84.8204 134.825M84.8204 134.825L61.7063 121.48M63.703 83.738L54.947 88.7933M63.703 83.738C63.703 83.738 76.6702 90.3006 84.423 95.4159C89.3273 98.6517 105.134 107.658 105.134 107.658" stroke="#11171D" stroke-width="2.5" stroke-linecap="round" stroke-linejoin="round"/>
<path d="M113.797 42.9166L89.3189 28.7842C89.3189 28.7842 79.2309 34.7622 77.6318 35.5317C76.0328 36.3012 72.8579 38.2879 72.8579 38.2879M113.797 42.9166C113.797 42.9166 106.727 45.8344 104.33 47.8761C101.933 49.9177 97.336 52.4204 97.336 52.4204M113.797 42.9166V79.7803L97.336 89.284M97.336 52.4204V89.284M97.336 52.4204C97.336 52.4204 87.8905 45.9399 86.4294 45.0804C84.9682 44.2209 72.8579 38.2879 72.8579 38.2879M72.8579 38.2879C71.8137 42.3124 72.8579 75.1516 72.8579 75.1516L97.336 89.284" stroke="#11171D" stroke-width="2.5" stroke-linecap="round" stroke-linejoin="round"/>
<path d="M91.2205 73.6906C91.2205 77.3181 88.6171 78.7885 85.4056 76.9747C82.1942 75.161 79.5908 70.75 79.5908 67.1225C79.5908 63.495 82.1942 62.0247 85.4056 63.8384C88.6171 65.6521 91.2205 70.0631 91.2205 73.6906Z" stroke="#11171D" stroke-width="2.5" stroke-linecap="round" stroke-linejoin="round"/>
<path d="M89.3844 57.2931C89.3844 59.7114 87.6031 60.6917 85.4058 59.4825C83.2085 58.2733 81.4272 55.3327 81.4272 52.9143C81.4272 50.496 83.2085 49.5158 85.4058 50.7249C87.6031 51.9341 89.3844 54.8748 89.3844 57.2931Z" stroke="#11171D" stroke-width="2.5" stroke-linecap="round" stroke-linejoin="round"/>
<path d="M170.771 79.6734L146.293 65.541C146.293 65.541 136.205 71.519 134.606 72.2885C133.007 73.0581 129.832 75.0448 129.832 75.0448M170.771 79.6734C170.771 79.6734 163.701 82.5912 161.304 84.6329C158.907 86.6745 154.31 89.1772 154.31 89.1772M170.771 79.6734V116.537L154.31 126.041M154.31 89.1772V126.041M154.31 89.1772C154.31 89.1772 144.865 82.6968 143.403 81.8373C141.942 80.9778 129.832 75.0448 129.832 75.0448M129.832 75.0448C128.788 79.0692 129.832 111.908 129.832 111.908L154.31 126.041" stroke="#11171D" stroke-width="2.5" stroke-linecap="round" stroke-linejoin="round"/>
<path d="M148.195 110.447C148.195 114.075 145.591 115.545 142.38 113.732C139.168 111.918 136.565 107.507 136.565 103.879C136.565 100.252 139.168 98.7815 142.38 100.595C145.591 102.409 148.195 106.82 148.195 110.447Z" stroke="#11171D" stroke-width="2.5" stroke-linecap="round" stroke-linejoin="round"/>
<path d="M146.358 94.0499C146.358 96.4683 144.577 97.4485 142.38 96.2393C140.183 95.0302 138.401 92.0895 138.401 89.6712C138.401 87.2528 140.183 86.2726 142.38 87.4818C144.577 88.6909 146.358 91.6316 146.358 94.0499Z" stroke="#11171D" stroke-width="2.5" stroke-linecap="round" stroke-linejoin="round"/>
</svg>
