<svg width="200" height="201" viewBox="0 0 200 201" fill="none" xmlns="http://www.w3.org/2000/svg">
<path d="M131.689 22.9543L131.689 119.387L67.9978 79.7706L131.689 22.9543Z" fill="#CCFDFD"/>
<path d="M131.689 22.9548L131.689 119.388L195.381 79.7712L131.689 22.9548Z" fill="#B1FCFB"/>
<path d="M86.4581 48.01L86.4581 172.067L1.86352 121.102L86.4581 48.01Z" fill="#B1FCFB"/>
<path d="M86.4583 48.01L86.4583 172.067L171.053 121.102L86.4583 48.01Z" fill="#51F0ED"/>
<path d="M79.7524 143.986L74.0371 140.851L73.1152 144.907" stroke="#11171D" stroke-width="2.5" stroke-linecap="round" stroke-linejoin="round"/>
<path d="M74.959 146.935L67.5843 143.063M67.5843 143.063L66.6625 147.119L70.3498 148.963M67.5843 143.063L63.897 141.035M70.3498 148.963L69.0592 153.019M70.3498 148.963L73.484 150.622" stroke="#11171D" stroke-width="2.5" stroke-linecap="round" stroke-linejoin="round"/>
<path d="M117.548 119.833L121.235 117.897M124.922 115.961L127.688 119.096L122.71 121.861M124.922 115.961L128.61 113.933L126.397 110.246M124.922 115.961L121.235 117.897M122.71 121.861L125.107 125.917M122.71 121.861L118.654 124.258M121.235 117.897L118.654 114.302M135.431 115.04L130.822 117.621L133.219 121.124" stroke="#11171D" stroke-width="2.5" stroke-linecap="round" stroke-linejoin="round"/>
<path d="M49.9583 67.2917L64.3528 75.6024L82.3477 60.9508C86.0515 57.9351 85.4488 53.8168 80.921 51.2027C80.0662 50.7091 78.6802 50.7091 77.8253 51.2027L49.9583 67.2917Z" fill="#04AFAC"/>
<path d="M51.4033 84.2749L53.3907 83.1909" stroke="#11171D" stroke-width="2.5" stroke-linecap="round"/>
<circle cx="57.0622" cy="83.5529" r="1.39813" stroke="#11171D" stroke-width="2.5"/>
<circle r="1.39813" transform="matrix(0.866025 0.5 -2.20305e-08 1 50.0871 86.2005)" stroke="#11171D" stroke-width="2.5"/>
<path d="M30.6041 45.1595C31.0153 44.8286 31.8423 44.7896 32.341 45.0776C35.134 46.6901 35.818 49.1557 34.037 51.1912L30.8316 54.8547C30.1039 55.6864 28.1806 55.8643 27.0394 55.2054L21.8448 52.2063L30.6041 45.1595Z" fill="#04AFAC"/>
<mask id="mask0_5980_149766" style="mask-type:alpha" maskUnits="userSpaceOnUse" x="17" y="50" width="56" height="40">
<path d="M17.7993 52.3572C17.7993 50.4427 19.1656 49.6933 20.823 50.6986L35.931 59.8625C38.5064 61.4246 41.0648 62.3263 43.4275 62.5046L45.8746 62.6893C48.2168 62.8661 50.7217 63.6281 53.2719 64.9396L60.7307 68.7756C64.8894 70.9143 68.3861 76.7563 68.3861 81.5655L72.2482 84.6369C72.2482 88.7047 69.705 90.7099 66.2312 89.3809L50.5455 83.38C47.4302 82.1882 44.2339 80.0676 41.231 77.2003L19.832 56.7676C18.6195 55.6098 17.7993 53.8302 17.7993 52.3572Z" fill="#94FAF8"/>
</mask>
<g mask="url(#mask0_5980_149766)">
<g filter="url(#filter0_i_5980_149766)">
<path d="M17.7993 52.3572C17.7993 50.4427 19.1656 49.6933 20.823 50.6986L35.931 59.8625C38.5064 61.4246 41.0648 62.3263 43.4275 62.5046L45.8746 62.6893C48.2168 62.8661 50.7217 63.6281 53.2719 64.9396L60.7307 68.7756C64.8894 70.9143 68.3861 76.7563 68.3861 81.5655L72.2482 84.6369C72.2482 88.7047 69.705 90.7099 66.2312 89.3809L50.5455 83.38C47.4302 82.1882 44.2339 80.0676 41.231 77.2003L19.832 56.7676C18.6195 55.6098 17.7993 53.8302 17.7993 52.3572Z" fill="#94FAF8"/>
</g>
<path d="M68.1732 79.3043L63.4996 81.5456C62.2389 82.1503 60.7254 81.6684 60.0463 80.4462C58.6505 77.9341 59.5172 74.7672 61.9977 73.316L62.5341 73.0021C63.9909 72.1498 65.8643 72.6858 66.6499 74.1796L68.6258 77.9372C68.8896 78.4389 68.6842 79.0592 68.1732 79.3043Z" fill="#0D8C8A"/>
<path d="M57.2855 72.7318L64.8177 68.9402L55.6688 61.4007L39.862 60.8936L35.9135 63.486C35.5261 63.7404 35.5225 64.3071 35.9066 64.5664C38.0517 66.0144 40.5807 66.788 43.1687 66.788H43.7315C46.5917 66.788 49.3907 67.6157 51.791 69.1711L57.2855 72.7318Z" fill="#B1FCFB"/>
</g>
<path d="M18.522 38.4029C18.522 37.1959 19.3693 36.7067 20.4145 37.3102C23.4428 39.0586 26.1798 42.7227 27.3727 46.6254L28.9827 51.8928C29.9561 55.0775 28.29 57.0331 25.8189 55.6064L18.522 51.3936L18.522 38.4029Z" fill="#18DCD9"/>
<path d="M42.8782 71.6279L57.2727 79.9386L31.8953 90.328C26.6719 92.4664 19.5389 92.1184 15.0111 89.5043C14.1563 89.0107 14.1563 88.2105 15.0111 87.717L42.8782 71.6279Z" fill="#18DCD9"/>
<path d="M65.3326 89.1652C64.7474 89.5315 64.57 90.3028 64.9363 90.888C65.3026 91.4731 66.0739 91.6505 66.6591 91.2842L65.3326 89.1652ZM76.5987 85.5457C77.2076 85.2203 77.4373 84.4629 77.1118 83.8541C76.7864 83.2452 76.029 83.0155 75.4201 83.341L76.5987 85.5457ZM66.6591 91.2842C70.925 88.6139 72.9951 87.4721 76.5987 85.5457L75.4201 83.341C71.7816 85.286 69.6596 86.4566 65.3326 89.1652L66.6591 91.2842Z" fill="#11171D"/>
<path d="M71.0547 81.4333L71.0547 92.996" stroke="#11171D" stroke-width="2.5" stroke-linecap="round" stroke-linejoin="round"/>
<circle r="2.168" transform="matrix(0.866025 -0.5 2.20305e-08 1 71.1254 87.2146)" fill="#00615F"/>
<path d="M6.24624 58.98C5.67323 59.2174 5.60571 59.6949 6.10443 59.9828C8.8974 61.5954 13.168 61.9903 16.6935 60.962L23.0389 59.1114C24.4795 58.6912 24.7876 57.5808 23.6463 56.9219L18.4518 53.9229L6.24624 58.98Z" fill="#18DCD9"/>
<path d="M165.142 135.643L164.723 134.465C164.267 134.628 163.946 135.038 163.898 135.519C163.85 136 164.084 136.465 164.498 136.714L165.142 135.643ZM178.412 136.279L177.83 137.385L178.412 136.279ZM190.836 144.139L190.262 145.249C190.81 145.533 191.484 145.374 191.847 144.874C192.21 144.375 192.155 143.685 191.716 143.251L190.836 144.139ZM175.948 141.996L176.227 140.777L175.948 141.996ZM165.562 136.82C166.749 136.398 168.915 136.042 171.297 136.06C173.684 136.078 176.091 136.47 177.83 137.385L178.994 135.172C176.75 133.992 173.887 133.579 171.316 133.56C168.741 133.541 166.265 133.916 164.723 134.465L165.562 136.82ZM177.83 137.385C179.697 138.367 182.331 139.875 184.718 141.357C187.154 142.868 189.184 144.261 189.957 145.027L191.716 143.251C190.705 142.25 188.419 140.711 186.037 139.232C183.606 137.724 180.92 136.186 178.994 135.172L177.83 137.385ZM191.411 143.029C189.561 142.071 187.115 141.896 184.637 141.747C182.062 141.591 179.236 141.465 176.227 140.777L175.67 143.215C178.919 143.957 181.967 144.09 184.487 144.242C187.104 144.4 188.973 144.581 190.262 145.249L191.411 143.029ZM176.227 140.777C174.45 140.371 172.414 139.203 170.481 137.889C169.529 137.243 168.639 136.587 167.844 136.004C167.07 135.437 166.346 134.908 165.786 134.572L164.498 136.714C164.937 136.978 165.558 137.428 166.366 138.021C167.152 138.597 168.08 139.281 169.075 139.957C171.035 141.289 173.403 142.696 175.67 143.215L176.227 140.777Z" fill="#11171D"/>
<path d="M162.212 135.494L163.048 136.421C163.438 136.07 163.569 135.513 163.374 135.028C163.18 134.542 162.702 134.23 162.178 134.246L162.212 135.494ZM151.1 138.781L151.955 139.691L151.1 138.781ZM149.944 152.011L149.124 152.957C149.414 153.208 149.805 153.311 150.184 153.237C150.562 153.162 150.885 152.917 151.06 152.574L149.944 152.011ZM155.146 142.12L154.084 141.463L155.146 142.12ZM162.178 134.246C160.465 134.298 158.338 134.417 156.235 134.902C154.133 135.386 151.969 136.256 150.245 137.872L151.955 139.691C153.241 138.485 154.938 137.763 156.791 137.335C158.644 136.908 160.569 136.794 162.247 136.743L162.178 134.246ZM150.245 137.872C147.975 139.999 146.798 142.947 146.605 145.719C146.414 148.457 147.176 151.272 149.124 152.957L150.765 151.066C149.61 150.068 148.943 148.15 149.101 145.885C149.256 143.653 150.208 141.328 151.955 139.691L150.245 137.872ZM151.06 152.574C151.926 150.869 153.761 146.709 156.208 142.777L154.084 141.463C151.561 145.517 149.611 149.909 148.829 151.449L151.06 152.574ZM156.208 142.777C157.21 141.167 158.351 140.074 159.514 139.148C160.107 138.676 160.69 138.258 161.293 137.815C161.883 137.381 162.486 136.927 163.048 136.421L161.376 134.568C160.914 134.984 160.397 135.377 159.813 135.805C159.243 136.225 158.6 136.685 157.958 137.197C156.651 138.238 155.284 139.536 154.084 141.463L156.208 142.777Z" fill="#11171D"/>
<path d="M162.516 135.467L162.345 136.705C162.837 136.771 163.323 136.539 163.583 136.116C163.842 135.692 163.827 135.156 163.543 134.751L162.516 135.467ZM149.927 129.829L149.835 131.074L149.927 129.829ZM139.195 137.824L137.947 137.725C137.911 138.162 138.107 138.586 138.464 138.84C138.821 139.095 139.286 139.144 139.69 138.969L139.195 137.824ZM149.974 135.305L149.81 134.068L149.81 134.068L149.974 135.305ZM163.543 134.751C162.032 132.589 159.706 131.132 157.291 130.18C154.866 129.225 152.251 128.739 150.019 128.583L149.835 131.074C151.864 131.215 154.221 131.659 156.364 132.503C158.518 133.352 160.356 134.565 161.488 136.184L163.543 134.751ZM150.019 128.583C146.381 128.33 143.459 129.115 141.369 130.8C139.272 132.491 138.178 134.955 137.947 137.725L140.442 137.923C140.628 135.684 141.482 133.913 142.938 132.74C144.401 131.56 146.636 130.852 149.835 131.074L150.019 128.583ZM139.69 138.969C142.017 137.96 145.955 137.11 150.139 136.542L149.81 134.068C145.587 134.641 141.361 135.526 138.699 136.679L139.69 138.969ZM150.139 136.542C155.014 135.881 158.317 136.167 162.345 136.705L162.686 134.23C158.547 133.677 154.997 133.364 149.81 134.068L150.139 136.542Z" fill="#11171D"/>
<path fill-rule="evenodd" clip-rule="evenodd" d="M165.964 134.804C165.413 134.388 164.629 134.496 164.212 135.046C163.796 135.597 163.904 136.381 164.455 136.798C166.212 138.128 167.875 141.116 169.352 145.268C170.803 149.345 171.989 154.291 172.938 159.241C174.834 169.136 175.753 178.9 175.968 181.45C176.026 182.138 176.631 182.649 177.318 182.591C178.006 182.533 178.517 181.928 178.459 181.24C178.241 178.655 177.313 168.791 175.393 158.771C174.433 153.763 173.219 148.679 171.708 144.43C170.222 140.254 168.362 136.619 165.964 134.804ZM163.119 135.436C162.644 134.935 161.853 134.914 161.352 135.39C160.851 135.865 160.83 136.656 161.305 137.157C161.812 137.691 162.361 138.585 162.925 139.858C163.482 141.114 164.02 142.663 164.538 144.443C165.573 148.002 166.498 152.393 167.322 157.02C168.51 163.7 169.472 170.787 170.246 176.491C170.546 178.699 170.817 180.699 171.063 182.389C171.163 183.072 171.797 183.546 172.48 183.446C173.163 183.347 173.637 182.713 173.537 182.03C173.297 180.377 173.029 178.403 172.732 176.214L172.732 176.214L172.732 176.214C171.956 170.498 170.981 163.317 169.783 156.582C168.953 151.92 168.01 147.43 166.938 143.745C166.403 141.903 165.829 140.239 165.211 138.845C164.601 137.468 163.913 136.274 163.119 135.436Z" fill="#11171D"/>
<path d="M163.428 135.127L164.058 136.207C163.681 136.427 163.218 136.434 162.835 136.227C162.451 136.02 162.204 135.629 162.18 135.194L163.428 135.127ZM169.455 127.376L169.82 128.571L169.455 127.376ZM183.441 129.605L183.725 128.388C184.252 128.511 184.64 128.959 184.686 129.498C184.733 130.037 184.427 130.545 183.929 130.756L183.441 129.605ZM162.18 135.194C161.921 130.355 165.513 127.272 169.09 126.18L169.82 128.571C166.903 129.462 164.501 131.77 164.677 135.061L162.18 135.194ZM169.09 126.18C171.556 125.427 174.429 125.851 176.971 126.472C178.266 126.788 179.534 127.172 180.681 127.521C181.847 127.876 182.865 128.188 183.725 128.388L183.157 130.823C182.198 130.599 181.088 130.258 179.953 129.913C178.801 129.562 177.595 129.198 176.378 128.901C173.898 128.295 171.597 128.029 169.82 128.571L169.09 126.18ZM183.929 130.756C180.235 132.324 176.694 132.773 173.44 133.296C170.153 133.824 167.11 134.43 164.058 136.207L162.799 134.047C166.278 132.021 169.718 131.361 173.043 130.827C176.401 130.288 179.6 129.878 182.953 128.455L183.929 130.756Z" fill="#11171D"/>
<path d="M162.433 134.004L163.496 134.666C163.307 134.965 163 135.171 162.649 135.231C162.299 135.292 161.939 135.202 161.659 134.984L162.433 134.004ZM159.715 125.888L160.772 126.56L159.715 125.888ZM167.207 119.445L166.635 118.336C167.039 118.132 167.523 118.159 167.901 118.409C168.279 118.658 168.492 119.09 168.459 119.539L167.207 119.445ZM161.659 134.984C160.3 133.926 159.005 132.445 158.303 130.767C157.588 129.058 157.468 127.062 158.658 125.216L160.772 126.56C160.132 127.554 160.136 128.656 160.621 129.815C161.118 131.004 162.097 132.162 163.206 133.025L161.659 134.984ZM158.658 125.216C159.903 123.284 161.028 121.984 162.317 120.942C163.59 119.914 164.974 119.179 166.635 118.336L167.779 120.554C166.113 121.4 164.947 122.031 163.903 122.874C162.876 123.704 161.919 124.782 160.772 126.56L158.658 125.216ZM168.459 119.539C167.942 126.458 166.366 130.12 163.496 134.666L161.369 133.342C164.052 129.092 165.473 125.815 165.956 119.352L168.459 119.539Z" fill="#11171D"/>
<path d="M157.217 145.217C158.342 140.366 161.713 138.767 161.856 135.305C163.211 137.071 164.173 139.79 164.21 144.345C164.258 150.345 159.858 155.578 157.789 158.334C157.774 155.921 156.315 149.108 157.217 145.217Z" fill="#E8FEFE"/>
<path d="M161.856 135.305L162.847 134.544C162.527 134.127 161.98 133.955 161.478 134.114C160.977 134.272 160.629 134.728 160.607 135.254L161.856 135.305ZM157.217 145.217L158.435 145.5L157.217 145.217ZM157.789 158.334L156.539 158.342C156.542 158.878 156.887 159.353 157.397 159.521C157.906 159.689 158.466 159.513 158.789 159.084L157.789 158.334ZM164.21 144.345L165.46 144.335L164.21 144.345ZM160.607 135.254C160.553 136.567 159.91 137.544 158.879 139.026C157.874 140.47 156.621 142.255 156 144.935L158.435 145.5C158.938 143.329 159.933 141.888 160.931 140.454C161.902 139.059 163.016 137.506 163.105 135.357L160.607 135.254ZM156 144.935C155.496 147.107 155.663 149.974 155.916 152.456C156.044 153.717 156.203 154.939 156.325 155.963C156.452 157.017 156.536 157.822 156.539 158.342L159.039 158.326C159.035 157.639 158.93 156.687 158.808 155.664C158.681 154.611 158.528 153.434 158.403 152.203C158.148 149.703 158.036 147.219 158.435 145.5L156 144.935ZM158.789 159.084C159.791 157.75 161.478 155.664 162.883 153.169C164.29 150.669 165.486 147.639 165.46 144.335L162.96 144.355C162.982 147.051 162.002 149.638 160.704 151.943C159.403 154.254 157.856 156.163 156.789 157.583L158.789 159.084ZM165.46 144.335C165.422 139.616 164.424 136.598 162.847 134.544L160.864 136.066C161.999 137.545 162.925 139.964 162.96 144.355L165.46 144.335Z" fill="#11171D"/>
<path d="M174.45 162.564L172.202 163.555" stroke="#11171D" stroke-width="2.5" stroke-linecap="round" stroke-linejoin="round"/>
<path d="M172.951 156.121L171.453 157.112" stroke="#11171D" stroke-width="2.5" stroke-linecap="round" stroke-linejoin="round"/>
<path d="M175.042 168.511L173.544 169.502" stroke="#11171D" stroke-width="2.5" stroke-linecap="round" stroke-linejoin="round"/>
<path d="M172.202 150.669L170.454 151.66" stroke="#11171D" stroke-width="2.5" stroke-linecap="round" stroke-linejoin="round"/>
<path d="M170.454 144.474L168.955 145.217" stroke="#11171D" stroke-width="2.5" stroke-linecap="round" stroke-linejoin="round"/>
<path d="M168.706 139.766L167.207 140.509" stroke="#11171D" stroke-width="2.5" stroke-linecap="round" stroke-linejoin="round"/>
<defs>
<filter id="filter0_i_5980_149766" x="17.7993" y="50.2517" width="54.449" height="39.5371" filterUnits="userSpaceOnUse" color-interpolation-filters="sRGB">
<feFlood flood-opacity="0" result="BackgroundImageFix"/>
<feBlend mode="normal" in="SourceGraphic" in2="BackgroundImageFix" result="shape"/>
<feColorMatrix in="SourceAlpha" type="matrix" values="0 0 0 0 0 0 0 0 0 0 0 0 0 0 0 0 0 0 127 0" result="hardAlpha"/>
<feOffset dy="-8"/>
<feComposite in2="hardAlpha" operator="arithmetic" k2="-1" k3="1"/>
<feColorMatrix type="matrix" values="0 0 0 0 0.317813 0 0 0 0 0.941667 0 0 0 0 0.931269 0 0 0 1 0"/>
<feBlend mode="normal" in2="shape" result="effect1_innerShadow_5980_149766"/>
</filter>
</defs>
</svg>
