<svg width="200" height="201" viewBox="0 0 200 201" fill="none" xmlns="http://www.w3.org/2000/svg">
<path d="M104.95 54.6849L170.664 94.0245L72.9655 150.524L4.82723 110.579L104.95 54.6849Z" fill="#51F0ED"/>
<path d="M170.664 94.0245L72.9655 150.524L4.82723 110.579L4.82724 111.848L72.9655 151.793L170.664 95.2936L170.664 94.0245Z" fill="#51F0ED"/>
<path d="M102.444 54.4436L167.537 92.0249L73.0471 146.578L7.95434 108.997L102.444 54.4436Z" fill="#B1FCFB"/>
<path d="M167.537 92.0249L73.0471 146.578L7.95434 108.997L7.95434 110.209L73.0471 147.791L167.537 93.2372L167.537 92.0249Z" fill="#B1FCFB"/>
<path d="M102.444 53.2314L167.537 90.8128L73.0471 145.366L7.95434 107.785L102.444 53.2314Z" fill="#94FAF8"/>
<path d="M167.537 90.8128L73.0471 145.366L7.95434 107.785L7.95434 108.997L73.0471 146.579L167.537 92.0251L167.537 90.8128Z" fill="#94FAF8"/>
<path d="M102.444 52.0193L167.537 89.6006L73.0471 144.154L7.95434 106.573L102.444 52.0193Z" fill="#B1FCFB"/>
<path d="M167.537 89.6006L73.0471 144.154L7.95434 106.573L7.95434 107.785L73.0471 145.366L167.537 90.8129L167.537 89.6006Z" fill="#B1FCFB"/>
<path d="M102.444 50.8069L167.537 88.3882L73.0471 142.942L7.95434 105.36L102.444 50.8069Z" fill="#94FAF8"/>
<path d="M167.537 88.3882L73.0471 142.942L7.95434 105.36L7.95434 106.573L73.0471 144.154L167.537 89.6005L167.537 88.3882Z" fill="#94FAF8"/>
<path d="M102.444 49.5938L167.537 87.1751L73.0471 141.729L7.95434 104.147L102.444 49.5938Z" fill="#B1FCFB"/>
<path d="M167.537 87.1751L73.0471 141.729L7.95434 104.147L7.95434 105.36L73.0471 142.941L167.537 88.3874L167.537 87.1751Z" fill="#B1FCFB"/>
<path d="M102.444 48.3816L167.537 85.9629L73.0471 140.516L7.95434 102.935L102.444 48.3816Z" fill="#94FAF8"/>
<path d="M167.537 85.9629L73.0471 140.516L7.95434 102.935L7.95434 104.147L73.0471 141.729L167.537 87.1752L167.537 85.9629Z" fill="#94FAF8"/>
<path d="M102.444 47.1694L167.537 84.7508L73.0471 139.304L7.95434 101.723L102.444 47.1694Z" fill="#B1FCFB"/>
<path d="M167.537 84.7508L73.0471 139.304L7.95434 101.723L7.95434 102.935L73.0471 140.517L167.537 85.9631L167.537 84.7508Z" fill="#B1FCFB"/>
<path d="M102.444 45.9573L167.537 83.5386L73.0471 138.092L7.95434 100.511L102.444 45.9573Z" fill="#94FAF8"/>
<path d="M167.537 83.5386L73.0471 138.092L7.95434 100.511L7.95434 101.723L73.0471 139.304L167.537 84.7509L167.537 83.5386Z" fill="#94FAF8"/>
<path d="M104.025 42.2376L171.4 83.2757L73.7016 139.776L4.82033 101.089L104.025 42.2376Z" fill="#51F0ED"/>
<path d="M171.4 83.2757L73.7016 139.776L4.82033 101.089L4.82046 102.93L73.7016 141.045L171.4 84.5448L171.4 83.2757Z" fill="#51F0ED"/>
<path d="M107.178 57.5378L139.133 77.5089L121.474 88.2304L89.6046 69.0598L107.178 57.5378Z" fill="#94FAF8"/>
<path d="M103.703 66.4343C105.044 65.705 106.643 64.9575 107.989 66.0482C110.126 67.78 108.838 69.9829 110.185 71.5402C111.911 73.5359 115.132 70.6713 117.187 72.5151C118.582 73.7664 118.61 75.8339 119.277 76.8344C120.542 78.7318 124.782 78.308 126.603 77.8527" stroke="#11171D" stroke-width="2.5" stroke-linecap="round"/>
<circle r="2.15491" transform="matrix(0.866025 0.5 -0.866025 0.5 22.9861 94.786)" fill="#04AFAC"/>
<path d="M12.03 92.117H10.78H12.03ZM18.1329 88.5935L18.7579 87.511V87.511L18.1329 88.5935ZM21.8467 95.1308C22.1127 95.7679 22.8448 96.0687 23.4818 95.8026C24.1189 95.5366 24.4196 94.8045 24.1536 94.1675L21.8467 95.1308ZM13.28 92.117C13.28 90.434 13.8612 89.5842 14.4425 89.2486C15.0238 88.9129 16.0504 88.8345 17.5079 89.6761L18.7579 87.511C16.8449 86.4065 14.82 86.1439 13.1925 87.0835C11.565 88.0231 10.78 89.9081 10.78 92.117H13.28ZM17.5079 89.6761C19.3602 90.7455 20.8283 92.6922 21.8467 95.1308L24.1536 94.1675C23.0068 91.4212 21.2419 88.9451 18.7579 87.511L17.5079 89.6761ZM13.9238 95.4843C13.3015 94.4536 13.28 93.4293 13.28 92.117H10.78C10.78 93.3837 10.7585 95.0786 11.7836 96.7764L13.9238 95.4843Z" fill="#11171D"/>
<circle r="2.15491" transform="matrix(0.866025 0.5 -0.866025 0.5 86.501 57.1139)" fill="#04AFAC"/>
<path d="M75.6436 54.5318H74.3936H75.6436ZM81.7464 51.0083L82.3714 49.9258V49.9258L81.7464 51.0083ZM85.4602 57.5456C85.7262 58.1827 86.4583 58.4835 87.0953 58.2174C87.7324 57.9514 88.0332 57.2193 87.7671 56.5823L85.4602 57.5456ZM76.8936 54.5318C76.8936 52.8488 77.4747 51.999 78.056 51.6634C78.6374 51.3277 79.6639 51.2493 81.1214 52.0908L82.3714 49.9258C80.4584 48.8213 78.4335 48.5587 76.806 49.4983C75.1786 50.4379 74.3936 52.3229 74.3936 54.5318H76.8936ZM81.1214 52.0908C82.9738 53.1603 84.4419 55.107 85.4602 57.5456L87.7671 56.5823C86.6203 53.836 84.8554 51.3599 82.3714 49.9258L81.1214 52.0908ZM77.5373 57.8991C76.915 56.8684 76.8936 55.8441 76.8936 54.5318H74.3936C74.3936 55.7985 74.3721 57.4934 75.3971 59.1912L77.5373 57.8991Z" fill="#11171D"/>
<circle r="2.15491" transform="matrix(0.866025 0.5 -0.866025 0.5 32.0911 89.2924)" fill="#04AFAC"/>
<path d="M21.2336 86.7103H19.9836H21.2336ZM27.3365 83.1868L27.9615 82.1042V82.1042L27.3365 83.1868ZM31.0503 89.7241C31.3163 90.3611 32.0484 90.6619 32.6854 90.3959C33.3225 90.1299 33.6233 89.3978 33.3572 88.7608L31.0503 89.7241ZM22.4836 86.7103C22.4836 85.0273 23.0648 84.1775 23.6461 83.8418C24.2275 83.5062 25.254 83.4278 26.7115 84.2693L27.9615 82.1042C26.0485 80.9998 24.0236 80.7372 22.3961 81.6768C20.7687 82.6164 19.9836 84.5013 19.9836 86.7103H22.4836ZM26.7115 84.2693C28.5639 85.3388 30.032 87.2855 31.0503 89.7241L33.3572 88.7608C32.2104 86.0145 30.4455 83.5384 27.9615 82.1042L26.7115 84.2693ZM23.1274 90.0776C22.5051 89.0469 22.4836 88.0225 22.4836 86.7103H19.9836C19.9836 87.977 19.9622 89.6719 20.9872 91.3697L23.1274 90.0776Z" fill="#11171D"/>
<circle r="2.15491" transform="matrix(0.866025 0.5 -0.866025 0.5 95.7046 51.7072)" fill="#04AFAC"/>
<path d="M84.8472 49.1251H83.5972H84.8472ZM90.95 45.6016L91.575 44.519V44.519L90.95 45.6016ZM94.6638 52.1389C94.9298 52.7759 95.6619 53.0767 96.299 52.8107C96.936 52.5447 97.2368 51.8126 96.9708 51.1756L94.6638 52.1389ZM86.0972 49.1251C86.0972 47.4421 86.6783 46.5923 87.2597 46.2566C87.841 45.921 88.8675 45.8426 90.325 46.6841L91.575 44.519C89.662 43.4146 87.6371 43.152 86.0097 44.0916C84.3822 45.0312 83.5972 46.9161 83.5972 49.1251H86.0972ZM90.325 46.6841C92.1774 47.7536 93.6455 49.7003 94.6638 52.1389L96.9708 51.1756C95.824 48.4293 94.059 45.9532 91.575 44.519L90.325 46.6841ZM86.7409 52.4924C86.1186 51.4617 86.0972 50.4373 86.0972 49.1251H83.5972C83.5972 50.3918 83.5757 52.0867 84.6007 53.7845L86.7409 52.4924Z" fill="#11171D"/>
<path d="M100.103 162.252L185.876 111.802C186.888 113.398 188.883 117.591 188.766 121.604L109.73 168.091L102.048 167.064C101.828 165.687 101.131 162.797 100.103 162.252Z" fill="#18DCD9"/>
<path d="M100.103 162.252L185.876 111.802C184.974 110.142 182.278 106.361 178.714 104.514L99.6776 151.001L96.8427 158.213C97.9389 159.075 100.126 161.088 100.103 162.252Z" fill="#94FAF8"/>
<path d="M102.055 167.076C102.316 163.383 100.19 159.768 96.8359 158.202L93.3652 166.215L102.055 167.076Z" fill="#04AFAC"/>
<path d="M188.607 121.698C188.054 112.242 181.675 106.364 178.555 104.608L186.031 100.21C193.955 105.165 196.034 113.668 196.083 117.3L188.607 121.698Z" fill="#04AFAC"/>
</svg>
