<svg width="361" height="320" viewBox="0 0 361 320" fill="none" xmlns="http://www.w3.org/2000/svg">
<path d="M73.7818 182.785C42.8662 164.936 42.8663 135.997 73.7819 118.147C104.697 100.298 154.821 100.298 185.737 118.147L292.907 180.022C323.823 197.871 323.822 226.81 292.907 244.659C261.991 262.508 211.867 262.508 180.952 244.659L73.7818 182.785Z" stroke="#51F0ED" stroke-width="32.5434" stroke-linecap="round" stroke-linejoin="round"/>
<path fill-rule="evenodd" clip-rule="evenodd" d="M59.6137 110.01C20.9155 132.353 20.9156 168.577 59.6138 190.919L166.784 252.794C205.482 275.136 268.224 275.136 306.922 252.794C345.62 230.451 345.62 194.227 306.922 171.885L199.752 110.01C161.054 87.6678 98.3119 87.6678 59.6137 110.01ZM278.428 188.336L172.02 118.731C149.059 105.475 107.753 108.22 84.7915 121.477C61.8301 134.733 65.1461 161.212 88.1076 174.468L195.277 236.343C218.239 249.6 255.467 249.6 278.428 236.343C301.39 223.086 301.39 201.593 278.428 188.336Z" fill="#94FAF8"/>
<path fill-rule="evenodd" clip-rule="evenodd" d="M278.505 188.337L171.335 126.463C159.876 119.847 144.863 116.533 129.843 116.52V109.096C97.3639 98.5686 26.885 145.496 88.1843 174.47L195.354 236.345C218.316 249.601 255.544 249.601 278.505 236.345C301.466 223.088 301.466 201.594 278.505 188.337ZM59.6904 190.921L166.86 252.796C205.558 275.138 268.301 275.138 306.999 252.796C345.697 230.453 345.697 194.229 306.999 171.886L199.829 110.012C180.501 98.853 155.175 93.2674 129.843 93.2551C44.6239 93.214 -2.02539 155.289 59.6904 190.921Z" fill="#94FAF8"/>
<path fill-rule="evenodd" clip-rule="evenodd" d="M306.998 171.885C345.696 194.227 345.696 230.451 306.998 252.794C287.626 263.978 262.228 269.564 236.838 269.551L235.631 243.422C235.631 243.422 277.272 241.899 293.255 224.935C307.932 209.359 306.998 171.885 306.998 171.885Z" fill="#51F0ED"/>
<path fill-rule="evenodd" clip-rule="evenodd" d="M278.738 181.475L171.568 119.601C148.435 106.245 110.929 106.245 87.7964 119.601C64.6635 132.957 64.6635 154.611 87.7964 167.966L194.966 229.841C218.099 243.197 255.605 243.197 278.738 229.841C301.871 216.485 301.871 194.831 278.738 181.475ZM59.613 103.329C20.9148 125.672 20.9148 161.896 59.613 184.238L166.783 246.113C205.481 268.455 268.223 268.455 306.921 246.113C345.62 223.77 345.62 187.546 306.922 165.204L199.752 103.329C161.053 80.9867 98.3112 80.9867 59.613 103.329Z" fill="#B1FCFB"/>
<path d="M61.9 181.978C25.6931 161.074 25.6932 127.181 61.9 106.277C98.1069 85.3734 156.81 85.3734 193.017 106.277L299.81 167.935C336.017 188.839 336.017 222.731 299.81 243.635C263.603 264.539 204.9 264.539 168.694 243.635L61.9 181.978Z" stroke="#11171D" stroke-width="4" stroke-linecap="round" stroke-linejoin="round"/>
<path d="M80.2359 170.553C54.5568 155.727 54.5568 131.69 80.2359 116.864C105.915 102.038 147.549 102.038 173.228 116.864L281.474 179.36C307.153 194.185 307.153 218.223 281.474 233.049C255.795 247.875 214.161 247.875 188.482 233.049L80.2359 170.553Z" stroke="#11171D" stroke-width="4" stroke-linecap="round" stroke-linejoin="round"/>
<line x1="175.61" y1="117.324" x2="192.815" y2="107.391" stroke="#11171D" stroke-width="4" stroke-linecap="round" stroke-linejoin="round"/>
<path d="M338.566 105.715L306.971 123.356V138.486L338.566 120.845V105.715Z" fill="#18DCD9"/>
<path d="M256.559 57.6921L225.523 75.1902L307.037 123.314L338.632 105.673L256.559 57.6921Z" fill="#B1FCFB"/>
<path d="M307.032 123.296L225.524 75.1812V91.1002L307.032 138.426V123.296Z" fill="#51F0ED"/>
<path d="M338.554 90.6658L314.889 104.034V119.165L338.554 105.797V90.6658Z" fill="#18DCD9"/>
<path d="M257.69 41.8552L232.75 55.4695L310.561 100.752L334.236 87.6366L257.69 41.8552Z" fill="#B1FCFB"/>
<path d="M314.903 103.809L232.747 55.4622V71.3812L314.903 118.94V103.809Z" fill="#51F0ED"/>
<path d="M255.423 26.3062L242.398 34.6183L322.935 84.8174L338.552 75.6148L255.423 26.3062Z" fill="#B1FCFB"/>
<path d="M325.731 83.9895L242.398 34.6255V50.4111L325.731 99.1203V83.9895Z" fill="#51F0ED"/>
<path d="M338.549 75.5977L325.066 83.5994V98.7301L338.549 90.7284V75.5977Z" fill="#18DCD9"/>
<rect width="31.6352" height="35.7274" transform="matrix(0.866025 0.5 -0.866025 0.5 137.817 137.86)" fill="#CCFDFD"/>
<rect width="35.727" height="8.93533" transform="matrix(0.866025 -0.5 2.20305e-08 1 134.273 171.54)" fill="#51F0ED"/>
<rect width="31.3825" height="8.93533" transform="matrix(0.866025 0.5 -2.20305e-08 1 107.095 155.85)" fill="#94FAF8"/>
<line x1="111.163" y1="167.631" x2="111.163" y2="141.949" stroke="#11171D" stroke-width="4" stroke-linecap="round" stroke-linejoin="round"/>
<line x1="127.65" y1="158.158" x2="112.377" y2="150.11" stroke="#11171D" stroke-width="4" stroke-linecap="round" stroke-linejoin="round"/>
<rect width="16.6528" height="5.87888" transform="matrix(0.866025 0.5 -0.866025 0.5 113.859 159.754)" fill="#CCFDFD"/>
<rect width="5.8812" height="8.93533" transform="matrix(0.866025 -0.5 2.20305e-08 1 123.187 170.957)" fill="#51F0ED"/>
<rect width="16.653" height="8.93533" transform="matrix(0.866025 0.5 -2.20305e-08 1 108.767 162.605)" fill="#94FAF8"/>
<line x1="128.352" y1="177.559" x2="128.352" y2="151.877" stroke="#11171D" stroke-width="4" stroke-linecap="round" stroke-linejoin="round"/>
<rect width="31.6352" height="35.7274" transform="matrix(0.866025 0.5 -0.866025 0.5 196.026 173.53)" fill="#CCFDFD"/>
<rect width="35.727" height="8.93533" transform="matrix(0.866025 -0.5 2.20305e-08 1 192.482 207.211)" fill="#51F0ED"/>
<rect width="31.3825" height="8.93533" transform="matrix(0.866025 0.5 -2.20305e-08 1 165.305 191.52)" fill="#94FAF8"/>
<line x1="169.373" y1="203.301" x2="169.373" y2="177.619" stroke="#11171D" stroke-width="4" stroke-linecap="round" stroke-linejoin="round"/>
<line x1="185.86" y1="193.826" x2="170.587" y2="185.778" stroke="#11171D" stroke-width="4" stroke-linecap="round" stroke-linejoin="round"/>
<rect width="16.6528" height="5.87888" transform="matrix(0.866025 0.5 -0.866025 0.5 172.069 195.424)" fill="#CCFDFD"/>
<rect width="5.8812" height="8.93533" transform="matrix(0.866025 -0.5 2.20305e-08 1 181.397 206.627)" fill="#51F0ED"/>
<rect width="16.653" height="8.93533" transform="matrix(0.866025 0.5 -2.20305e-08 1 166.977 198.275)" fill="#94FAF8"/>
<line x1="186.561" y1="213.227" x2="186.561" y2="187.545" stroke="#11171D" stroke-width="4" stroke-linecap="round" stroke-linejoin="round"/>
<path d="M34.7158 94.4009C34.9179 86.5495 34.7158 77.8464 34.7158 62.8684" stroke="#11171D" stroke-width="4" stroke-linecap="round" stroke-linejoin="round"/>
<path d="M42.5992 57.7453L34.519 62.6722C34.519 62.6722 26.5052 66.8156 24.468 68.1904L26.2129 52.8183C26.2129 52.8183 42.5436 43.4944 43.7528 42.7673L42.5992 57.7453Z" fill="#E8FEFE" stroke="#11171D" stroke-width="4" stroke-linejoin="round"/>
<path d="M330.728 262.706C330.728 256.596 331.066 235.287 330.728 231.173" stroke="#11171D" stroke-width="4" stroke-linecap="round" stroke-linejoin="round"/>
<path d="M338.611 226.05L330.531 230.977C330.531 230.977 323.543 234.442 320.48 236.495L318.735 221.123C318.735 221.123 332.519 212.72 336.275 211.072L338.611 226.05Z" stroke="#11171D" stroke-width="4" stroke-linejoin="round"/>
</svg>
