<svg width="200" height="201" viewBox="0 0 200 201" fill="none" xmlns="http://www.w3.org/2000/svg">
<path d="M162.11 176.214C179.371 166.38 187.947 153.471 187.835 140.582V131.418H99.9998V190.87C122.479 190.87 144.958 185.985 162.11 176.214Z" fill="#51F0ED"/>
<path d="M37.8899 176.214C20.6281 166.38 12.0529 153.471 12.1642 140.582V131.418H99.9998V190.87C77.5204 190.87 55.0411 185.985 37.8899 176.214Z" fill="#94FAF8"/>
<path d="M162.11 166.231C127.807 186.021 72.1921 186.021 37.8898 166.231C3.5875 146.441 3.58751 114.356 37.8898 94.566C72.1922 74.7762 127.807 74.7762 162.11 94.566C196.412 114.356 196.412 146.441 162.11 166.231Z" fill="#B1FCFB"/>
<rect width="61.4214" height="61.4214" transform="matrix(0.866025 -0.5 2.20305e-08 1 100 101.597)" fill="#18DCD9"/>
<rect width="61.4214" height="61.4214" transform="matrix(0.866025 0.5 -2.20305e-08 1 46.7788 70.8853)" fill="#51F0ED"/>
<path d="M40.8245 62.4885L99.9259 96.6148L99.9259 112.539L40.8245 78.4126L40.8245 62.4885Z" fill="#94FAF8"/>
<rect width="68.246" height="15.9241" transform="matrix(0.866025 -0.5 2.20305e-08 1 99.9272 96.6111)" fill="#51F0ED"/>
<rect width="68.246" height="68.246" transform="matrix(0.866025 0.5 -0.866025 0.5 99.9097 28.3652)" fill="#B1FCFB"/>
<rect width="13.6492" height="3.4123" transform="matrix(0.866025 0.5 -2.20305e-08 1 74.3176 67.012)" fill="#94FAF8"/>
<rect width="45.4973" height="3.4123" transform="matrix(0.866025 -0.5 2.20305e-08 1 86.1382 73.8367)" fill="#51F0ED"/>
<rect width="13.6492" height="45.4973" transform="matrix(0.866025 0.5 -0.866025 0.5 113.719 44.2632)" fill="#CCFDFD"/>
<rect width="4.54973" height="34.6917" transform="matrix(-0.866025 -0.5 -0.866025 0.5 116.963 51.5156)" fill="#0D8C8A"/>
<mask id="mask0_5980_150018" style="mask-type:alpha" maskUnits="userSpaceOnUse" x="82" y="49" width="35" height="20">
<rect width="4.54973" height="34.6917" transform="matrix(-0.866025 -0.5 -0.866025 0.5 116.963 51.5159)" fill="#04AFAC"/>
</mask>
<g mask="url(#mask0_5980_150018)">
<rect x="113.022" y="49.1831" width="4.83409" height="3.98101" fill="#04AFAC"/>
<rect width="4.54973" height="35.3212" transform="matrix(-0.866025 -0.5 -0.866025 0.5 116.963 54.3599)" fill="#00615F"/>
</g>
<path d="M91.4251 46.4186C91.4251 46.4186 88.9547 45.0571 88.2674 44.585C86.026 43.0454 84.6589 40.0632 84.6589 35.9231C84.6589 27.1208 90.8386 16.4174 98.4616 12.0162C102.153 9.88499 105.506 9.62243 107.983 10.918L111.592 13.0072" stroke="#11171D" stroke-width="2.5" stroke-linecap="round" stroke-linejoin="round"/>
<path d="M101.637 13.855C96.3258 16.9217 91.7149 23.0482 89.4071 29.4593C88.4029 32.2492 87.8347 35.093 87.8347 37.7619C87.8347 46.5642 94.0144 50.132 101.637 45.7309C109.26 41.3297 115.44 30.6263 115.44 21.824C115.44 17.2909 113.801 14.146 111.17 12.7629" stroke="#11171D" stroke-width="2.5" stroke-linecap="round" stroke-linejoin="round"/>
<rect width="4.50345" height="45.4973" transform="matrix(0.866025 0.5 -0.866025 0.5 121.64 48.8372)" fill="#CCFDFD"/>
<path d="M96.8525 30.7471C96.8525 25.7856 101.427 22.4335 102.917 25.414C104.407 20.7134 108.982 18.7828 108.982 23.7443C108.982 28.7058 104.636 35.0025 102.917 37.1524C101.199 36.9869 96.8525 35.7086 96.8525 30.7471Z" stroke="#11171D" stroke-width="2.5" stroke-linecap="round" stroke-linejoin="round"/>
<path d="M115.54 120.975C115.54 111.32 124.46 104.797 127.364 110.597C130.269 101.449 139.188 97.6926 139.188 107.347C139.188 117.002 130.715 129.255 127.364 133.439C124.014 133.117 115.54 130.629 115.54 120.975Z" fill="#94FAF8"/>
<path d="M117.567 121.651C117.567 111.996 126.487 105.473 129.391 111.273C132.296 102.125 141.215 98.3686 141.215 108.023C141.215 117.678 132.742 129.931 129.391 134.115C126.041 133.793 117.567 131.305 117.567 121.651Z" fill="#51F0ED"/>
<path d="M73.5595 120.44L60.9535 112.855M73.5595 120.44L76.5702 109.639M73.5595 120.44L70.5487 131.241M60.9535 112.855L63.9643 102.054M60.9535 112.855L57.9428 123.656M54.9321 134.457L67.538 142.042M54.9321 134.457L57.9428 123.656M54.9321 134.457L51.9214 145.258M67.538 142.042L70.5487 131.241M67.538 142.042L64.5273 152.843M66.975 91.2527L79.5809 98.8378M66.975 91.2527L69.9857 80.4516M66.975 91.2527L63.9643 102.054M79.5809 98.8378L82.5916 88.0368M79.5809 98.8378L76.5702 109.639M85.6024 77.2357L82.5916 88.0368M82.5916 88.0368L69.9857 80.4516M69.9857 80.4516L72.9964 69.6506M63.9643 102.054L76.5702 109.639M57.9428 123.656L70.5487 131.241M48.9106 156.059L51.9214 145.258M51.9214 145.258L64.5273 152.843M64.5273 152.843L61.5166 163.644" stroke="#11171D" stroke-width="2.5" stroke-linecap="round" stroke-linejoin="round"/>
</svg>
