<svg width="200" height="201" viewBox="0 0 200 201" fill="none" xmlns="http://www.w3.org/2000/svg">
<path d="M28.3762 131.796L99.9557 173.286L100.018 125.281L28.3762 125.276V131.796Z" fill="#51F0ED"/>
<path d="M171.659 131.874V125.285L100.018 125.28L99.9558 173.286L171.659 131.874Z" fill="#18DCD9"/>
<rect width="82.7478" height="82.7478" transform="matrix(0.866025 -0.5 0.866025 0.5 28.3381 125.284)" fill="#B1FCFB"/>
<rect width="48.5575" height="48.5575" transform="matrix(0.866025 -0.5 0.866025 0.5 58.061 98.4707)" fill="#0D8C8A"/>
<path d="M100.113 122.75L142.165 98.471L142.165 127.335L100.113 151.614L100.113 122.75Z" fill="#18DCD9"/>
<path d="M58.061 98.4709L100.113 122.75L100.113 151.614L58.061 127.335L58.061 98.4709Z" fill="#51F0ED"/>
<path d="M58.3109 86.1153L100.164 60.873L142.135 86.0381L100.108 110.316L58.3109 86.1153Z" fill="#94FAF8"/>
<path d="M100.113 110.31L142.137 86.0384L142.137 96.0267L100.113 120.298L100.113 110.31Z" fill="#18DCD9"/>
<path d="M58.3032 86.1194L100.113 110.31L100.113 120.298L58.3032 96.1076L58.3032 86.1194Z" fill="#51F0ED"/>
<path d="M87.4002 37.1549C83.5741 51.3296 86.3367 71.0502 93.5705 81.2019C100.804 91.3536 109.77 88.0923 113.596 73.9175C117.422 59.7428 114.66 40.0223 107.426 29.8706C100.192 19.7188 91.2262 22.9801 87.4002 37.1549Z" stroke="#11171D" stroke-width="2.5" stroke-linecap="round" stroke-linejoin="round"/>
<path d="M126.388 35.9443C129.179 37.8854 129.758 41.4883 127.483 46.4088C122.585 57.0061 106.309 69.7024 91.1308 74.7666C81.4424 77.9992 74.5427 77.3409 72.0928 73.6858" stroke="#11171D" stroke-width="2.5" stroke-linecap="round" stroke-linejoin="round"/>
<path d="M74.0083 42.7784C80.8094 41.1464 92.0072 42.3139 102.978 45.4036C108.321 46.9084 113.61 48.869 118.312 51.1842C127.544 55.7307 132.261 60.5373 131.761 64.0344" stroke="#11171D" stroke-width="2.5" stroke-linecap="round" stroke-linejoin="round"/>
<mask id="mask0_5980_49612" style="mask-type:alpha" maskUnits="userSpaceOnUse" x="81" y="35" width="38" height="38">
<circle cx="100.099" cy="54.188" r="18.4627" fill="#04AFAC"/>
</mask>
<g mask="url(#mask0_5980_49612)">
<circle cx="100.099" cy="54.188" r="18.4627" fill="#04AFAC"/>
<path d="M121.465 46.2848C121.465 56.437 111.899 64.667 100.099 64.667C88.2985 64.667 78.7324 56.437 78.7324 46.2848C78.7324 36.1326 88.2985 27.9026 100.099 27.9026C111.899 27.9026 121.465 36.1326 121.465 46.2848Z" fill="#18DCD9"/>
<circle cx="100.099" cy="35.3257" r="18.4627" fill="#51F0ED"/>
</g>
<path d="M131.761 64.0341C131.484 65.9745 129.601 67.5119 125.992 68.3779C115.879 70.8047 96.0435 67.0414 81.6886 59.9722C71.6135 55.0106 66.9159 49.7392 68.5069 46.1979C69.1827 44.6937 70.9933 43.5016 74.0084 42.7781" stroke="#11171D" stroke-width="2.5" stroke-linecap="round" stroke-linejoin="round"/>
<path d="M126.388 35.9441C123.167 33.7047 117 33.6772 108.869 36.39C93.6907 41.4543 77.4151 54.1505 72.5168 64.7479C70.745 68.5809 70.7044 71.6144 72.0927 73.6856" stroke="#11171D" stroke-width="2.5" stroke-linecap="round" stroke-linejoin="round"/>
<path d="M87.4002 37.155C83.5741 51.3298 86.3367 71.0503 93.5705 81.202C100.804 91.3537 109.77 88.0924 113.596 73.9177" stroke="#11171D" stroke-width="2.5" stroke-linecap="round" stroke-linejoin="round"/>
<rect width="18.5814" height="18.5814" transform="matrix(0.866025 -0.5 0.866025 0.5 161.972 63.2908)" fill="#B1FCFB"/>
<path d="M178.064 72.5815L194.156 63.2908L194.156 81.7901L178.064 91.0808L178.064 72.5815Z" fill="#51F0ED"/>
<path d="M161.972 63.291L178.064 72.5817L178.064 91.081L161.972 81.7903L161.972 63.291Z" fill="#94FAF8"/>
<path d="M145.5 110C146.497 109.088 152.222 105.404 155.477 103.332C156.881 102.438 157.719 100.881 157.684 99.217L157.476 89.1391C157.435 87.1932 158.588 85.4221 160.351 84.5971C163.592 83.0804 168.714 80.4783 171.5 78" stroke="#11171D" stroke-width="2.5" stroke-linecap="round" stroke-linejoin="round"/>
<path fill-rule="evenodd" clip-rule="evenodd" d="M49.5497 157.43C45.5287 155.427 40.5876 154.45 35.6964 154.45C30.305 154.45 24.853 155.637 20.6395 158.077C18.6297 159.24 17.0423 160.612 15.9324 162.118C15.9815 162.158 16.0312 162.198 16.0816 162.239C16.5784 162.636 17.1327 163.023 17.7463 163.395C17.7534 163.399 17.7604 163.403 17.7675 163.407C18.6547 162.213 19.9689 161.057 21.7633 160.018C25.5551 157.822 30.5954 156.693 35.6964 156.693C40.3926 156.693 45.0374 157.65 48.7038 159.515C49.1228 158.82 49.4 158.12 49.5497 157.43ZM18.0276 171.804C18.5566 172.452 19.2149 173.087 20.0114 173.697C20.5364 174.099 21.1199 174.488 21.7633 174.86C22.4817 175.276 23.2464 175.655 24.0498 175.995C25.6035 176.653 27.2971 177.166 29.0725 177.529C30.612 177.844 32.2089 178.046 33.8238 178.134C36.1742 178.263 38.5553 178.149 40.844 177.794C43.3416 177.407 45.7159 176.735 47.8146 175.789C48.4468 175.504 49.053 175.194 49.6294 174.86C50.929 174.108 51.9827 173.288 52.8032 172.436C54.3649 170.814 55.0739 169.089 55.0739 167.439C55.0739 165.819 54.3811 164.104 52.8578 162.498C52.9843 161.884 53.049 161.262 53.049 160.633V159.64C55.8081 161.86 57.3168 164.576 57.3168 167.439V171.755C57.3168 174.09 56.303 176.35 54.4189 178.307C53.4331 179.331 52.207 180.275 50.7532 181.117C50.1075 181.491 49.4337 181.835 48.7368 182.149C46.428 183.19 43.8547 183.913 41.1874 184.326C38.7407 184.705 36.2036 184.826 33.7017 184.69C31.9818 184.596 30.2751 184.38 28.6227 184.042C26.7182 183.652 24.8805 183.098 23.1752 182.376C22.2926 182.002 21.4442 181.583 20.6395 181.117C19.9186 180.7 19.2545 180.257 18.6482 179.793C15.6993 177.536 14.0759 174.716 14.0759 171.755L14.0759 169.389C14.6677 169.856 15.3107 170.301 16.0041 170.72C16.6531 171.113 17.3294 171.474 18.0276 171.804ZM54.7325 173.654L54.7763 173.605C54.7622 173.648 54.7477 173.692 54.7325 173.736V173.654ZM52.4897 175.669V177.064C51.7196 177.804 50.7691 178.516 49.6294 179.176C49.5525 179.22 49.4751 179.264 49.3971 179.308V177.523C49.8611 177.296 50.3137 177.056 50.7532 176.801C51.3738 176.442 51.953 176.064 52.4897 175.669ZM47.1543 178.483V180.389C45.5983 181.032 43.9068 181.531 42.1372 181.882V179.85C43.8752 179.529 45.5637 179.074 47.1543 178.483ZM39.8943 180.186V182.242C38.2477 182.448 36.5628 182.531 34.8842 182.491V180.419C36.5597 180.456 38.2423 180.379 39.8943 180.186ZM32.6413 180.301V182.365C31.4303 182.256 30.235 182.083 29.0725 181.845C27.5544 181.534 26.0961 181.114 24.734 180.587V178.662C25.9822 179.098 27.286 179.453 28.6227 179.726C29.9349 179.995 31.2812 180.186 32.6413 180.301ZM22.4911 177.758V179.576C22.2436 179.447 22.0009 179.313 21.7633 179.176C21.1201 178.804 20.5367 178.414 20.0114 178.012C18.1999 176.625 17.1034 175.109 16.6169 173.605C17.2003 174.262 17.8792 174.889 18.6482 175.478C19.2547 175.942 19.9189 176.384 20.6395 176.801C21.2341 177.146 21.8526 177.464 22.4911 177.758Z" fill="#11171D"/>
<path d="M45.9515 165.955C45.3404 166.32 44.7004 166.657 44.0359 166.966C41.8321 167.99 39.3583 168.709 36.7759 169.121C34.4081 169.499 31.949 169.62 29.5229 169.484C27.8555 169.39 26.2037 169.175 24.6078 168.838C22.7678 168.45 21.0022 167.9 19.3727 167.189C18.5297 166.821 17.7231 166.41 16.9615 165.955C16.2796 165.549 15.6557 165.12 15.09 164.674C12.335 162.501 10.9575 159.904 10.9575 157.307C10.9575 154.177 12.9589 151.047 16.9615 148.658C24.9669 143.882 37.9461 143.882 45.9515 148.658C49.9542 151.047 51.9555 154.177 51.9555 157.307C51.9555 159.361 51.0941 161.414 49.3713 163.258C48.4681 164.225 47.3282 165.134 45.9515 165.955Z" fill="#E8FEFE"/>
<path d="M51.9555 157.307C51.9555 154.177 49.9542 151.047 45.9515 148.658C37.9461 143.882 24.9669 143.882 16.9615 148.658C12.9589 151.047 10.9575 154.177 10.9575 157.307M51.9555 157.307V161.755C51.9555 163.808 51.0941 165.862 49.3713 167.706C48.4681 168.673 47.3282 169.582 45.9515 170.403C45.3404 170.768 44.7004 171.104 44.0359 171.413M51.9555 157.307C51.9555 159.361 51.0941 161.414 49.3713 163.258C48.4681 164.225 47.3282 165.134 45.9515 165.955C45.3404 166.32 44.7004 166.657 44.0359 166.966M10.9575 157.307L10.9575 161.755C10.9575 164.351 12.3351 166.948 15.09 169.121M10.9575 157.307C10.9575 159.904 12.335 162.501 15.09 164.674M15.09 164.674C15.6557 165.12 16.2796 165.549 16.9615 165.955C17.7231 166.41 18.5297 166.821 19.3727 167.189C21.0022 167.9 22.7678 168.45 24.6078 168.838M15.09 164.674V169.121M15.09 169.121C15.6558 169.567 16.2795 169.996 16.9615 170.403C17.7231 170.857 18.5297 171.269 19.3727 171.637C21.0022 172.348 22.7678 172.897 24.6078 173.286M24.6078 168.838V173.286M24.6078 168.838C26.2037 169.175 27.8555 169.39 29.5229 169.484C31.949 169.62 34.4081 169.499 36.7759 169.121M24.6078 173.286C26.2037 173.622 27.8555 173.837 29.5229 173.931C31.949 174.068 34.4081 173.947 36.7759 173.569M36.7759 169.121V173.569M36.7759 169.121C39.3583 168.709 41.8321 167.99 44.0359 166.966M36.7759 173.569C39.3583 173.156 41.8321 172.438 44.0359 171.413M44.0359 166.966V171.413" stroke="#11171D" stroke-width="2.5" stroke-linecap="round" stroke-linejoin="round"/>
<path d="M22.6392 151.202L40.8687 161.881" stroke="#11171D" stroke-width="2.5" stroke-linecap="round" stroke-linejoin="round"/>
<path d="M41.2227 161.97C40.8821 162.166 40.33 162.166 39.9895 161.97L21.9727 151.568C21.6321 151.371 21.6321 151.052 21.9727 150.856C22.3132 150.659 22.8653 150.659 23.2059 150.856L41.2227 161.258C41.5632 161.454 41.5632 161.773 41.2227 161.97ZM36.3524 162.559C35.2796 163.178 33.5403 163.178 32.4676 162.559L20.9524 155.911C19.8796 155.291 19.8796 154.287 20.9524 153.668L24.394 151.681C25.4667 151.061 26.537 150.658 27.6048 150.469C28.6676 150.278 29.6802 150.264 30.6427 150.426C31.6002 150.585 32.4549 150.882 33.2068 151.316C33.8686 151.698 34.2972 152.082 34.4927 152.466C34.6932 152.849 34.7283 153.222 34.598 153.587C34.4726 153.948 34.2496 154.291 33.9287 154.615L34.0791 154.702C34.5804 154.448 35.2196 154.27 35.9966 154.168C36.7736 154.067 37.6033 154.086 38.4856 154.225C39.3678 154.364 40.2151 154.668 41.0272 155.136C41.7992 155.582 42.318 156.084 42.5837 156.643C42.8494 157.202 42.7842 157.804 42.3882 158.449C41.9922 159.094 41.1876 159.767 39.9744 160.468L36.3524 162.559ZM34.1349 161.368C34.4031 161.523 34.8379 161.523 35.1061 161.368L38.3201 159.513C39.5383 158.809 40.1674 158.174 40.2075 157.607C40.2476 157.034 39.9293 156.552 39.2525 156.161C38.7312 155.86 38.1171 155.659 37.4103 155.558C36.6984 155.453 35.964 155.466 35.207 155.597C34.4451 155.724 33.7282 155.982 33.0565 156.369L29.7522 158.277C29.484 158.432 29.484 158.683 29.7522 158.838L34.1349 161.368ZM27.1568 157.339C27.425 157.494 27.8598 157.494 28.128 157.339L31.1014 155.623C31.6628 155.299 32.0589 154.943 32.2895 154.555C32.5251 154.164 32.5752 153.776 32.4399 153.391C32.3095 153.003 31.9736 152.653 31.4322 152.341C30.7555 151.95 29.9459 151.754 29.0034 151.754C28.056 151.752 27.0709 152.045 26.0482 152.636L23.0147 154.387C22.7465 154.542 22.7465 154.793 23.0147 154.948L27.1568 157.339Z" fill="#11171D"/>
</svg>
