<svg fill="none" height="41" viewBox="0 0 44 41" width="44" xmlns="http://www.w3.org/2000/svg" xmlns:xlink="http://www.w3.org/1999/xlink"><linearGradient id="a"><stop offset="0" stop-color="#51f0ed"/><stop offset="1" stop-color="#04afac"/></linearGradient><linearGradient id="b" gradientUnits="userSpaceOnUse" x1="12.0249" x2="11.9725" xlink:href="#a" y1=".380342" y2="22.7273"/><linearGradient id="c" gradientUnits="userSpaceOnUse" x1="32.0861" x2="32.0861" y1="5.86283" y2="40.9836"><stop offset="0" stop-color="#51f0ed"/><stop offset=".9996" stop-color="#04afac"/></linearGradient><linearGradient id="d" gradientUnits="userSpaceOnUse" x1="16.3043" x2="16.3043" xlink:href="#a" y1="26.2856" y2="9.42145"/><clipPath id="e"><path d="m0 0h43.9396v41h-43.9396z"/></clipPath><g clip-path="url(#e)"><path d="m19.0584 8.16488c-1.514 1.58896-2.869 3.93642-4.5193 6.74972-3.1253 5.3287-4.66386 7.8646-7.37595 7.8646-2.11042 0-3.57624-2.8549-3.57624-7.2506 0-3.6981.89089-8.58545 2.20377-13.85493.2432-.975463 1.1205-1.6595098 2.12576-1.6595098h11.08496c.9483 0 1.6464.8900068 1.4181 1.8102498z" fill="url(#b)"/><path d="m4.26508.0136719c-1.01709 0-1.90052.7006991-2.13321 1.6910581-1.306745 5.55914-2.0722997 10.11087-2.0722997 13.82377 0 7.9255 3.8181297 10.7778 7.0161997 10.7778 3.91493 0 6.30323-2.3269 9.67743-8.177 3.2848-5.7213 5.0311-8.67218 6.989-8.67218 1.2174 0 1.9308 1.62488 1.9308 3.94648 0 8.1863-8.7642 12.8278-8.7642 22.8843v3.2379c0 .8068.6538 1.4606 1.4605 1.4606h3.5276c-.8067 0-1.4605-.6538-1.4605-1.4606v-3.3935c0-8.358 8.7642-13.1941 8.7642-22.7777 0-4.62666-2.2783-7.42508-5.3755-7.42508-4.0938 0-6.1608 3.656-9.2862 8.98508-3.1253 5.3291-4.6634 7.8646-7.37549 7.8646-2.11043 0-3.57624-2.855-3.57624-7.2507 0-3.698.89088-8.5854 2.20376-13.85488.24321-.975463 1.12051-1.65951 2.12576-1.65951z" fill="#b0fcfb"/><path d="m33.656 40.9861c.8068 0 1.4606-.6538 1.4606-1.4605v-3.3935c0-8.3576 8.7642-13.1937 8.7642-22.7774 0-4.6266-2.2782-7.42501-5.3755-7.42501h-14.6801c3.0968 0 5.3755 2.79841 5.3755 7.42501 0 9.5837-8.7642 14.4198-8.7642 22.7774v3.3935c0 .8067.6538 1.4605 1.4606 1.4605z" fill="url(#c)"/><path d="m7.0752 26.3062c3.915 0 6.3032-2.3269 9.6774-8.177 3.2849-5.7213 5.0311-8.67217 6.9891-8.67217 1.2173 0 1.9307 1.62487 1.9307 3.94657 0 4.9347-3.1849 8.5814-5.7147 12.9026z" fill="url(#d)"/></g></svg>