<?xml version="1.0" standalone="no"?>
<!DOCTYPE svg PUBLIC "-//W3C//DTD SVG 20010904//EN"
 "http://www.w3.org/TR/2001/REC-SVG-20010904/DTD/svg10.dtd">
<svg version="1.0" xmlns="http://www.w3.org/2000/svg"
 width="500.000000pt" height="500.000000pt" viewBox="0 0 500.000000 500.000000"
 preserveAspectRatio="xMidYMid meet">

<g transform="translate(0.000000,500.000000) scale(0.100000,-0.100000)"
fill="#000000" stroke="none">
<path d="M1597 4518 c-13 -7 -17 -23 -17 -69 0 -53 -3 -61 -22 -68 -26 -10
-38 13 -19 32 15 15 14 64 -1 70 -7 2 -21 0 -31 -5 -16 -8 -17 -17 -12 -63 7
-52 6 -55 -20 -67 -18 -8 -38 -36 -65 -92 -21 -45 -64 -115 -95 -155 -67 -88
-78 -114 -70 -158 7 -39 36 -57 79 -49 24 5 36 16 54 49 12 23 32 48 43 55 12
8 68 19 125 26 120 15 141 28 180 111 19 39 24 45 24 25 0 -14 -13 -47 -29
-74 l-30 -50 30 -33 c90 -103 150 -306 185 -623 29 -268 74 -487 129 -625 l26
-63 -30 -117 -29 -117 33 -87 c42 -112 95 -221 140 -293 29 -47 43 -60 74 -68
21 -5 51 -22 66 -38 l28 -27 -7 -105 c-10 -168 -44 -450 -77 -650 -27 -164
-92 -443 -119 -515 -5 -14 -10 -64 -10 -111 0 -73 2 -84 18 -84 56 0 138 96
129 152 -2 19 2 45 10 62 11 22 15 59 14 135 -2 119 19 298 48 411 11 41 42
140 70 220 58 166 109 376 146 600 43 260 42 259 44 154 0 -50 -4 -115 -9
-144 -13 -68 -7 -72 90 -67 56 2 89 10 131 30 34 16 73 27 98 27 39 0 48 -6
137 -91 138 -131 231 -187 356 -213 39 -9 107 -65 134 -111 81 -138 112 -216
180 -460 66 -235 126 -365 168 -365 34 0 56 118 32 174 -9 21 -16 47 -16 58 0
10 -19 42 -42 71 -79 99 -161 315 -241 632 -42 169 -43 170 -90 219 -61 62
-100 119 -139 202 -30 63 -31 70 -25 159 6 86 4 97 -18 141 -14 27 -25 50 -25
50 0 1 27 -9 59 -22 82 -33 112 -38 135 -21 19 14 19 19 6 100 -7 47 -10 100
-6 118 9 49 42 79 85 79 43 0 56 -8 65 -37 12 -39 63 -73 109 -73 23 0 49 5
57 10 12 9 8 16 -24 45 -22 20 -58 40 -80 46 -23 6 -59 18 -81 26 -22 8 -53
12 -71 8 -36 -6 -80 -52 -90 -92 -6 -22 0 -146 8 -184 7 -33 -41 -15 -142 51
-176 115 -259 144 -470 166 -76 8 -128 26 -188 66 -43 29 -60 52 -123 163 -19
33 -84 111 -145 175 -61 63 -122 135 -136 160 -15 25 -67 153 -117 285 -101
267 -208 492 -277 585 -26 33 -72 84 -104 112 l-58 51 19 31 c10 17 19 43 19
57 0 26 -1 27 -42 17 -48 -10 -108 -44 -108 -61 0 -8 -3 -8 -11 0 -9 9 -6 23
10 56 29 59 11 100 -32 75z"/>
<path d="M1995 2219 c-22 -22 -74 -57 -115 -77 -122 -59 -125 -65 -90 -165 27
-76 62 -281 99 -582 36 -286 45 -332 77 -396 32 -65 49 -76 68 -47 21 32 43
98 51 151 5 32 2 53 -10 76 -9 18 -15 50 -14 74 2 32 -9 69 -39 140 -84 195
-126 379 -120 522 l3 80 60 2 c96 4 180 13 194 22 10 6 2 24 -33 75 -25 36
-53 89 -63 116 -10 28 -20 50 -23 50 -3 0 -24 -18 -45 -41z"/>
<path d="M2860 2000 c-8 -6 -45 -19 -82 -31 l-67 -20 6 -37 c9 -55 38 -125 83
-196 22 -35 40 -75 40 -88 0 -37 -72 -249 -126 -373 -50 -114 -130 -249 -193
-324 -52 -63 -101 -141 -101 -163 0 -46 93 -7 169 70 48 49 61 71 81 133 30
94 151 337 270 543 51 88 94 165 97 172 3 8 -5 33 -16 57 -23 48 -51 163 -51
213 0 16 -5 35 -12 42 -14 14 -77 16 -98 2z"/>
</g>
</svg>
