<svg fill="none" height="265" viewBox="0 0 1440 265" width="1440" xmlns="http://www.w3.org/2000/svg" xmlns:xlink="http://www.w3.org/1999/xlink"><linearGradient id="a"><stop offset="0" stop-color="#51f0ed"/><stop offset="1" stop-color="#04afac"/></linearGradient><linearGradient id="b" gradientUnits="userSpaceOnUse" x1="77.5905" x2="77.2522" xlink:href="#a" y1="2.45614" y2="146.894"/><linearGradient id="c" gradientUnits="userSpaceOnUse" x1="207.252" x2="207.252" y1="37.894" y2="264.894"><stop offset="0" stop-color="#51f0ed"/><stop offset=".9996" stop-color="#04afac"/></linearGradient><linearGradient id="d" gradientUnits="userSpaceOnUse" x1="105.252" x2="105.252" xlink:href="#a" y1="169.894" y2="60.894"/><g fill="#11171d"><path d="m414.754 126.193v56.235h25.843v-56.235l54.374-87.8668h-30.598l-37.215 63.0578-36.8-63.0578h-30.392z"/><path d="m583.489 80.5023h-24.81v38.6617c0 18.193 0 43.623-23.155 43.623-18.814 0-18.814-17.78-18.814-24.809v-57.4757h-24.81v63.6777c0 21.708 10.751 40.315 36.388 40.315 11.991 0 23.155-4.135 30.391-13.852v11.785h24.81z"/><path d="m726.41 78.4348c-13.232 0-25.017 4.7551-32.873 20.0543-6.202-15.7126-18.607-20.0543-29.771-20.0543-10.131 0-20.675 3.5147-27.291 14.8857v-12.8182h-23.982l.207 101.9257h24.809v-38.868c0-20.468-.62-43.417 20.261-43.417 16.126 0 17.16 16.746 17.16 24.81v57.475h24.809v-38.868c0-20.468-.827-43.417 20.055-43.417 16.333 0 17.366 16.746 17.366 24.81v57.475h24.81v-64.918c0-20.4681-10.958-39.0752-35.56-39.0752z"/><path d="m902.264 78.4348c-13.231 0-25.016 4.7551-32.872 20.0543-6.202-15.7126-18.607-20.0543-29.771-20.0543-10.131 0-20.675 3.5147-27.291 14.8857v-12.8182h-23.982l.206 101.9257h24.81v-38.868c0-20.468-.62-43.417 20.261-43.417 16.126 0 17.16 16.746 17.16 24.81v57.475h24.809v-38.868c0-20.468-.827-43.417 20.055-43.417 16.333 0 17.366 16.746 17.366 24.81v57.475h24.81v-64.918c0-20.4681-10.958-39.0752-35.561-39.0752z"/><path d="m986.781 179.74-2.894 7.029c-4.135 10.338-11.164 16.127-21.088 16.127v23.775c20.054.207 37.007-12.404 45.481-33.906l45.07-112.2627h-27.29l-26.05 70.7067-25.84-70.7067h-27.29z"/><path d="m1152.48 80.5023h-17.37c-4.34 0-7.86 2.0674-9.92 5.3753-7.24-4.7551-16.13-7.4428-25.64-7.4428-22.74 0-41.76 15.2992-41.76 37.4212 0 8.89 3.1 16.953 6.82 22.122-4.55 6.409-8.06 12.818-8.06 21.708 0 8.063 1.86 13.645 6.2 17.78-5.17 4.135-9.1 10.13-9.1 18.814 0 21.295 17.37 30.391 47.76 30.391 27.5 0 46.93-9.096 46.93-30.391 0-24.396-26.67-26.67-47.34-29.358-12.82-1.654-23.16-3.722-23.16-11.164 0-2.481 1.04-4.135 2.9-5.376 5.99 2.481 12.61 3.928 19.64 3.928 22.33 0 41.35-15.506 41.35-38.454 0-5.376-1.04-10.338-3.11-14.679h13.86zm-52.52 53.5467c-11.57 0-17.36-7.856-17.36-17.573 0-10.337 6.82-17.3667 17.36-17.3667 10.55 0 16.96 6.8227 16.96 17.3667 0 9.924-5.59 17.573-16.96 17.573zm-4.13 53.754c14.68 2.068 27.7 2.895 27.7 9.097 0 6.823-10.54 9.097-21.09 9.097-11.57 0-24.19-2.481-24.19-10.958 0-3.721 1.04-6.616 3.93-9.303 1.66.206 3.31.62 5.17.827z"/><path d="m1261.27 80.5023h-24.81v38.6617c0 18.193 0 43.623-23.16 43.623-18.81 0-18.81-17.78-18.81-24.809v-57.4757h-24.81v63.6777c0 21.708 10.75 40.315 36.39 40.315 11.99 0 23.15-4.135 30.39-13.852v11.785h24.81z"/><path d="m1404.19 78.4348c-13.23 0-25.02 4.7551-32.87 20.0543-6.21-15.7126-18.61-20.0543-29.78-20.0543-10.13 0-20.67 3.5147-27.29 14.8857v-12.8182h-23.98l.21 101.9257h24.81v-38.868c0-20.468-.62-43.417 20.26-43.417 16.12 0 17.16 16.746 17.16 24.81v57.475h24.81v-38.868c0-20.468-.83-43.417 20.05-43.417 16.33 0 17.37 16.746 17.37 24.81v57.475h24.81v-64.918c0-20.4681-10.96-39.0752-35.56-39.0752z"/></g><path d="m123.051 52.7709c-9.786 10.27-18.543 25.4429-29.2098 43.6265-20.2003 34.4416-30.1446 50.8316-47.674 50.8316-13.6405 0-23.1147-18.452-23.1147-46.864 0-23.9016 5.7582-55.4907 14.2438-89.5496 1.572-6.30476 7.2423-10.7260445 13.7397-10.7260445h71.647c6.129 0 10.641 5.7524845 9.165 11.7004445z" fill="url(#b)"/><path d="m27.4341.0869141c-6.5738 0-12.2838 4.5289059-13.7878 10.9299859-8.44602 35.9311-13.394118 65.3506-13.394118 89.3491 0 51.226 24.678218 69.661 45.348618 69.661 25.3041 0 40.7403-15.039 62.5492-52.851 21.231-36.9792 32.518-56.0522 45.173-56.0522 7.868 0 12.479 10.5023 12.479 25.5081 0 52.9111-56.646 82.9111-56.646 147.9101v20.928c0 5.215 4.225 9.441 9.44 9.441h22.8c-5.214 0-9.44-4.226-9.44-9.441v-21.933c0-54.021 56.647-85.279 56.647-147.2223 0-29.9039-14.726-47.9912-34.745-47.9912-26.459 0-39.819 23.6302-60.0197 58.0743-20.2002 34.4442-30.1417 50.8322-47.6711 50.8322-13.6405 0-23.1147-18.453-23.1147-46.864 0-23.9022 5.7582-55.4913 14.2438-89.5502 1.572-6.30477 7.2423-10.7260541 13.7397-10.7260541z" fill="#b0fcfb"/><path d="m217.399 264.91c5.214 0 9.44-4.225 9.44-9.44v-21.933c0-54.019 56.647-85.276 56.647-147.2197 0-29.9038-14.725-47.9911-34.744-47.9911h-94.884c20.017 0 34.745 18.0873 34.745 47.9911 0 61.9437-56.647 93.2007-56.647 147.2197v21.933c0 5.215 4.226 9.44 9.44 9.44z" fill="url(#c)"/><path d="m45.6008 170.027c25.3041 0 40.7403-15.039 62.5492-52.851 21.231-36.979 32.518-56.052 45.173-56.052 7.868 0 12.479 10.5023 12.479 25.5081 0 31.8949-20.585 55.4659-36.936 83.3949z" fill="url(#d)"/></svg>